/* XPM */
static char *edc594fe1ac54e7b817ec5d63be1d542RZHn03vxcxSuV3D8[] = {
/* columns rows colors chars-per-pixel */
"64 64 196 2 ",
"   c #050505",
".  c #070708",
"X  c #0C0C0C",
"o  c #0F1011",
"O  c #131313",
"+  c #181717",
"@  c #1B1B1B",
"#  c #1F1F20",
"$  c #232324",
"%  c #2A2727",
"&  c #2B2B2C",
"*  c #372B29",
"=  c #2F3030",
"-  c #333434",
";  c #353639",
":  c #3B3B3B",
">  c #691615",
",  c #5F201B",
"<  c #462727",
"1  c #572A29",
"2  c #462E31",
"3  c #4A3B32",
"4  c #4C3D39",
"5  c #5E3A35",
"6  c #593B3A",
"7  c #642B28",
"8  c #752826",
"9  c #79332C",
"0  c #653535",
"q  c #6A3B34",
"w  c #6A3B3A",
"e  c #773634",
"r  c #703C3D",
"t  c #793D3A",
"y  c #51413E",
"u  c #6B423F",
"i  c #72413F",
"p  c #7D413C",
"a  c #3F4343",
"s  c #444444",
"d  c #4B4546",
"f  c #464A4A",
"g  c #4B4B4B",
"h  c #504A4B",
"j  c #5C4949",
"k  c #4D514F",
"l  c #52524F",
"z  c #4B4F50",
"x  c #594E51",
"c  c #4D5051",
"v  c #545454",
"b  c #595452",
"n  c #575858",
"m  c #5C5C5B",
"M  c #644543",
"N  c #674A47",
"B  c #6A4B43",
"V  c #6B4C4C",
"C  c #77504F",
"Z  c #625452",
"A  c #63585A",
"S  c #62615F",
"D  c #5F6061",
"F  c #636363",
"G  c #686866",
"H  c #676868",
"J  c #6B6B6C",
"K  c #73696A",
"L  c #70706E",
"P  c #7B7A6F",
"I  c #6F7070",
"U  c #747473",
"Y  c #7A7973",
"T  c #7B7C7B",
"R  c #862926",
"E  c #867979",
"W  c #80807F",
"Q  c #7F7F80",
"!  c #848484",
"~  c #8B8B87",
"^  c #878888",
"/  c #8C8C8C",
"(  c #949283",
")  c #939393",
"_  c #9A9595",
"`  c #9C9A90",
"'  c #9C9C9C",
"]  c #A09F9A",
"[  c #9FA09F",
"{  c #B7AE87",
"}  c #B8B08D",
"|  c #A2A097",
" . c #A2A19D",
".. c #AEAB9A",
"X. c #A49FA0",
"o. c #9FA0A0",
"O. c #A3A4A3",
"+. c #ACABA6",
"@. c #A7A7A8",
"#. c #A7A9A9",
"$. c #ACACAB",
"%. c #B0AFAD",
"&. c #B9B6A6",
"*. c #B3B2AD",
"=. c #AFB0B0",
"-. c #B4B4B4",
";. c #B7B8B7",
":. c #B9B9B6",
">. c #B5B8B8",
",. c #BCBDBC",
"<. c #C0BC9D",
"1. c #C0BFB7",
"2. c #BEC0BF",
"3. c #CDC087",
"4. c #CEC28B",
"5. c #D0C58F",
"6. c #CFC690",
"7. c #D2C692",
"8. c #D3C996",
"9. c #D5CB9A",
"0. c #D9D09F",
"q. c #CBC6AB",
"w. c #D7CEA2",
"e. c #D9CFA3",
"r. c #D2CCAD",
"t. c #DAD1A5",
"y. c #DBD3AB",
"u. c #CAC7B6",
"i. c #C1C1BE",
"p. c #D1CCB6",
"a. c #D6D1B5",
"s. c #DDD6B2",
"d. c #DFD9B4",
"f. c #D6D2BD",
"g. c #DAD6BA",
"h. c #DFD9BC",
"j. c #E1D8AF",
"k. c #E0D9B5",
"l. c #E2DCBC",
"z. c #BFC0C0",
"x. c #C2C2C2",
"c. c #C7C8C7",
"v. c #CAC9C5",
"b. c #CBCBCB",
"n. c #CFD0CE",
"m. c #D5D4C5",
"M. c #DCD9C7",
"N. c #D3D2CB",
"B. c #DCDACF",
"V. c #CFD0D0",
"C. c #D4D4D4",
"Z. c #DADAD7",
"A. c #DCDCDC",
"S. c #E3DEC2",
"D. c #E1DEC9",
"F. c #E1DFD3",
"G. c #E0DFDF",
"H. c #DFE0DF",
"J. c #E6E0C4",
"K. c #EAE5C5",
"L. c #E6E2CA",
"P. c #EAE5CC",
"I. c #E6E2D1",
"U. c #E9E6D3",
"Y. c #ECE9D5",
"T. c #E2E2DE",
"R. c #E8E6DA",
"E. c #EEEBDB",
"W. c #F0EDDD",
"Q. c #F4F1DD",
"!. c #DFDFE0",
"~. c #E1E1E1",
"^. c #E4E4E4",
"/. c #E5E5E5",
"(. c #E7E8E7",
"). c #ECEBE4",
"_. c #EAEAEA",
"`. c #EBEBEB",
"'. c #EEEEEE",
"]. c #F1EFE2",
"[. c #F0EFEB",
"{. c #F3F1E5",
"}. c #F4F3EC",
"|. c #F9F8EC",
" X c #F2F2F1",
".X c #F5F5F3",
"XX c #F5F6F5",
"oX c #F8F7F2",
"OX c #F9F9F4",
"+X c #F7F7F8",
"@X c #F8F9F9",
"#X c #F9FAFA",
"$X c #FBFBFB",
"%X c #FDFDFA",
"&X c #FDFDFD",
"*X c #FEFEFE",
/* pixels */
"&X$.b.x.z.x.,.b.x.C.&X&X&X&X&X&X&X&X&X&X&X&X&X&X&X&X&X&X&X&X&X&X&X&X&X&X&X&X&X&X&X&X&X&X&X&X&X&X&X&X&X&X&X&X&X&X&X&X&X&X&X&X&X&X",
" X$.c.;.1.x.z.z.c.c.&X&X&X&X&X&X&X&X&X&X&X&X&X&X&X&X&X&X&X&X&X&X&X&X&X&X&X&X&X&X&X&X&X&X&X&X&X&X&X&X&X&X&X&X&X&X&X&X&X&X&X&X&X&X",
"~.-.C.~.x.z.x.z.x.z.$X&X&X&X&X&X&X&X&X&X&X&X&X&X&X&X&X&X&X&X&X&X&X&X&X&X&X&X&X&X&X&X&X&X&X&X&X&X&X&X&X&X&X&X&X&X&X&X&X&X&X&X&X&X",
"~.,.-.-.G.x.x.x.c.;.+X&X&X&X&X&X&X&X&X&X&X&X&X&X&X&X&X&X&X&X&X&X&X&X&X&X&X&X&X&X&X&X&X&X&X&X&X&X&X&X&X&X&X&X&X&X&X&X&X&X&X&X&X&X",
"(.$.^ T >.b.z.z.x.>.XX&X&X&X&X&X&X&X&X&X&X&X&X&X&X&X&X&X&X&X&X&X&X&X&X&X&X&X&X&X&X&X&X&X&X&X&X&X&X&X&X&X&X&X&X&X&X&X&X&X&X&X&X&X",
" Xo._.^.O.b.z.z.x.-. X&X&X&X&X&X&X&X&X&X&X&X&X&X&X&X&X&X&X&X&X&X&X&X&X&X&X&X&X&X&X&X&X&X&X&X&X&X&X&X&X&X&X&X&X&X&X&X&X&X&X&X&X&X",
"$XC.&X$X$.c.x.x.b.-.XX&X&X&X&X&X&X&X&X&X&X&X&X&X&X&X&X&X&X&X&X&X&X&X&X&X&X&X&X&X&X&X&X&X&X&X&X&X&X&X&X&X&X&X&X&X&X&X&X&X&X&X&X&X",
"&X&X&X&X$.x.z.z.x.-.$X&X&X&X&X&X&X&X&X&X&X&X&X&X&X&X&X&X&X&X&X&X&X&X&X&X&X&X&X&X&X&X&X&X&X&X&X&X&X&X&X&X&X&X&X&X&X&X&X&X&X&X&X&X",
"&X&X&X$X$.c.2.2.c.=.$X&X&X&X&X&XXXO.) /.&X&X&X&X&X&X&X&X&X&X&X&X&X&X&X&X&X&X&X&X&X&X&X&X&X&X&X&X&X&X&X&X&X&X&X&X&X&X&X&X&X&X&X&X",
"&X&X&X'.O.C.x.x.c.-.&X&X&X&X&X&X;.O.-.O.$X&X&X&X&X&X&X&X&X&X&X&X&X&X&X&X&X&X&X&X&X&X&X&X&X&X&X&X&X&X&X&X&X&X&X&X&X&X&X&X&X&X&X&X",
"&X&X&X^.@.Z.i.c.=.v.%X&X&X&X&XXXO.A./.;.c.&X&X&X&X&X&X&X&X&X&X&X&X&X&X&X&X&X&X&X&X&X&X&X&X&X&X&X&X&X&X&X&X&X&X&X&X&X&X&X&X&X&X&X",
"&X&X&Xn.=.A.,.b.' `.&X&X&X&X&X~.-.c.,.C.$.$X&X&X&X&X&X&X&X&X&X&X&X&X&X&X&X&X&X&X&X&X&X&X&X&X&X&X&X&X&X&X&X&X&X&X&X&X&X&X&X&X&X&X",
"&X&X&X;.x.A.v.;.;.&X&X&X&X&X&Xb.,.x.,.C.b.H. X$X&X&X&X&X&X&X&X&X&X&X&X&X&X&X&X&X&X&X&X&X&X&X&X&X&X&X&X&X&X&X&X&X&X&X&X&X&X&X&X&X",
"&X&XXX' A.V.b.O.`.&X&X&X&X&X&Xc.,.x.x.c.O.s g / C.&X&X&X&X&X&X&X&X&X&X&X&X&X&X&X&X&X&X&X&X&X&X&X&X&X&X&X&X&X&X&X&X&X&X&X&X&X&X&X",
"&X&Xb.O.'.x.c.>.&X&X&XZ.c.$X&X,.b.c.x.O.% f -   & O.&X&X&X&X&X&X&X&X&X&X&X&X&X&X&X&X&X&X&X&X&X&X&X&X&X&X&X&X&X&X&X&X&X&X&X&X&X&X",
"&X$XO.C.C.x.;.C.&X&X(.-.-.x.&X-.C.c.V.! ! (.V._ - + ^ XX&X&X&X&X&X&X&X&X&X&X&X&X&X&X&X&X&X&X&X&X&X&X&X&X&X&X&X&X&X&X&X&X&X&X&X&X",
"&XA.-.Z.,.x.-._.&X&Xx.C.(.X.V.,.A.x.,.b N.y.U.&XA.F o m Z.XX&X&X&X$XXX[. X`.`. XXX&X&X&X&X&X&X&X&X&X&X&X&X&X&X&X&X&X&X&X&X&X&X&X",
"&X,.~.c.z.x.-.+X&X@X>.x.x.b.) ,._.b.U & N.8.8.S.%X XW + + c ) C.-.! m : $ @ + # s _ ~.&X&X&X&X&X&X&X&X&X&X&X&X&X&X&X&X&X&X&X&X&X",
" X,.XXc.x.x.z.&X&X^.-.x.z.b.,.C._.b.Z 3 $.j.8.8.J.$XOX#.g +   = o . o # - a s : @   - O.$X&X&X&X&X&X&X&X&X&X&X&X&X&X&X&X&X&X&X&X",
"A.C.$Xc.z.x.x.&X&XV.>.x.z.z.C.&XG.J < 4 G l.y.W.d.L.OX%X_.-.) & D ' $.,.C.H.^.Z.,./ & O T  X&X&X&X&X&X&X&X&X&X&X&X&X&X&X&X&X&X&X",
"b.T.@Xx.z.x.x.&X&X;.1.x.z.x.,.c.-.< 8 b = &.k.oX}.h.L.@X&X&X&X[ H oXQ.}.$X%X$X+X&X&XC.n X ) &X&X&X&X&X&X&X&X&X&X&X&X&X&X&X&X&X&X",
"z. XA.,.z.c.c.&X$X#.c.z.x.z.z.x.O.R R Z - F d.W.oX}.s.d.E.h.9.L.J &.9.8.y.S.Y.}.}.}.&X'.H @ T .X&X&X&X&X&X&X&X&X&X&X&X&X&X&X&X&X",
">.'.v.x.z.c.x.&X^.] c.i.z.z.x.c.' 0 3 u s = &.Y.}.oX{.y.4.6.8.y.c.~ s.8.4.3.3.5.7.8.k.E.R.g o ! $X&X&X&X&X&X&X&X&X&X&X&X&X&X&X&X",
"x.(.i.z.z.c.>.$X,.=.c.,.c.c.x.x.A 9 h p f % Y K.}.}..X.XY.].{.y.M.) p.8.y.d.d.y.9.7.3.7.j.' # O ^ XX&X&X&X&X&X&X&X&X&X&X&X&X&X&X",
",.A.,.x.z.x.:.-./ b.x.x.,.>.v.-.1 C u i f % : a.}.}.}.}.oXoXoX].q.+.u.y.}.OXOX+X}.E.L.t.7.a.F m O T XX&X&X&X&X&X&X&X&X&X&X&X&X&X",
",.C.z.x.z.x.x.U X.!.x.>.T T ,.@.R V M V g = - ..{.|.}.}.}.}.}.oXP. .C.s.{.}.}.}.}..XoXOXE.s. .#.J X J _.&X&X&X&X&X&X&X&X&X&X&X&X",
"z.b.z.z.x.z.b.x.^.C.x.) $.-.O.X.e v Z j f : n E {.}.}.}.}.}.}.}..X+.N.l.Y.}.}.}.}.}.}.}.oXL.f.^ ~.T X g C.&X&X&X&X&X&X&X&X&X&X&X",
"x.b.z.x.z.x.z.A.'.v.-.@.XXXX-._ 0 v b b g - ! l E.}.}.}.[.}.}.}.oXC.O.P.J..X}.}.}.}.}.}.}.}.K.%.-.{./ + = O.&X&X&X&X&X&X&X&X&X&X",
"b.x.x.z.x.x.z.,.x.z.*.^.&X&Xz._ 4 v c v f ; O.: v.|.}.}.}.}.}.}.}.}._ D.l.}.}.}.}.}.}.}.}.}.W.B.O.g.E.$.& O H C.&X&X&X&X&X&X&X&X",
"b.b.z.x.x.z.x.z.,.z.-.$X&X&Xb.' 4 b v v g - ;.s o.[.}.}.}.}.}.}.}.}.-.:.l.}.}.}.}.}.}.}.}.}.}.Z.-.m.t.E.b.c X & ) `.&X&X&X&X&X&X",
"b.x.x.x.z.x.x.c.x.x.z.$X&X&XC.$.5 r v M g ; x.F Y Z.}.}.}.}.}.}.}.}.A.+.l.{.}.}.}.}.}.}.}.}.}.}. .(.l.8.E.}.) = X = ) A.&X&X&X&X",
"V.c.z.x.x.z.,.X.>.x.z.$X&X&Xx.z.K e v w d ; c.T H x.}.}.}.}.}.}.}.}.}.$.M.{.}.}.}.}.}.}.}.}.}.OX-.:.}.9.4.J.OXZ.T &   = )  X&X&X",
"V.V.1.z.x.x.=.O._ >.-.^. X$X@.x.! 7 v u d : c._ D $.}.}.}.}.}.}.}.}.}.*.u.E.}.}.}.}.}.}.}.}.}.}.)./ _.l.t.8.e.Y.$Xn./ - . T $X&X",
"V.A.z.x.z.z.-. XC.#.%.! ! ) ) b.^ 2 v 6 d a c.+.m  .`.}.}.}.}.}.}.}.|.b.&.E.}.}.}.}.}.}.}.}.}.}.oXO.,.{.P.{.L.s.k.Y.oXZ.D + c.&X",
"b.^.z.x.x.z.;.@X$X:.x.$.O.! ;.b.L 1 h 0 s s c.2.D / ).}.}.`.}.}.}.}.}.^.*.E.}.}.}.}.}.{.}.}.}.}.oXG.~ [.Y.}.XXoX{.Y.I.|._.g E &X",
"b.'.z.x.x.x.;.'.$X=.x.x.b.b.x.;.6 8 g q s s 2.Z.D ! T.}.}.}.}.}.}.}.}.}.*.R.}.}.}.}.}.}.}.}.}.[.}.oX] :.}.}.}.}..XOX.X}.OX-.v $X",
"V. Xx.z.x.x.>.Z. XX.z.z.x.x.x.>.0 9 g R 4 f 2.T.F ! A.OX}.}.}.}.}.}.}.oXx.T.}.}.}.}.}.}.}.}.}.}.}.|.Z.~ b.}.}.}.}.}.}.}.}.h.H ^.",
"V.'.x.z.z.x.,.,.A.O.x.x.z.x.x.,.q j k , , k u.[.L Y c.oX}.}.}.}.}.}.}.}.C.A.oX}.}.[.}.}.}.}.}.}.}.}.{.' O.N.OXOX}.}.}.oX{.y.Y Z.",
"V.'.c.x.x.z.x.O.Q @.x.x.z.x.z.,.r j v ; 1 v f.oXT U 2.|.}.}.}.}.}.}.}.}.T.B.}.}.}.}.}.}.}.}.}.}.}.}.E.p./ @.M.E.OXOXOX{.k.t.U C.",
"C.^.x.x.z.z.x.,.O.x.x.z.x.x.z.,.B j j n 1 v M.|.) U 2.|.}.}.}.}.}.{.}.}.`.Z.oX}.}.}.}.}.}.}.}.}.}.}.{.k. ._ &.t.l.J.l.J.K.Z.D A.",
"A.G.x.x.x.x.x.x.c.x.x.z.x.x.x.,.M x B x < A L.OX[ Y ;..X}.}.}.}.}.}.}.].].~.].}.}.}.}.}.}.}.}.}.}.}.}.l.q.#.) g.4.y.Q.C.' F g XX",
"^.C.x.x.x.x.x.x.z.x.x.x.x.z.x.,.B x r v * F U.OX*.Y $.}.}.}.}.}.}.}.}.].W.[.Y.}.}.}.}.}.}.}.}.}.}.}.}.Y.9.i._ -.{.}.) - X . ) &X",
"`.b.c.x.x.z.x.z.x.z.x.x.z.x.z.z.r t R v & P W.oX2.T $.}.}.}.}.}.}.}.}.}.U.}.U.].}.}.}.}.}.}.}.}.}.}.}.{.t.s.c.T ~.J X # F $. X&X",
"@Xb.V.,.z.x.z.x.z.x.z.x.x.z.x.x.Z > r z % ( W.oXi.! -.}.}.}.}.}.}.}.}.[.L.}.W.Y..X}.[.}.}.}.}.}.}.}.}..Xs.8.Y.U : O F Z.$X&X&X&X",
"@Xb.C.z.z.x.z.x.z.1.;.,.z.x.z.c.' < N f = &.W.oXc.! i.}.}.`.}.}.}.}.}.}.l.{.].S.}.}.}.}.`.}.}.}.}.}.OXY.9.9.D.n X ^ $X&X&X&X&X&X",
"$XC.b.x.x.z.x.z.z.c.~.c.z.z.z.x.V.C B a 4 p.W.oXx.W u.].}.}.}.}.}.}.}.}.d.].].l.[.}.}.}.}.}.}.`.}..X].w.8.L.T + I XX&X&X&X&X&X&X",
"&X^.z.b.z.x.x.z.z.C.&XG.1.x.x.z.b.E B - G l.}.oXc.Y u.{.}.}.}.}.}.}.}.}.s.F.U.l.W.}.}.}.}.}..X.XOXW.e.7.K./ O U '.&X&X&X&X&X&X&X",
"&X$X-.C.,.x.z.x.z.b.(.'.x.x.z.x.c.E y & | l.}.|.v.Y v.E.}.}.}.}.}.}.}.}.y.p.m.l.S.$XOXOXOXOXOX}.L.8.7.P.O.+ U XX&X&X&X&X&X&X&X&X",
"&X&Xx.x.x.,.x.i.x.,./ Z.b.z.z.x.c.! < 4 q.d.}.oXv.U N.E.}.}.oX}.}.}.}.{.w.r.u.y.t.K.Y.E.Y.P.l.0.4.8.Y.-.@ J  X&X&X&X&X&X&X&X&X&X",
"&X&X'.#.A.x.;.i.c.' ,.=.C.z.x.z.x.$.% S t.s.OX%Xv.U F.E.}.}.}.XXoX}.XXE.8.w.[ y.8.<.7.8.8.5.<.5.y.{.-.% n _.&X&X&X&X&X&X&X&X&X&X",
"&X&X&Xx.-._._.~.X.b.&X-.C.z.z.z.z.Z.D ~ w.7.k.l.} L ).E.}.}.$X}.}.OX}.y.9.t.` ..0.0.8.8.7.7.9.L..X=.# y ~.&X&X&X&X&X&X&X&X&X&X&X",
"&X&X&X$X#.' ,.) -.&X&X>.c.x.z.x.x.C.^ ) ].d.9.8.{ U ].E.+X}.J.9.8.y.w.7.9.8.&.J j.8.8.0.j.Y.@X/./ o : C.&X&X&X&X&X&X&X&X&X&X&X&X",
"&X&X&X&X$X,.O.c.&X&X&Xc.z.x.x.z.c.,.;.g *.T.`..XN.Y ).Y.{.t.4.4.4.4.5.8.0.t.l.L _ |.%X%X^.c.$.g . f C.&X&X&X&X&X&X&X&X&X&X&X&X&X",
"&X&X&X&X&X&X&X&X&X&X&XA.-.c.i.,.V.;.XXU + s n F n I E.9.7.5.t.s.S.U.Y.W.}.%X&X*.* E ! U c %   + Y ~.&X&X&X&X&X&X&X&X&X&X&X&X&X&X",
"&X&X&X&X&X&X&X&X&X&X&X@X=.n.>.x.c.c.&X_.) - o . . J Y.s.Y.{.}..XXXXXA.$.W m d - O .     O : ! v.+X&X&X&X&X&X&X&X&X&X&X&X&X&X&X&X",
"&X&X&X&X&X&X&X&X&X&X&X&Xz.c.(._.=.'.&X&X&X(.~.~.-.I `.(.~.C.$.Y g & @ O X o + $ n T T ,.!._.XX&X&X&X&X&X&X&X&X&X&X&X&X&X&X&X&X&X",
"&X&X&X&X&X&X&X&X&X&X&X&X X@.c.-.x.&X&X&X&X&X&X&XC.- H s @ . X @ & : v F T O.C. X$X&X&X&X&X&X&X&X&X&X&X&X&X&X&X&X&X&X&X&X&X&X&X&X",
"&X&X&X&X&X&X&X&X&X&X&X&X&XA.$.z.$X&X&X&X&X&X&X&XXXT ; s H T / $.c.^.&X&X&X&X&X&X&X&X&X&X&X&X&X&X&X&X&X&X&X&X&X&X&X&X&X&X&X&X&X&X",
"&X&X&X&X&X&X&X&X&X&X&X&X&X&X&X&X&X&X&X&X&X&X&X&X&XXXZ.~.XX&X&X&X&X&X&X&X&X&X&X&X&X&X&X&X&X&X&X&X&X&X&X&X&X&X&X&X&X&X&X&X&X&X&X&X",
"&X&X&X&X&X&X&X&X&X&X&X&X&X&X&X&X&X&X&X&X&X&X&X&X&X&X&X&X&X&X&X&X&X&X&X&X&X&X&X&X&X&X&X&X&X&X&X&X&X&X&X&X&X&X&X&X&X&X&X&X&X&X&X&X",
"&X&X&X&X&X&X&X&X&X&X&X&X&X&X&X&X&X&X&X&X&X&X&X&X&X&X&X&X&X&X&X&X&X&X&X&X&X&X&X&X&X&X&X&X&X&X&X&X&X&X&X&X&X&X&X&X&X&X&X&X&X&X&X&X",
"&X&X&X&X&X&X&X&X&X&X&X&X&X&X&X&X&X&X&X&X&X&X&X&X&X&X&X&X&X&X&X&X&X&X&X&X&X&X&X&X&X&X&X&X&X&X&X&X&X&X&X&X&X&X&X&X&X&X&X&X&X&X&X&X",
"&X&X&X&X&X&X&X&X&X&X&X&X&X&X&X&X&X&X&X&X&X&X&X&X&X&X&X&X&X&X&X&X&X&X&X&X&X&X&X&X&X&X&X&X&X&X&X&X&X&X&X&X&X&X&X&X&X&X&X&X&X&X&X&X",
"&X&X&X&X&X&X&X&X&X&X&X&X&X&X&X&X&X&X&X&X&X&X&X&X&X&X&X&X&X&X&X&X&X&X&X&X&X&X&X&X&X&X&X&X&X&X&X&X&X&X&X&X&X&X&X&X&X&X&X&X&X&X&X&X"
};
