/* XPM */
static char *_2eb86dacd1b48ffca69e024d3f4361bSxgCdkXtoYu9BZiL[] = {
/* columns rows colors chars-per-pixel */
"64 64 211 2 ",
"   c None",
".  c #010200",
"X  c #0A0503",
"o  c #030B01",
"O  c #0B0C05",
"+  c #01090C",
"@  c #130B06",
"#  c #1B0E08",
"$  c #150E08",
"%  c #041301",
"&  c #0C1405",
"*  c #061C01",
"=  c #0C1A05",
"-  c #051C0E",
";  c #111A07",
":  c #1D130B",
">  c #131D09",
",  c #1C1C0C",
"<  c #14120A",
"1  c #000611",
"2  c #000A15",
"3  c #000D1C",
"4  c #041716",
"5  c #24140B",
"6  c #28170C",
"7  c #241A0B",
"8  c #2C1B0D",
"9  c #331C0F",
"0  c #241B12",
"q  c #361F10",
"w  c #072102",
"e  c #092403",
"r  c #0A2C02",
"t  c #072809",
"y  c #132507",
"u  c #122D06",
"i  c #16230A",
"p  c #19240B",
"a  c #1B2C0B",
"s  c #182708",
"d  c #0B3403",
"f  c #0D3C03",
"g  c #0C3909",
"h  c #133206",
"j  c #133A06",
"k  c #1D320C",
"l  c #1C3B0C",
"z  c #163808",
"x  c #05241B",
"c  c #082814",
"v  c #1C2511",
"b  c #1E2B11",
"n  c #0B3812",
"m  c #1F3610",
"M  c #2A280D",
"N  c #21350E",
"B  c #233A0E",
"V  c #2A380C",
"C  c #212B13",
"Z  c #292114",
"A  c #3C2212",
"S  c #3E2E1F",
"D  c #392712",
"F  c #233313",
"G  c #263C11",
"H  c #2B3A16",
"J  c #363D15",
"K  c #000D21",
"L  c #00142D",
"P  c #041B2E",
"I  c #021623",
"U  c #001634",
"Y  c #001A3B",
"T  c #082826",
"R  c #04263B",
"E  c #093827",
"W  c #4B2B16",
"Q  c #432815",
"!  c #532E19",
"~  c #4B3517",
"^  c #5C351C",
"/  c #533319",
"(  c #64391E",
")  c #65391E",
"_  c #433221",
"`  c #483623",
"'  c #6D3E21",
"]  c #0F4403",
"[  c #0F4B03",
"{  c #0E410A",
"}  c #114704",
"|  c #114B04",
" . c #1D420C",
".. c #194A08",
"X. c #125404",
"o. c #145C05",
"O. c #11520A",
"+. c #175409",
"@. c #0E4915",
"#. c #26490C",
"$. c #334C0F",
"%. c #2A4412",
"&. c #2E4A14",
"*. c #254613",
"=. c #314D14",
"-. c #33431E",
";. c #33481D",
":. c #2A5915",
">. c #345316",
",. c #365817",
"<. c #395B18",
"1. c #3E5112",
"2. c #2B550C",
"3. c #166305",
"4. c #176A05",
"5. c #186D05",
"6. c #186506",
"7. c #197406",
"8. c #1B7B06",
"9. c #177407",
"0. c #3D621A",
"q. c #3F691B",
"w. c #28740A",
"e. c #3A4D22",
"r. c #364720",
"t. c #3C5224",
"y. c #3E5D23",
"u. c #644B1E",
"i. c #40671B",
"p. c #446C1C",
"a. c #47711E",
"s. c #49741F",
"d. c #415526",
"f. c #455B29",
"g. c #445C28",
"h. c #754223",
"j. c #7B4625",
"k. c #7C4925",
"l. c #6E4921",
"z. c #4C642D",
"x. c #466728",
"c. c #4D7A20",
"v. c #497724",
"b. c #536E31",
"n. c #597734",
"m. c #517629",
"M. c #607F39",
"N. c #001D44",
"B. c #001E48",
"V. c #01224D",
"C. c #032945",
"Z. c #053546",
"A. c #002454",
"S. c #002659",
"D. c #00295E",
"F. c #002B64",
"G. c #002D6C",
"H. c #003377",
"J. c #023563",
"K. c #084145",
"L. c #814927",
"P. c #894D29",
"I. c #8D512B",
"U. c #845028",
"Y. c #93542D",
"T. c #99582E",
"R. c #9F5930",
"E. c #A35C31",
"W. c #A95E33",
"Q. c #AC6234",
"!. c #BA6938",
"~. c #B86837",
"^. c #CC743D",
"/. c #C7713C",
"(. c #D1773F",
"). c #C36E3B",
"_. c #DC7C42",
"`. c #D77A41",
"'. c #1D8306",
"]. c #1E8B07",
"[. c #1F8308",
"{. c #1F9007",
"}. c #209107",
"|. c #538423",
" X c #578B25",
".X c #598E25",
"XX c #5C9227",
"oX c #5F9728",
"OX c #4B8029",
"+X c #63833A",
"@X c #68893D",
"#X c #6C943F",
"$X c #6E9241",
"%X c #719543",
"&X c #759A45",
"*X c #6C8E40",
"=X c #7CA349",
"-X c #79A846",
";X c #83AC4E",
":X c #8CB853",
">X c #EC8647",
",X c #F68C4B",
"<X c #FF924E",
"1X c #95C558",
"2X c #9FD25E",
"3X c #A0D35F",
"4X c #A8DD63",
"5X c #003986",
"6X c #003E93",
"7X c #00429C",
"8X c #0047A5",
/* pixels */
"                                                                                                                                ",
"                                                                                                                                ",
"                                                                                                                                ",
"                                                                                                                                ",
"                                                                                                                                ",
"                                                                                                                                ",
"                                                                                                                                ",
"                                                                                                                                ",
"                                                                                                                                ",
"                                                                                                                                ",
"                                                            . .                                                                 ",
"                                                        . . . . . o O .                                                         ",
"                                                      . . .   . . s &                                                           ",
"                                              .         . . . . ; i i & .                                                       ",
"                                              . . . . . o . . . . ; > O                                                         ",
"                  .                     . @ 8 @ . . 5 . . w r e o         .                               .                     ",
"                  . . . . .               @ W P.h.9 ! , f o.8.3.8 :     < o                               . . . . .             ",
"            . . . . . & & .                   6 h.Q.7 d ..d o.| Q ! . = &.O = ; O .                 . . . . . & &               ",
"            . . . . O i & o                     # A 6 # ) l | r u =.B %.,.p.c.<.;                   . . . . & i & .             ",
"      . .   . . . . o ; p O               @ Q ( ' / q ' ! ] u & B oXs.s.XXs.>.s .           . .     . o . . . ; i o             ",
". 1 3 + . 1 . o r r o       .           . $ 6 # X . W ! . * h.9 a ,.c.s.0.i..X.Xp.a . . . v C X o , . % t r o       .           ",
"  1 N.S.N.U c | o.8.c K   O >       . .           . X   . # k.7 k <.q.i &.>.F >.p.>.; . . v z.M.d.r.u | 3.9.G C   & &           ",
"      K A.K e c ] | c P X k G N G ; . & i       % e %     A ) M a C ~ Z k G G .   X . .       H n.v h  .] [ m -.O G B B B < .   ",
"    K U U K U R | e u a.0.0.c.a.=.;   & 0.>.    o d o.] o o ( I./ h.h.6 ; o =.>             H e.t.F t.t.X.* z v.,.0.c.p.&.&     ",
". 3 U L 2 L N.+ c L y p.s.|.s.s.a.&.;   k XXp.& . . e | d | J Y.^.Q.P.Q .   > s         . F r.r., e.f.* *.H s a.v.|.a.s.a.G &   ",
"        . 1   . P N.i >.a.H >.=.0.a.=.. . &.>.r | 4.o.} o.8.} o 8 ~.Y.,       . .     .         . v   . g.t.s <.0.B =.=.p.s.=.O ",
">     o * *     U P k a T 4 s s ; %.=.=.%.N & r d e d 3.o.X.X.r q M $.d w       .   . O ;     o * %   < g.H a F ;.C N =.O & & o ",
"p.&.    e | ] o 4 D.V.A.V.2 . i p..XoXoX.Xs.&.& . d '.8.} X.r 5., y ..3.} %       . o = i.%.    r X.g . F $Xb.n.b.> o N N       ",
"B .X&.o * r ] | X.R F.H.F.K     & i a p N %.=.> * '.].f 3.X.o 3.u W j 7.o.* .   * X.e   &..XG o * d ] [ +.x.&X:X@Xv     > .     ",
"& k u | o.| | 3.3.r + V.C.-       . = <..X|.=.& 3.{.X.* '.j ! h h ) W / p o o o 6.3.o . o F r | o.[ X.6.3.w > +Xx.=     . .     ",
"c.,.i o % o.7.X.} o.- c { | e     > c.XX>.i p f 8.} 8 u 5., / W & ) T.h.5   e f 4.f d d e o o o * 3.4.X.] X.F z | } *         . ",
"=.&.F o o.{.| 3.e ] { I | 7.] o & a.|.N . G l f V k.Q.a j h.h.W A T.W ' . . w 4.8.'.8.'.7.f o o 3.].] 4.* X.z G | 7.f o   o d % ",
"|.s.k f ].o.r 8.x 4 f Y P T e . B 0.y . p s.N j._.T.( 5 I.<X^.R.L.L./ #     D 2.].'.3.f e B ; ] ].X.d 9.G l g f.;.:.e o o | o.o ",
"%.s y 5.o.I g o.L U 4 Y F.N.  o r X.] r k %.D (._.^.P.Q T.!.k.T.k./ E.A   6 ( +.o.3.7.'.| & e 4.O.F } X.-.t.i z.%Xd.  - d 3.] f ",
"o =.y T A.F.c T G.V.U A.Y U . o | [.'.} % d & A !.`.( ( I.L.^ u.w.8.$.6   X . ] o.] ] X.].| e >.+X*Xd x.$Xz.e.+Xt.r.  % X.'.8.7.",
"%.0.R 8XH.N.I 5X7XG.G.A.A.+   L E 7.8.| f o   5 h.h.% l.T.W A | '.8.[         * 4.r 4.d f 5.d +X=Xf.-.2X4X=X%X+Xz.O   r.:.8.'.5.",
"p & B.H.7XF.Y D.D.N.K.@.Z.    K t X.[ X.X.* o o A j.} z #     f f 7.%           ] d r 8.e o e C 1X+Xf.*X@Xb.OX:.n.  . H } X.X.X.",
"      V.G.3 S.D.N.x 9.].X.    & B z e d o e o.4.o.h j o.      o o 5.]           % r o ] 3.o O H n.C %XM.f.*.[.'.|       * 3.f o.",
"    o 2 A.g c K 1 d | 4.e       %.c.c.=.& . o f o.4.3.8.d o     . f ]           . o . o f d . H n.f *.C , f O.3.w         } d | ",
"o r o.o.n f X.      o o.}         > ,..X|.B . o r X.8.[.4.[ r o . @ M A       . . ; . . . % % | l | |       o 3.f         * r o ",
"> o w ] o.3.7.d %   . d f       i a p a =.k f 8.].8.].o.X.3.f o X ) ).).h.8   o * k d d o . % | o.5.5.r %   . f d         . o   ",
"c.i % f 3.8.8.3.] * . K Y L B p. XoXXX0.& [ ].8.| o.4.| 4.} 7.% . 7 1.$.M #   * j ] 3.e =.& * f 3.8.8.o.f % . F y.z.      .   . ",
"p j 8.'.4.8.o.X.3.w . U J.T V >.>.&.G y o.9.] % d ].[ o.[.r 4.[ . % X.8.d .   % o.X.j d j * r 3.7.7.o.X.3.% . f.-X$Xe.    w e X.",
"] 8.o.r 4.o.o.3.| o.o o X.3.% . . a a d d a N o 7.].d 7.].w w X.o . [ 4.f o o f 4.7.3.3.8.'.o.e d ] 4.o.o.| . = o.X.&   % | X.f ",
"[ z & f ].] 9.7.% o.* . | 5.r . B XX0.i . a.<.r ].4.% 4.].w o % o % % } | . o d X.o.X.o.] f | f % * 8.3.* o.% o o.4.w   e 3.3.o.",
"& a.a 4.8.w 7.7.o % % % * | d ; |.XX=.r r v.B X.].r . o.'.% o w d d % = r . . w o.} 3.X.'.d o o.X.* '.3.. * % o * X.  o d X.3.o.",
"i a.h '.] . 3.4.o * r f % t % B p.k r o.e >.= 5.X.. . r 4.o r [ 4.o.s h.q k   w X.* 7.| o.[.d o.d o 7.o.o * d d % u % . * X.| o.",
"> G d 3.o . d | % | o.4.n N.4 i o f = 5.r 8 p o.o . . o d , #.X.4.9.6.#.V p.k o r . } 8.r 3.4.* o . ] f % [ 3.3.*.z.G i % [ * 8.",
". L f * . . o - C.n 3.5.o.{ *.0.> % . s , ! N y 8 # . o o I.U.#.$.o.| | l  Xp.; .   o 5.[ o X.r . . o a x.O.o.4.o...<.<.& % . ] ",
"V.P - U Y . w t D.R Z.O.| #.0.oX%.. X I.(.I.8 A R.^   e X.V h.I.l.X.} ,.a.oXc.k     X e 4.% & & . . w l $Xp.v.o.| *.p..XG .   o ",
"6X5XA.F.G.  % o.O.N.S.@.d p. Xc.B     # Y.(.^.) >Xk.  . f 8.V ! k.+.= 0.c.|.>.=     . + r e r.t.v   w 3.:.b.n.+.u v. Xc.N     . ",
"S.H.6X5XS.e | o.8.{ R c ; B &.%.& X A h.I.R.^.(./.W d o.4.7.4. .~ s = p B B F   o r i t.r.i =X3Xg.w [ 3.9. .x.l y *.=.%.& o * . ",
"8X7X6XR O.'.8.3.5.3.7.r         5 R.>X<X<X,X,XE.M 3.{.[.3.5.o.7.7.e           % 3.| z.;X1X;X1Xy.o.'.8.3.4.4.4.w         o X.f   ",
"F.G.T o.5.| d 9.3.| | 3.*     @ Y.(.(.^.I.Q.L.h 9.8.X.r o.8.X.j 5.3.o         o.4.] +.| l t.b [ 7.[ d 8.o.} X.o.o       | 5.| o.",
"5XN.I x o . X.'.] 4.0 e %     % N N s 5 E.h.@ h d * . f {.o.o.} : f * .     r 8.8.3.5.5.[ = v b o o 3.8.[ 3.0 e %     e 4.8.o.X.",
"8X5XG.U   r [.X.w 7.p X .     } X.X.r Y.<X`.Q.R.8   % 7.'.e 3.o.0 . o     * X.3.3.3.d F +X*X&XH   d [.] d 9., . .     [ o.o.7.| ",
"N.2 1     ] 7.- * 4.; .       e f [ ^ ,X_.Y.^ Q     f ].| . o.o.$         r f 3.] 8.].+.;.v >     X.5.o r 4.&       % w | o.3.}.",
"          ] r     X.; X     . o * = ( ( V % .       X.4.o   } o.O         & o 3.3.] ].].f .     o X.e   * X.<       . . f 7.r 5.",
"        o o       e Z @           r * . d X.*     o ] *     r | $         .   ] 8.* [ [.'.w     o o       e 0       .   * 4.e o ",
"                  . _ O           r r     w %     . o       o e Z             % 7.e . e 3.| o             O _             d e   ",
"                  X _               o                         : `               d r     o w o             < _             o .   ",
"                  O _                                         0 _               o o         .             < S               .   ",
"                  $ _                                         0 S                 .                       : _                   ",
"                  : `                                         0 S                                         0 _                   "
};
