/* XPM */
static char *_8bfb8ad8a064337e35e6fbeda4325cbsx99B79mxfWYwA0d[] = {
/* columns rows colors chars-per-pixel */
"64 64 245 2 ",
"   c #270C04",
".  c #330F06",
"X  c #2E1206",
"o  c #3A1807",
"O  c #3F2008",
"+  c #471A08",
"@  c #431D08",
"#  c #581B0B",
"$  c #641D0C",
"%  c #691A11",
"&  c #46220A",
"*  c #4C230A",
"=  c #54240B",
"-  c #5B240C",
";  c #592B0D",
":  c #572E10",
">  c #66270E",
",  c #632B0E",
"<  c #6C2A0F",
"1  c #652C11",
"2  c #6B2D12",
"3  c #762A12",
"4  c #6D3213",
"5  c #673915",
"6  c #733414",
"7  c #743B15",
"8  c #7C3A16",
"9  c #783718",
"0  c #7C3C1B",
"q  c #6E421D",
"w  c #75451A",
"e  c #794518",
"r  c #7C451A",
"t  c #7C4921",
"y  c #872B14",
"u  c #912F19",
"i  c #893717",
"p  c #843B17",
"a  c #843D1A",
"s  c #973618",
"d  c #933C19",
"f  c #9A3C1A",
"g  c #A23E1B",
"h  c #84441C",
"j  c #8B441B",
"k  c #85491A",
"l  c #8D4C1D",
"z  c #94451B",
"x  c #9C441C",
"c  c #934A1E",
"v  c #9B4B1D",
"b  c #8C521F",
"n  c #95531E",
"m  c #A3441C",
"M  c #AB461E",
"N  c #A44B1E",
"B  c #AB4C1F",
"V  c #B14A1F",
"C  c #A8521F",
"Z  c #884B24",
"A  c #924C22",
"S  c #9B4D22",
"D  c #875326",
"F  c #8C5423",
"G  c #945324",
"H  c #9B5323",
"J  c #975A29",
"K  c #915835",
"L  c #A94D21",
"P  c #B24D21",
"I  c #B94E21",
"U  c #A45423",
"Y  c #AC5321",
"T  c #A35B24",
"R  c #AD5B24",
"E  c #A55A2A",
"W  c #AC5C2B",
"Q  c #B35422",
"!  c #BA5423",
"~  c #B35B24",
"^  c #BB5C25",
"/  c #B55E29",
"(  c #A25F30",
")  c #9A612A",
"_  c #9D6434",
"`  c #A46325",
"'  c #A96729",
"]  c #AD622C",
"[  c #B56326",
"{  c #BC6326",
"}  c #B66A27",
"|  c #B4642B",
" . c #BB642A",
".. c #B36B2B",
"X. c #BC6B2B",
"o. c #B4732C",
"O. c #BB732C",
"+. c #BD792E",
"@. c #A76A37",
"#. c #B46B33",
"$. c #B36B36",
"%. c #BB6E33",
"&. c #AD7234",
"*. c #AC733C",
"=. c #A8743C",
"-. c #B57534",
";. c #BC7334",
":. c #BB7B34",
">. c #B57738",
",. c #BC743B",
"<. c #B47B3A",
"1. c #BC7B3A",
"2. c #C45A25",
"3. c #C15D25",
"4. c #C36427",
"5. c #C36529",
"6. c #C76628",
"7. c #C46C2A",
"8. c #CB6C2B",
"9. c #D26D2B",
"0. c #C4732D",
"q. c #CB732D",
"w. c #C37B2E",
"e. c #CC7A2E",
"r. c #D2742D",
"t. c #D37B2E",
"y. c #D87C2F",
"u. c #C46F31",
"i. c #C37433",
"p. c #CC7532",
"a. c #C47B33",
"s. c #CC7C32",
"d. c #C27C3B",
"f. c #C77C39",
"g. c #D17630",
"h. c #D47D32",
"j. c #DB7E31",
"k. c #9C6C4A",
"l. c #AA7746",
"z. c #A6714B",
"x. c #B77E45",
"c. c #C77F41",
"v. c #BE823A",
"b. c #C8842F",
"n. c #D3822F",
"m. c #CD8234",
"M. c #C3833C",
"N. c #CC833A",
"B. c #C7883A",
"V. c #D48433",
"C. c #DA8432",
"Z. c #D58935",
"A. c #DC8B34",
"S. c #D5853A",
"D. c #D48B3B",
"F. c #DB8D3A",
"G. c #DC933A",
"H. c #DA9438",
"J. c #DD9B3E",
"K. c #E18B36",
"L. c #E19437",
"P. c #E29B3B",
"I. c #E5A33D",
"U. c #BD8444",
"Y. c #B7884E",
"T. c #B98E51",
"R. c #BA996F",
"E. c #C38442",
"W. c #C68845",
"Q. c #CB8D44",
"!. c #C48C4A",
"~. c #CA8E49",
"^. c #D48B43",
"/. c #CE9246",
"(. c #C9964B",
"). c #CD944B",
"_. c #D19445",
"`. c #DB9443",
"'. c #DC9B46",
"]. c #D1964A",
"[. c #D3994C",
"{. c #C48F52",
"}. c #CC9453",
"|. c #CE9A54",
" X c #C89658",
".X c #D39C52",
"XX c #D69B58",
"oX c #E29C44",
"OX c #DBA948",
"+X c #D8A75A",
"@X c #D5B05B",
"#X c #E3A546",
"$X c #E4B847",
"%X c #E6AC53",
"&X c #E5B659",
"*X c #CB9967",
"=X c #D29D67",
"-X c #C9A869",
";X c #D7A967",
":X c #CAB169",
">X c #D9B568",
",X c #C7A776",
"<X c #D4AC78",
"1X c #CAB477",
"2X c #D9B878",
"3X c #E4B866",
"4X c #E4BA75",
"5X c #E9C85E",
"6X c #DCC575",
"7X c #E8C569",
"8X c #E6C776",
"9X c #F1CE70",
"0X c #C4AE81",
"qX c #C9B585",
"wX c #D8B786",
"eX c #DBBC95",
"rX c #E2B985",
"tX c #D2BAA8",
"yX c #D8C58A",
"uX c #D5CA96",
"iX c #DAC898",
"pX c #E4C886",
"aX c #ECD48B",
"sX c #E5C997",
"dX c #E5D49B",
"fX c #F5E09B",
"gX c #DBC7A6",
"hX c #DCD3A9",
"jX c #DCD3B5",
"kX c #E7D1A6",
"lX c #E5D5A9",
"zX c #E2CDB3",
"xX c #E6D9B6",
"cX c #EEE3B9",
"vX c #EADBC7",
"bX c #EBDFD6",
"nX c #ECE3C6",
"mX c #F1E8C7",
"MX c #EEE4D4",
"NX c #F2E9D8",
"BX c #F1E9E4",
"VX c #F2EBE7",
"CX c #F2EDED",
"ZX c #F3EFF0",
"AX c #F4F0F0",
/* pixels */
"~.~.Q.Q./.Q././.(./.[.(.]._.]././.).).)./._./.)./.]././././.]._.D.].[.[.[.(.(.XXeXMXCXAXAXCXCXZXCXBXbXCXZXZXZXZXCXZXAXAXCXCXZXCX",
"/.).(.Q./././././.[.[..X.X[._.[./.(.).~./.].[.]./././._./././.]./.[.[.[.[.].(.(.XX<XzXBXCXCXCXAXBXrX;XbXZXCXZXZXCXCXCXAXCXCXZXZX",
"(.).(.)./././._.).).].[.[.[._././.(.~.Q./._.[.[.]._.].].).[.[.[.].[.[._./.[.).).).(.;XeXvXBXCXCXgX`.L.rXVXCXCXCXZXCXCXAXCXZXAXAX",
").).(.}././.].).].[./.[.[.[._./.D././.]././._.[.[.[.OX_.[.[.].[.(.]./.B.Q.)..X).[.).)..X;XiXvXzXc.s.H.oXeXVXCXCXCXZXCXCXCXCXAXAX",
"[.(.(.|.(.)./.).].].].[..X~.B.f.d.W.Q./.[._._._.[.[..XOX.X]._.D.D././.D._..X.X).[.[.}.].D.}.^.c. .X.q.n.a.sXCXCXCXZXAXCXCXCXZXAX",
"|.}.!.[.[.[._._.].[..X).M.,.i.%.a.f.f.d._.]._._.].[.'..X.X[._._._.J._._._.[.[.[.(.].)..XB.7.5.5.Q ~ ^ 7.r.c.vXAXCXCXCXCXZXCXAXAX",
"|.|.(.(.(.[.[.[.[.}.W.d.i.a.a.f.a.N.i.| %.Q.].].].].'.]..X'.[._.[.D._._._._.[.]._._._.D.e.{ 4.! V Y Q 7.s.^ *XBXCXCXAXCXCXCXCXAX",
"|.|.[.[.[.[.[.[.].f.X.0.i.i.7.0.7.s.i./ W %.E..X+X[.]..X].].[.[.|.[.[._.[.[._.[.[.[.N.s.e.5.P L N C { p.s.q.i.gXZXCXAXZXCXCXZXAX",
"(.}.|.[..X[.].B.d.X.7.7.i.7.p.p.7.7.7.| E ] $.E.].+XXX.X]._.]._.[.OX(.[.[.[.[.[.[./.m.e.8.^ B L B m V q.q.V.B.XXbXCXCXZXCXBXCXAX",
"[.[.}.[..X].M.d.%. .0.7.8.3.p.g.q.q.N.p./ W $.$.1.}.XXXX.X[._.].(._._.).].).)././.Q. .7.^ m P ~ [ C C { 7.F.S.s.=XzXBXCXZXCXCXAX",
"(.}..X].[.Q.%.|  .{ 8.^ P P ! 3.3.8.Z.h.i.[ | #.#.,.W..X.X.X].].].]./.D._.^.].Q.E.m.~ Q f L P ~ Q N m ~ s.V.h.h.h.{.0XzXbXBXCXCX",
").).].].].B.0.~ { g N u./  .7.! g ^  .4.6.^ / | #.$.d.E..X+XXX.X_._././.^.B.Q.W.Q.;.B x x Y ! V M N x Q e.V.`.V.h.c.~.{.0XzXbXCX",
"(.)././.~.d.7.~ L d i / ^ ! ^ P d N d f X.W.X. .u.X.i.,.W..XXX.X[._._._.D.Q.~.B.B.5.B m P 8.V.P g { ..Y ^ 8.C.q.5.,.{.!.!. X,XtX",
").)./.~.W. .~ s 3 u % 3 g g s s C v v f ~ H.5.L  .7.q.d.c.(.].].[.[._._.Q.Q.Q.B.N.[ C Q ^ V.H. .M q.1.U Y t.'.r.I ^ !.{.~.~.W.!.",
").(.(.E.$.Y s y y y < z Q y % ^ R f U | Y 0.R  .0.0.p.N.0.M..X.X.X.X]././.B././.a.^ C Y { Z.H.q.s.m.%.x B e.%Xh.6.{ 1.W.!.{.{.{.",
")./.W.%.E L u 3 y y Y V.S.f U g.7.^ q.a.~ x d [ Z.8.s.h.X.0.^.XX.X].).~.~.Q./.B.0.Q m B M q.n.t.H.V.Y i d I ^.^.p.7.i.d.x.W.!.{.",
"~.W.a.X.^ M y S | { r.G.F.r.r.8.~ { V.S.i.W A s 8.g.q.e.i.0.~.=X|.XX}.].).].).Q.Q.Y m Q f L 8.q.D.m.i i z m 4.t.q.4.i.c.x.U.U.U.",
"/.Q.-.{ 5. . .X.0.V.t.C.j.K.9.! N 0.p.9.w.a.U y {  .Q 5.4.i.<XwX=X}. X~.~.~.~.B.).{ N i./ Q 0.0.V.} p U N { n.V.t.7./ ,.E.U.U.U.",
").M.] { 6.f.3Xs.8.j.8.2.j.`.9.8.7.6.6.8.e.5.Q R G.s.^ Q M W.rX'.{.}.!.{.{.W.W.X.m.0.6.s.~ ^ h.5.^ z v } ~ n.Z.r.^ 4.^ $.!.U.U.U.",
"~.&.U  .7.g.'.S.g.j.j.8.S.C.9.y.t.8.8.g.V.7.[ s.oXV.f.E.i.;X3XP..X*X~.~.!.c.-.[ m.F.f.0.Y 4.C.^ V m Y } { t.q.V g V | %.U.U.E.E.",
"E.] E / q.5.5.g.g.g.K.j.2.9.g.D.h.p.Z.A.H.w.O.0.G.F.V.i.~.yX7X&X4XrX}.W.E...' 0.G.%XXX{.$. .j.4.! 7.4.} C ~ f s g P / X.c.U.E.E.",
"v.E ~ ^ 3.L ^.j.g.j.K.j.r.8.S.'.S.g.G.K.G.n.7.b.A.A.q. .=XlX6X6X4X8X+X~.W.] z [ V.`.oX=X*Xx.t.8.3.6.X.[ N x y g P P X.| ,.W.~.~.",
"M.T ~ 5.s.q.oXh.j.oXK.j.j.r.p.V.p.p.V.C.V.8.~ X.j.F.h.u.eXxXhXdXpXrX;X_.W.H S U 3.C.K.`.^.,.7.6.P ^ ~ R x N N Q g L 5.^ ;.(.Q.Q.",
"1.H R f.'.t.9.p.^.K.K.K.K.r.P ! q.S.r.y.r. .~ | p.oX.XXXhXlXhXhXlXsXpX%XM.c v Y P Z.oX'.N.^ C M 5.p.{ Y z 7.S.i.~  .7.{ %.Q.!.(.",
"-.S Y V.V.6.6.8.g.y.K.L.j.r.Q ~ Z.'.h.r.r.u.c.,.p.`.+X2XhXhXcXxXxXfXlXdX;Xd.Y [ P B.4XrX<Xi.B Q _.S.e.e.[ q.A.#Xs.q.7.4.X.W.Q.Q.",
"@.c [ V.7.8.S.r.r.K.oXoXj.j.~ | A.G.`.Z.oX}.{.| i.V.H.3XdXhXcXcXmXnXmXxXpX}.#. .~ /.>X;XXX;.C { `.h.y.H.Z.s.8.K.A.q.S.i.4.d.~.!.",
"J A [ q.4.6.h.3.A.L.I.P.C.A.7.X.n.'.+X`.;X;XB.'  .8.q.OXaXhXxXcXnXmXmXfX7XT.@.,.%.d.N.f.W i i C V.j.A.P.n.q.! t.A.0.D.p.^ %.B.W.",
"J j ^ 6.8.3.5.6.L.I.I.L.r.G.8.Y 7.A.'.G.[.f.X...R z H $X6XhXxXcXxXmXmXfX9X&X>.E.W.E P 8.m < 6 z 5.q.A.H.q.^ 4.n.n.q.A.q.{ X.d.E.",
"J S 7.8.6.g.g.A.P.P.oXK.g.g.8.P 4.n.n.b.b.a.0.;.R 3 k.&X5XdXhXxXmXNXmXcXfX5X+XS.A.7.%.q.s $ < h [ 0.t.t.4.M 6.A.y.r.j.4.4.i.d.B.",
"( c  .6.2.9.j.F.K.K.K.K.g.h.A.L v w.b.O.C T } } U a R.6X6XhXhXxXmXNXmXnXcX5X7X3XoXF.W.^ i $ 3 j 0.e.e.H.^.V 6.t.9.r.t.5.7.7.1.M.",
"G c Q V I 9.j.C.j.j.`.oXh.6.A.L < [ } R c z ` [ v K qXuXuXhXhXnXnXnXcXfXaXaX7XsX4X+X=Xf.b.{ ^ Q 0.w.e.H.]. .n.y.r.XX`.V.7.4.d.E.",
"j A ~ 4.g.`.F.j.K.j.oXoXF.I 8.z < p ` ` n c ` C C Y.uX6XhXhXjXjXhXpX9XpX3X8X8XxXkXrX2XG.#XH.`.M.O.7.{ w.m.t.H.G.A.L.G.q.6.3.%.E.",
"A A R s.Z.A.j.h.G.C.y.A.C.9.9.7.b n ) } ' ) l.Y.v.R.1X6XhXyXeXuX6X6XwX<XOX+XsXxXNXlX7X#X&X4XyX-Xa.{ ~ ~ [ Z.L.H.C.C.t.6.2.7.O.B.",
"G z R V.8.I 8.h.A.q.r.L.L.j.j.J.o.o.v.b.(.,X,XqX1X1X1XuXyX:X,X-XqXwX-XX.] +XiXxXBXCXxXsXpXiXwX[.s.X.X.i.7.V.%XoXt.9.t.8.6.t.,.E.",
"J z | D.q.! 8.r.8.! 3.A.I.L.A.#Xb..X@XOX>XuXhXuXqX:X1XuX1X:XT.*X,X*X%.N U -XsXxXMXNXvXlXiXiX>XA.V.p.e.Z.C.y.oXF.C.y.Z.t.q.q.d.c.",
"J A } m.g.4.8.D.u.P y C C.K.C.`.-X6X&X7X6XjXhXyX1X:X1X1X1X1X,X<X<Xx.m m W ;XiXzXzXxXxXkXpXsX;XC.q.r.t.j.y.9.r.t.r.A.n.r.u.u.,.x.",
"G l ~ 0.t.^ 8.#XS.3.s s 4.C.y.p.;X8X7X8X9X8X6X@X:X:X:X1XqX,X,X;X;X] E L u.>XgXzXzXzXsX8XpX6X'.C.r.r.h.9.y.r.8.8.r.n.n.q.^ #.u.x.",
"J l R 4.8.! 8.oXZ.p.P ! 6.A.C.e.H.>X7X8X5X$X$X$XOX@X:X1XqX,X_.G.S.u.$.E 7.XXrXgXzXgXhXpX8X&XA.n.t.q.G.F.A.C.8.8.t.t.y.q.X.X.i.$.",
"` G | { q.^ 3.8.C.H.! Q t.A.A.L.A.&X8X9X9X6X5X$XOX@X:X1X0X1XH.Z.i.X.| ! 5.[.4X<XeXgXjXsX%X%XA.C.Z.n.H.P.H.A.q.s.n.9.q.0.u.%.,.x.",
"J H R 4.7.8.8.r.F.#X^ i.J.P.L.L.A.&X7XpXdXuX@X$X:X:X1XR.1X1XB.[ Y ~ ! P Y XX%XoX4XgXsX3XI.I.L.C.Z.7.n.C.V.r.V.h.Z.s.q. . . ./ $.",
"J c U 7.6.6.V.Z.A.V.6.y.K.L.y.K.P.4XaX8XpXpX7X>X:X:X:X:X1X-XB.x s P Q M R ;X4XI.%XpX&X3X#XI.K.C.r.Q 4.8.8.6.e.q.q.q.0.[ R W ] $.",
") b H 0.q.3.g.V.q. .q.F.P.%XA.P.I.4XkX8X$X7XpXyX@X@X:XR.-XY.o.z d Y i 3 #.4XdX9X5X$X&X3XG.H.A.C.r.^ V I 4.Q 7.q.7.4.4.| / | W @.",
"J F G 0.h.q.6.h.q.Q._.'.#X%XF.I.P.#X4X@X$X>X2X+XOX(.T.T.T.n j $ 2 U < # B.%X%X3X7X4X7X%Xn.C.A.C.n.t.4.3.! { } e.4.X.X.~ W ] ( $.",
") D F O.e.q.9.V.S.XXXXF.Z.K.6.r.y.A.H.H.J.J._.H.H.B.v.v.&.e < $ # > $ S n.L.L.L.L.oXXXF.Z.n.C.n.r.n.e.7.4.e.0.4.~ Y | %./ W @.*.",
"J D l ] X.^ 8.s.s.s.S.8.2.6.V V 4.{ t.t.H.H.n.n.n.b.o.v.] 3 # # + > U V.r.r.r.A.K.K.Z.e.w._.D.e.4.7.7.} e.0.} ~ U L | ;.#.$.z.$.",
"D D D U m g M B 7.^ { 8.2.^ 8.4.^ ^ t.C.J.H.Z.b.0.O.O.O.T > > # + m h.^.j.9.9.n.C.C.e.7.^ a.e.O.~ { Q ~ 0.X.~ R ~ W W W E $.*.<.",
"F D t c f y i N q.4.Q e.Z.n.y.r.4.{ n.OXI.P.A.Z.{ X.{ X.W 3 h # 8 7.s.~.f.6.2.q.n.n.7.{ ~ { { C C m x x Y [ R S U E W E S @.l.;.",
"_ D r j x s i C 0.6.Q n.A.A.n.t.^ Q Z.#XJ.A.Z.H.} R S | a - l h ~ [ 7.7.7.4.^ X.0.} ~ [ B C C N z z z z S | W S z H E G S $.*.>.",
") D t t x N x N Q 4.g i ^ S.j.C.{ Q q.J.C.q.V.w.d i 3 2 # # # Z ~ B ~ C ~ ~ } { ~ C m N v N C x i j j z z ( E z Z S S S E @.*.*.",
"_ D t r n R C x C { P y u 5.S.S.Q ~ 7.t.! ^ { v l c 3 + + # $ 8 z f x x f x Y R C x d z z c c z j j j p i A A A K A A Z K $.*.*.",
"=.) b w n } R R { { 7.W f ! S.g.N N ~ 4.Q { ~ z H H a $ + - , = < y y y y i x S z z z i j p z c p p j p Z a y Z A A U H ( *.*.l.",
"=.) D w e } O.O.E.q.D.O./ h.L.Q U C y x W / Y U R T E 6 o   X   o 8 p 3 3 i c j j p p 6 8 p h 8 k e z z A a 9 a j A H $.*.@.*.*.",
"_ ) D t w ) ` v W.f..Xs.5.D.`.[ [ U y y i i C ;.%.R T ,           : 8 4 3 9 9 8 8 k 6 6 9 8 6 3 p 8 A A Z 9 i Z A J J z.@.@.@._ ",
"v.&.) t w w b e ( a.Z.q.P {  .d.} R m s $ $ j ] ..H 2 * * @ o X X X * < 2 6 a 0 , 6 < 6 9 8 6 6 6 8 H G Z Z a Z S A Z _ @.@.@.l.",
"v._ ) t t w q e i S N Q s d ' M.X.| } j < 4 6 8 8 4 - 7 e w ; * & o & = , 2 p j 4 7 4 4 > < 6 4 < a H J t Z Z S _ Z j ' @.&.*.l.",
"=.v.) t t t q q A y 8 d p A | 7.j t ' 2 2 7 n < # - 7 l n n k 5 : : : & , , 4 6 4 4 4 6 8 h 8 2 7 8 l D K q Z K K K n _ @.*.<.l.",
"&.&.&.) D w q q 5 1 6 2 = 2 8 8 = * , - , < k 6 e k n ` ` ` k e q 5 5 & : : ; ; 9 9 1 8 8 k 9 6 q 9 2 9 Z 0 Z K K Z D ) _ =.l.l.",
"&.o.&.&.) D q q : : = + + + + # 4 4 8 k n n l n n ` ' ` ) ` b e q 5 q * O & ; - 7 l 9 2 > 8 9 6 2 9 9 9 Z A j Z Z q k _ =.=.l.Y.",
"v.&.-.&.&.' ) t 5 , - = ; , 1 7 k n C ` ' ..} ` } } } ' ' ` n e e w q : & o & = - 4 1 - , 2 9 4 2 0 6 9 a h D D 0 7 D _ l.=.U.l.",
"o.v.&.v.<.v.<.' J F 7 k k k n n ` ' } o.+.w.+.O.} v.o.o.o.` b e w e q : * & o @ = - 1 , - 2 a 4 3 Z 0 t 0 h t 7 2 0 F _ l.l.l.k.",
"o.o.o.v.<.<.<.:.>.&.) ` ` ' o.o...+.O.O.:.M.b.+.+.b.O.o.o.` n e e e e 7 ; * & o @ - 1 - , 4 6 6 9 q 6 h r 5 1 ; 4 e F _ =.Y.z.k.",
"v.v.o.o.<.v.v.<.v.:.O.-.:.o.O.:.:.:.v.v.v.M.:.a.w.O.+.+.o.o.` b e e e e 5 = & O o o @ @ & = 1 5 1 5 q 9 5 = ; 1 5 k J _ l.l.k.k.",
"v.v.v.v.+.:.v.v.v.b.v.v.v.v.:.:.v.:.:.m.B.M.v.:.+.+.v.o.+.' ` n e 7 e e e ; * & @ o X X X X @ o o & : + * ; ; , 7 F J _ Y.z.k.R.",
"o.:.v.v.v.:.v.v.B.v.M.M.1.M.:.a.a.M.M.m.B.B.v.b.b.b.+.v.} ` ` z k k e e e 5 ; * @ @ o o o . . o & + & + * ; , 4 k F J k.z.k.k.tX"
};
