/* XPM */
static char *_3b2219fc1454fd9b1f69312c9887b0dghUGenPmhQ6r06d1[] = {
/* columns rows colors chars-per-pixel */
"64 64 243 2 ",
"   c #010201",
".  c #0B0202",
"X  c #050309",
"o  c #0B0B0B",
"O  c #080907",
"+  c #120A06",
"@  c #0A1709",
"#  c #0A0A13",
"$  c #131313",
"%  c #1D1A15",
"&  c #1B1B1B",
"*  c #151817",
"=  c #121213",
"-  c #221C1A",
";  c #2F0905",
":  c #1A261A",
">  c #11240E",
",  c #061529",
"<  c #1C1C22",
"1  c #1D0F20",
"2  c #241E23",
"3  c #16292C",
"4  c #242424",
"5  c #2C2C2B",
"6  c #282826",
"7  c #2A342A",
"8  c #293828",
"9  c #35362B",
"0  c #352D35",
"q  c #333333",
"w  c #3B3B3B",
"e  c #383738",
"r  c #2C3233",
"t  c #232B1E",
"y  c #433A3C",
"u  c #552925",
"i  c #461B16",
"p  c #3A4439",
"a  c #2F4331",
"s  c #44463C",
"d  c #43412A",
"f  c #755321",
"g  c #06324D",
"h  c #3D3D41",
"j  c #253F64",
"k  c #423D42",
"l  c #0F445E",
"z  c #3E4242",
"x  c #3A484C",
"c  c #344956",
"v  c #184968",
"b  c #2C526D",
"n  c #434344",
"m  c #44444A",
"M  c #4C4C4C",
"N  c #484847",
"B  c #4C564B",
"V  c #514C52",
"C  c #584F54",
"Z  c #535353",
"A  c #5B5B5B",
"S  c #575756",
"D  c #4D5154",
"F  c #645958",
"G  c #576554",
"H  c #556B54",
"J  c #63655E",
"K  c #62765D",
"L  c #585963",
"P  c #655E67",
"I  c #556670",
"U  c #646464",
"Y  c #6B6C6B",
"T  c #676968",
"R  c #6D736C",
"E  c #6A7666",
"W  c #706E73",
"Q  c #6E7273",
"!  c #6D7779",
"~  c #727273",
"^  c #757D74",
"/  c #787E77",
"(  c #7C7D7C",
")  c #7A7478",
"_  c #70746F",
"`  c #A92E2F",
"'  c #9B2E33",
"]  c #C83532",
"[  c #8C5A13",
"{  c #C83440",
"}  c #877B78",
"|  c #B44858",
" . c #C84A54",
".. c #778178",
"X. c #7B847B",
"o. c #788576",
"O. c #6D8868",
"+. c #7EA07F",
"@. c #82887C",
"#. c #839B7B",
"$. c #85A17F",
"%. c #EDDB5C",
"&. c #DFD86F",
"*. c #EAD866",
"=. c #EBD672",
"-. c #F3DC76",
";. c #F2D76F",
":. c #EFE66F",
">. c #DDD550",
",. c #316E96",
"<. c #2673A5",
"1. c #3971A2",
"2. c #7D7D83",
"3. c #437A81",
"4. c #887D88",
"5. c #7E8585",
"6. c #7F9C80",
"7. c #7EA181",
"8. c #5C8B9B",
"9. c #4098C0",
"0. c #52A7D9",
"q. c #77B4D5",
"w. c #5ABAEA",
"e. c #59BCF5",
"r. c #44A5EA",
"t. c #62BCF8",
"y. c #6FBAEC",
"u. c #5BC7FC",
"i. c #51CCFD",
"p. c #63C2FD",
"a. c #63CBFF",
"s. c #66C2F7",
"d. c #71D1FC",
"f. c #838383",
"g. c #898986",
"h. c #869984",
"j. c #9D9C9C",
"k. c #969495",
"l. c #8E9093",
"z. c #8CA586",
"x. c #94AA8D",
"c. c #91B48C",
"v. c #96A895",
"b. c #9BB596",
"n. c #8EAF8D",
"m. c #A4B99E",
"M. c #A4A796",
"N. c #ADADAC",
"B. c #A6A4A4",
"V. c #A6BDA2",
"C. c #A9BBA2",
"Z. c #AFB6AF",
"A. c gray70",
"S. c #BABBBA",
"D. c #AEAFAD",
"F. c #9CA49F",
"G. c #C6BDB8",
"H. c #A6DB9E",
"J. c #A7D89E",
"K. c #A3C59C",
"L. c #A9E09E",
"P. c #A9C2A8",
"I. c #B3CBAC",
"U. c #ACDDA5",
"Y. c #AFDDA8",
"T. c #A8D9A2",
"R. c #B2DEAA",
"E. c #B4DCAA",
"W. c #B9C9B3",
"Q. c #B9DCB3",
"!. c #ACE2A4",
"~. c #AFE0A8",
"^. c #B4E1AD",
"/. c #B9E2AE",
"(. c #B2E2A6",
"). c #BCE3B3",
"_. c #BFE4B8",
"`. c #B7E3B1",
"'. c #BDF3B5",
"]. c #9FCB98",
"[. c #F0DB88",
"{. c #EAE485",
"}. c #C1DEB8",
"|. c #C1C1BF",
" X c #C0E6B6",
".X c #C3E6BB",
"XX c #CAE5BD",
"oX c #C5E9BD",
"OX c #C8E8BF",
"+X c #CAEEBC",
"@X c #F9ECB5",
"#X c #EDEAB5",
"$X c #C0B9C1",
"%X c #89D7FF",
"&X c #87E4FF",
"*X c #BFC3C4",
"=X c #CDCDCC",
"-X c #C7C7C5",
";X c #C8D3C6",
":X c #CECDD3",
">X c #CCD2D4",
",X c #D4D4D4",
"<X c #DDDDDD",
"1X c #D7D8D7",
"2X c #D2CFD0",
"3X c #E2DDDA",
"4X c #E5DFCF",
"5X c #C6E5C1",
"6X c #CBE6C3",
"7X c #C6EBC2",
"8X c #CBEAC3",
"9X c #CDEDCB",
"0X c #C8E5C9",
"qX c #D1ECC6",
"wX c #D2ECCA",
"eX c #D5E8C8",
"rX c #CBF2C5",
"tX c #D4F2CC",
"yX c #D6F4C9",
"uX c #D5EDD1",
"iX c #DCF5D4",
"pX c #DBFAD5",
"aX c #DFF9D8",
"sX c #D8F6D5",
"dX c #E6E4DE",
"fX c #E2FDDA",
"gX c #E1F8D6",
"hX c #FDF7D6",
"jX c #FAEFCA",
"kX c #DCE3E7",
"lX c #DDF9E0",
"zX c #E4E3E3",
"xX c #E9E9E8",
"cX c #F7EDEC",
"vX c #E8FCE6",
"bX c #F7F8EC",
"nX c #ECF4F8",
"mX c #F4F4F4",
"MX c #FDFEF4",
"NX c #FBF6FD",
"BX c #FDFDFD",
"VX c #F6F9F8",
"CX c #EFEBF4",
/* pixels */
"U.U.U.U.U.U.U.U.U.U.U.U.T.!.U.U.U.U.U.U.T.U.U.U.U.U.U.U.U.Y.U.U.U.Y.U.U.U.U.U.U.U.U.U.U.U.U.U.U.U.U.U.U.U.U.U.U.U.U.U.U.U.U.U.U.",
"U.U.U.U.U.U.U.U.U.U.U.U.U.U.T.!.U.U.U.U.U.U.U.U.U.Y.Y.Y.U.Y.E.Y.Y.E.R.Y.Y.Y.Y.U.U.U.Y.U.U.T.U.U.U.U.U.U.U.U.U.U.U.U.U.U.U.U.U.U.",
"U.U.U.U.U.U.U.U.U.U.U.U.U.!.!.U.U.U.U.U.U.U.U.R.^.E.E.^.^././.Q.E.Q./.R.R.^.E.R.U.U.U.U.U.U.U.U.U.U.U.U.U.U.U.U.U.U.U.U.U.U.U.U.",
"U.U.U.U.U.U.U.U.U.U.U.!.U.U.U.U.Y.U.U.U.R.R.E.^.^././././.).).).).).).`.)./.).E.^.R.^.~.Y.Y.U.U.U.U.U.!.!.U.U.U.U.U.U.U.U.U.U.U.",
"U.U.U.U.U.U.U.U.U.U.U.U.U.U.U.U.U.Y.Y.R.R./././.).)._._.)._. X)._. X X X).).).).)./.^.^.R.U.Y.U.U.U.U.U.U.U.U.U.U.U.U.U.U.U.U.U.",
"U.U.U.U.U.U.U.!.U.U.U.U.U.U.U.Y.Y.~.^./.`.).)._.). X X XoX X.X.XoXoX X X X X_._.)._.)./././.R.U.U.U.U.U.U.U.U.U.U.U.U.U.U.U.U.U.",
"U.U.U.U.U.U.U.U.!.U.U.U.U.Y.^.^.^././.).)._. XoX.XoXoXoXoXOXOXOX5XOXOXOXoXoXoX XoX X_._.)././.R.^.!.U.U.U.U.U.U.U.U.U.U.U.!.U.U.",
"U.U.U.U.U.U.U.U.U.U.T.U.Y.Y.^.^./.).)._. XoXoXoXOXOXOXOX8XOX8X8X8X5XOX8X5XOXOX7XoXoX X X_.).)./.^.^.^.U.U.T.U.U.U.U.U.U.U.U.U.U.",
"U.U.U.U.U.U.U.U.U.U.U.Y.R.E.).)._._._.oXoXoXOXOXOXoX+X8X6XtX7X5XOXOXOXqXrX8X5XOX+XoX8X_.oX X_.).).).E.R.R.U.U.U.U.U.U.U.U.U.U.U.",
"U.U.U.U.U.U.U.U.U.U.Y.R.E.`.).). X XoXoX7X7X8X8X8XqX5XqX9X5X6XsXyXyXgXeX0X6X9X9XOX8X5XoX8X XoX).).).Q.R.R.Y.U.U.U.U.U.U.U.U.U.U.",
"U.U.U.U.U.U.U.U.U.Y.R.R.`.).). X XoXoX5X5X8X8X8X+X8X9X6XOXqX7XK.V.V.V.I.}.yXXXXXqXrXOXyX8X.X8X8X_.).).`./.Y.Y.U.U.U.U.U.U.U.U.U.",
"U.U.U.U.U.U.U.U.~.Y.`.`.).)..XoXoX8XOX8X8X8X8X8XeX9X9XqXXXfXv.O X       0X6X8X0XOXOXXX.XOX8X X5XoX X).)./.^.R.Y.U.U.U.U.U.U.U.U.",
"U.U.U.U.U.U.U.U.R.R./.).)..XoX5X8X8XOX8X8X8X8X8XeX8X8XyXvXb.u  .] ` { ` y 6XvXgXfXtXfXgXyXXXyX XoXoX X X)./.R.R.U.U.U.U.!.Y.U.U.",
"U.U.!.U.U.U.U.R.R./.). X.XoXOX5X5X8X8X8XwXqXqXqXwXtXyXP.n.B + | ` ` ` ' . O.z.+.h.h.h.#.b.yXOXrX5X5X7X X_.).E.`.Y.U.U.U.U.U.!.T.",
"!.U.U.U.U.U.~.^.).)._. XoXOX5X8X8X9X8X8XqXwXwXwX8X.XvXE         . X   .     .           G aXoX8X8X5XOXoX.X_.).`.`.Y.U.U.U.Y.!.U.",
"U.U.!.U.U.Y.~.^.Q.). XoXOX5X8X8X6X8XqX8XwXwXyXwXOXbXJ T BXxXmXnXA.- ,XcXmXmXnXmXmXxX<XCXX.B gX5X8X8X5XoX.X_.).).^.~.Y.U.U.!.!.T.",
"U.U.U.U.U.Y.`.`._._.oXoX7X5X8X9XqXqXyX5XwXwXwXuXsXv.Q 5.5.g.4.N.,X- NXk.f.g.5.g.@.,XBXBX5.p fXXX8X8X8X8XOX X X).).R.R.U.U.U.U.U.",
"U.U.U.U.Y.Y.`.`._. XoXoX5X8X8XqXqXqX8XtXwXwXuX0X#Xp 6.l.X X X e >X6 3X        X X k.VXBXl.p oXrXyX8XOXOXoXoXrX/.)./.R.U.U.U.T.!.",
"U.!.U.Y.Y./.`.). XoXoXOX8X8X8X8XwX5XqXwXwXuXeXvXr B.} c %Xi.,.n ,X- kX3 q.%Xs.e., j.MXcXNX4.p sXOX5X8XqX8XoXOX X)./.^.Y.Y.U.!.U.",
"T.U.U.Y.R.E.). X XoX8XOX8X8X8XtX5XpXtX8XuXwXvXK X.( I q.a.u.1.h ,X% zX< q.%Xp.s.9.c W.BXBX} 8 fXqXqXqXOX8X5X XoX_.)./.!.~.U.!.T.",
"U.U.U.U.R.`.). XoXoX8X8X8X8X8XqXwXiX6XtXuXuXW.e B.I I &Xw.s.1.y ,X4 xX* q.d.w.t.i.g } VXVXj.s W.qX8XyX8XOX8XOXoX X).`.R.Y.U.U.U.",
"U.U.U.R./.). X XOXOX8X8X8XqXwXwXwX0XtXeXwXvX@ =XA I d.i.u.a.<.e >X< 3X$ y.d.y.t.u.g 4.MX1XBXj.: gXXXwXeX5X8X5XOXoX_.).R.~.U.U.U.",
"U.U.U.^./.)..XoX8X8X8XqX8XwXwXwXwXwXuXuXvXa D.Y . 8.&Xe.w.s.<.y >X6 dX$ w.s.t.e.u.0.b l.dXnXl.: fXtX6XqXqX8X8XOXoX X).`.~.!.U.U.",
"U.Y.R.R.`._..XoX5X5X8X8XqXqXwXwXuXwXeXuXz.Z j.N + b 0.s.s.a.<.w ,X& dX& 0.s.t.s.t.a.g F MXxX$XS z.wXtX6X8X8X8X5X7X.X).`.`.~.U.U.",
"U.U.E.E.). X XoX8XrXqX6XwXqXtX9X8XtXuX;X@ <X5 q L   b a.w.u.<.n 1X& zX1 0.p.w.s.e.u.l J cXkXVXD.> wX5XOX8X+XOXqXoXoX X).E.R.U.U.",
"U.U.(.Q.). XoXOX5XOX8XyXwXyX8XtXwXiXuX7 <Xw M V z O ,.a.i.d.,.6 W.< kX* r.u.u.i.p.i.u.b F mXnXk.$ bXvXtXaXqXXX5XoXoX).).).^.T.Y.",
"U.Y.E./.).oXOXOX8XrXOXqXrXqXsXtXgXeXG   T o $ * o   3 v v l b N.S.< 1XX j b v v j v b , C mXxX=X_ T G K H 6XaX8XoXoX XQ./.^.U.U.",
"U.Y.^.).).oXoXOX8XOXyXOX5X9X;XW.;Xv.O O   & 2 & t % % % % O U BXN.< >X0 O $ & $ * * & = ! VX1XmX-X        v.P._.qX.XoX.X/.^.^.T.",
"U.Y.^./.)..XOX5X8XtXXXwXaXvXM.      s q X S.xXzX3XkXxX<X<XxX3XxXA.& ,XCXuXdXkXzXzXkXxXzXkXzX3XnXS.  n y w O   V.wXoXQ. X).(.^.U.",
"U.E.^.Q. X.XOXOX8X.XiXx.8 p N Y U W 5.( $ -XBXVXBXBXBXVXBXNXBXBX|.2 CXNXbXBX#XcXNXBXcXmXmXNXVXVX*X# } 2.4.T p 8 K.wXoX).).^.U.U.",
"U.Y.E.).)..XOX5XOXtXW.G     5 g.g.( 4.2.# 1X-XzX,X2XmXmX3X:X:X$X2X: MXBXMXbX*.@XbXMXBXMXMXBXBXMX,Xo ( 5.) 4.S   #.yX5X).)./.U.U.",
"Y.E./.). XoXOX8XoXaXH o Z N n e e z w w X ,X~ U U A D.-XA T S N.:X& bXBXBX=.;.%.hXBXBXBXBXBXBXBX=X  p e k w N O z.tX X_.).^.Y.U.",
"!.!.E./.oX).qXOXlXO.O < n m z z n n w $ S.VX} w -Xl.j.-XU BXU B.,X& VX{.[.-.;.=.-.[.jXBXBXBXVXBX:XO s k m s $ . z.iX).).`.).U.R.",
"U.^.)./. XXX X+Xn.f ; * N k z s s n w o CXVXQ N.N.( j.S.A ,XY zX;X& mX@X*.;.*.:.%.{.hXBXBXMXBXBX>X  s m w 6 u . $.yX_._._.`.U.T.",
"T./.Y._./. XoXpX3 [ [ * x s N w n w w o 1XBXA.VXA 4.U Y l.A Y g.:X& MXBX[.;.*.[.:.jXBXBXNXNXbXVX-Xo w N y . { i +.pXoX).Q.R./.U.",
"U.R./.^.oXoX XyXc [ f # M y e M N m n o mXBXmXBXMXBXBXVXBXVXBXVX=X< cX:.>.;.%.;.*.&.@XMXBXBXBXBX<X. n w N + ] ; +.tX`.)._./.~.T.",
"T.Y.).^.`.oX.XpXp ; d 8 n n e & $ & $   Z mXBXVXBXBXBXBXBXBXBXBX-X- BXjXjX-.*.%.#XjXM.C T A U U M o p m q # ] ; 7.pX_. X^.E.Y.!.",
"^.J.R.).).).0XI.s O 5 s p z 5 X o O = o   N.VXBXBXBXVXBXBXBXBXBX=X: bXMXNX#X&.[.hXNXA             o y M p X ` ; +.tX_.)././.U.U.",
"U.^.(.)./.Q.iXa $ n s e N 6 + m n n n n V   =XBXVXBXBXBXBXBXBXBX-X2 NXbXBXNX{.jXBXA * L M s M D k O N k z @ .   x.sX X`.).R.U.~.",
"U.T.^.(.).5XG M @.4.@.Y 7 = y M M M M Z N w 5 1XBXBXBXBXBXBXVXBX=X& BXBXBXxX4XMX/ 4 n N M M N M z 5 + k m 7 0 # @ c.rX^.^.R.^.T.",
"U.U.(.~.^.OX: M g.~ f.A $ 5 M n q 5 0 6 N D $ ~ xXBXBXBXBXBXBXBX-X& mXVXmX<XxXD.5 4 Z e 6 q 6 9 M n $ 5 w n n 4 X B I.`.~.~.T.~.",
"T.U.U./.^.oX7 4 n w w & $ Z M q         w n Z   j.BXVXBXVXBXBXBXD.& ,XzXkXdXxX5 4 S M 4 X   X = N N m   w k n n n   K '.~.!.T.U.",
"!.Y.U.Y./. X8 6 n z w $ & Z 5 r <XzX<X2X- w Z X D.BXmXBXVXVXVXBX-X% mXVXmXmXBXw 6 Z $ U CX<XzXj.o M N O w M q q w O O.rXT.~.~.!.",
"!.U.!.Y.^.}.t 5 n q e & & Z 4 e zXf.g.xX: q M o D g.g.~ Y ~ Y } A o Y ~ ~ ~ ~ & 6 S = ( ,XT A.-X  Z e O q e w 5 k   K +XU.U.!.T.",
"U.Y.H.^.U. X8 4 h q e % $ A 6 e =X    ,X& q Z $                   X             q Z X g.j.  M S.  M n O 7 0 q q q $ O.`.~.T.U.!.",
"!.R.J.U.U._.7 - q 5 e * $ Z 4 e =X  X S.& w M o & s e q q e 5 e 6   0 7 e q q o 6 S o X.j.  n N.  M y O 6 e 7 w O O.7X^.U.U.T.U.",
"U.U.U.U.!./.: * h e e * : C 4 5 xXk.l.1X& q M $ < e r e e e e e 5 o e e e q w O 5 A o ~ ,Xf.A.D.  M h O q e e e   O. XU.T.!.~.T.",
"U.Y.H.U.U./.B t 5 4 5 $ * Z e 5 B.N.D.j.4 e Z $ % 5 5 4 4 4 4 6 4   4 5 5 4 5 X q V < Z A.N.S.) $ M k O 4 6 4 r : z.).!.U.T.Y.Y.",
"T.E.T.H.!.T.8Xa         % M M w         n M M @ X                             X q N M 4       o V M n           $. XT.!.!.T.Y.Y.",
"U.Y.R.U.T.U.^.c.c.c.b.P.G @ Z z e w y w k D O X.C.m.m.C.C.m.C.C.V.V.V.V.m.m.V.P.7 4 A n h w w w M w @ v.b.b.c.c.J.`.T.T.!.!.T.U.",
"U.T.E.E.~.U.H.+X'. X XtXV.9 5 V V M M m M 8 p W.pXsXiXpXpXsXsXpXgXiXiXiXiXiXaXfXg.5 e M N M N V n 6 G 6X8XrX7X_.!.T.U.^.E.U.T.L.",
"U.Y.Y.T.!.H.^.].T.J.!.Y.rX#.O N s N n n N   P.iX5XXXXXXXXXXXXX6X5X5X5X5X5XXX}.oXfXG * M s n N m 8 > wXQ.U.U.!.T.Y.E.U.T.Y.R.(.H.",
"U.U.U.H.!.R.Q.h.U ) T E R R m X   .   X   V _ E Q Q W W Q Q ~ ~ W ~ ~ ~ ~ W W ~ Y T 6 X     O   1 P T Y R _ Q Y G b.`.U.U.T.T.^.",
"U.J.!.L.U.`.z.T P P U P U U A q e e q y e P P T U U U U U U U U U U U U U U U U U Y V 0 e 0 e h w W T U A J T T T o.K.!.U.!.J.Y.",
"Y.T.U.U.H.T.o.O.( X...^ / ^ ..X.X.X.X.@.X.( @.~ / ......../ ....../ / / / / o.X._ o.X.f.@.@.X.X.f.R o./ X./ ^ ^ ^ K c.~.H.T.U.Y.",
"H.^.T.U.U.^.!.R.L.H.T.E.E.`././._._._. X_.5X.XqX6X6XqX6X6XqXqX6X8X6X8X9X8X8X6X8XOXOX5X.X X/.oXQ.^.).Y.Y.Y.T.~.U.Q.Y.U.^.U.U.(.H.",
"U.U.U.U.U.U.U.U.U.U.U.U.U.(.^.^.`.).)._. XoX.X.XoX7XoX8X8X8X8X8X5X8X5X8XOXoXoXoX.X.X.X.X X).)./.^.^.Y.U.U.U.U.U.U.U.U.U.U.U.U.U.",
"U.U.U.U.U.U.U.U.U.U.U.U.U.Y.Y.(./.E./.). X)..X.X.X.XoXoXoXoXOX5XOX7XoX7XOXoXoXoX.X.X X).)././.(.~.~.Y.U.U.U.U.U.U.U.U.U.U.U.U.U.",
"U.U.U.U.U.U.U.U.U.U.U.U.U.U.U.U.R.R.R././.).).)._._._. X XoX X.X X XoX X X X_..X).).).`.Q.E.Y.E.Y.Y.U.U.U.U.U.U.U.U.U.U.U.U.U.U.",
"U.U.U.!.U.U.U.U.U.U.U.U.U.U.U.U.U.Y.Y.^.^.E./.`.).).).)._._._.)._. X_._._.).).Q.`.`.E.`.(.Y.Y.Y.U.U.U.U.U.U.U.U.U.U.U.U.U.U.U.U.",
"U.U.U.U.U.U.U.U.U.U.U.!.U.U.U.U.U.U.U.~.U.^.^.^.`.`.`.`.`.`.).).`.).`.`.).`.^.`.^.~.~.Y.Y.~.U.U.U.U.U.U.U.U.U.U.U.U.U.U.U.U.U.U.",
"U.U.U.U.U.U.U.U.U.U.U.U.U.U.Y.U.U.U.U.U.U.U.U.Y.R.R.^.R./.E.R.`./.`.R.`.^.^.^.Y.Y.Y.Y.Y.U.U.U.U.U.U.!.U.U.U.U.U.U.U.U.U.U.U.U.U.",
"U.U.U.U.U.U.U.U.U.U.U.U.U.U.U.!.U.U.U.U.U.U.U.~.Y.U.Y.Y.Y.Y.Y.Y.Y.Y.Y.Y.Y.U.U.U.U.U.U.U.U.U.U.U.U.U.U.U.U.U.U.U.U.U.U.U.U.U.U.U.",
"U.U.U.U.U.U.U.U.U.U.T.U.U.!.U.U.U.U.U.U.U.U.U.U.U.U.U.U.U.Y.U.U.Y.U.U.U.U.U.U.U.!.U.U.U.U.U.U.!.T.!.U.U.U.U.U.U.U.U.U.U.U.U.U.U."
};
