/* XPM */
static char *result[] = {
/* columns rows colors chars-per-pixel */
"64 64 242 2 ",
"   c #5C4808",
".  c #624D09",
"X  c #6B540A",
"o  c #745A0E",
"O  c #745B0E",
"+  c #685515",
"@  c #755D12",
"#  c #7D6213",
"$  c #756318",
"%  c #7C6E18",
"&  c #6A5B25",
"*  c #77682E",
"=  c #767632",
"-  c #403458",
";  c #56365A",
":  c #4D3A6A",
">  c #633B6B",
",  c #5C564B",
"<  c #6A5859",
"1  c #726F52",
"2  c #756A5D",
"3  c #585160",
"4  c #684869",
"5  c #6F4F6F",
"6  c #6C5765",
"7  c #714878",
"8  c #744A7B",
"9  c #785A75",
"0  c #76756A",
"q  c #826613",
"w  c #8B6D17",
"e  c #886C18",
"r  c #8C721B",
"t  c #88771E",
"y  c #93741B",
"u  c #97781E",
"i  c #9B7B1D",
"p  c #816B25",
"a  c #887628",
"s  c #997C23",
"d  c #85763A",
"f  c #947D32",
"g  c #887B45",
"h  c #897B55",
"j  c #85677B",
"k  c #8B7674",
"l  c #3E8D2F",
"z  c #289939",
"x  c #3A973A",
"c  c #2CA53B",
"v  c #39A237",
"b  c #59952D",
"n  c #4E8D31",
"m  c #499B37",
"M  c #589A39",
"N  c #7B8727",
"B  c #729236",
"V  c #47A53B",
"C  c #5AA537",
"Z  c #54A43B",
"A  c #5DA33A",
"S  c #58B23D",
"D  c #69AA2C",
"F  c #66A83B",
"G  c #75AA3A",
"H  c #64B23D",
"J  c #78B53A",
"K  c #7CB43B",
"L  c #7AC13F",
"P  c #2F9C42",
"I  c #1FA344",
"U  c #27A646",
"Y  c #3AAA43",
"T  c #2AB14B",
"R  c #37B34B",
"E  c #489F41",
"W  c #778A4A",
"Q  c #7A9647",
"!  c #678E55",
"~  c #7E9551",
"^  c #48AB45",
"/  c #56AA46",
"(  c #48B548",
")  c #58B847",
"_  c #52B750",
"`  c #67A946",
"'  c #76AC44",
"]  c #68B947",
"[  c #73B342",
"{  c #75BC43",
"}  c #7BBA43",
"|  c #7BB949",
" . c #76AF51",
".. c #738D62",
"X. c #7CA869",
"o. c #6DC142",
"O. c #7AC342",
"+. c #79C050",
"@. c #8A8528",
"#. c #99862A",
"$. c #8A972D",
"%. c #82843D",
"&. c #98863C",
"*. c #879935",
"=. c #9B9836",
"-. c #A38323",
";. c #A78828",
":. c #AB8D2B",
">. c #B4922F",
",. c #A98E32",
"<. c #A79736",
"1. c #B69736",
"2. c #8AA838",
"3. c #97A73B",
"4. c #82B739",
"5. c #8CB43D",
"6. c #84BB3C",
"7. c #8BBC3E",
"8. c #93B63D",
"9. c #A9A23D",
"0. c #86C53D",
"q. c #89C638",
"w. c #8BC43E",
"e. c #8DC93D",
"r. c #94C63D",
"t. c #92CA3D",
"y. c #8D8546",
"u. c #948647",
"i. c #95894A",
"p. c #9A8D4B",
"a. c #879B47",
"s. c #98964B",
"d. c #878D57",
"f. c #998B55",
"g. c #9C9553",
"h. c #A18F49",
"j. c #A4964A",
"k. c #A49554",
"l. c #A69857",
"z. c #AA9C55",
"x. c #A4955A",
"c. c #A79858",
"v. c #AB9D59",
"b. c #86A946",
"n. c #98A74B",
"m. c #8CB343",
"M. c #84BD44",
"N. c #8BBC42",
"B. c #88BA4B",
"V. c #94B848",
"C. c #89A65A",
"Z. c #97A558",
"A. c #89BA54",
"S. c #97BA59",
"D. c #AAA658",
"F. c #B3A55C",
"G. c #BAAB5B",
"H. c #A9B450",
"J. c #888B65",
"K. c #8E946D",
"L. c #A79A67",
"P. c #AA9779",
"I. c #94AF6D",
"U. c #97B966",
"Y. c #ADA762",
"T. c #B8AA64",
"R. c #BAB565",
"E. c #ADA679",
"W. c #B1B370",
"Q. c #C3B45F",
"!. c #C3B463",
"~. c #C9BB66",
"^. c #C6BA77",
"/. c #85C443",
"(. c #8CC541",
"). c #8EC943",
"_. c #8CC24A",
"`. c #88C649",
"'. c #92C543",
"]. c #93C943",
"[. c #9BCB46",
"{. c #94C44A",
"}. c #99C849",
"|. c #9DCB49",
" X c #9BC554",
".X c #98C655",
"XX c #A7C455",
"oX c #9AC466",
"OX c #98C874",
"+X c #A3C368",
"@X c #A9C678",
"#X c #B6CA79",
"$X c #ECEA57",
"%X c #D7C86B",
"&X c #CBC377",
"*X c #D8CA78",
"=X c #E2D47A",
"-X c #EDE56B",
";X c #4E3991",
":X c #53418E",
">X c #5C469F",
",X c #775286",
"<X c #766B96",
"1X c #6752A5",
"2X c #7C69B3",
"3X c #84588B",
"4X c #917390",
"5X c #A47B9B",
"6X c #9077AB",
"7X c #A277AF",
"8X c #978A86",
"9X c #938F8E",
"0X c #A8969A",
"qX c #B1AE89",
"wX c #9A90AA",
"eX c #B1ACB5",
"rX c #C3BB8E",
"tX c #9DCA87",
"yX c #B3CD86",
"uX c #B8C887",
"iX c #B6CC97",
"pX c #C8C687",
"aX c #D5CA87",
"sX c #DBD58C",
"dX c #C6C697",
"fX c #D2CA96",
"gX c #C7D796",
"hX c #E8DB87",
"jX c #E0D792",
"kX c #ECE592",
"lX c #D9D8A2",
"zX c #D0D4B0",
"xX c #E3DDA8",
"cX c #D5E5B1",
"vX c #EDE5B3",
"bX c #B999C0",
"nX c #B5ACCE",
"mX c #D5DDCE",
"MX c #DEE6CC",
"NX c #F0EDD6",
"BX c #DCDAE7",
"VX c #F2F0E9",
/* pixels */
"|.|.|.|.|.|.|.|.|.|.|.|.XX|.|.|.|.|.|.|.|.|.|.|.|.|.|.|.9XBXnX<XU.}.|.|.|.|.|.|.|.XX|.|.|.|.|.|.|.|.|.|.|.|.|.|.|.|.[.[.|.OXOXyX",
"|.|.|.|.|.XX|.|.|.|.|.|.|.|.|.|.|.XX|.|.|.|.|.|.|.XXXXK.1X2X2X>X<X.X|.|.|.|.XX|.|.|.|.|.|.|.|.|.|.|.|.|.|.|.|.|.|.|.#X|.|.[.[.[.",
"|.XX|.|.|.|.|.|.XX|.|.|.|.|.|.|.|.|.|.|.|.|.|.|.|.|.XX0 >X:XwX;X: I.|.|.XX|.|.|.|.|.|.|.|.XX|.|.|.|.|.|.|.|.XX|.|.|.|.|.|.|.[.[.",
"|.|.|.|.|.|.|.|.|.|.|.|.XX|.|.|.|.|.|.|.|.|.XX|.|.XXXXL.: : nX6X< pX X|.|.|.|.|.|.|.|.|.|.|.|.|.|.XX|.|.|.|.|.|.|.|.|.|.|.|.|.|.",
"|.|.|.|.[.|.|.|.|.|.|.|.|.|.|.|.|.|.|.|.|.|.|.|.|.}.D.aXh - eX0XT.&XV.|.|.|.|.|.|.|.|.|.|.|.|.[.|.|.|.|.|.|.|.|.|.|.|.|.|.|.|.|.",
"|.|.|.[.[.|.|.|.|.|.|.|.|.|.|.|.|.|.|.|.|.|.|.|.|.V.W.vX^.h h !.hX^.y.|.|.|.|.|.|.|.|.|.|.|.|.|.|.|.|.|.|.|.|.|.|.|.|.|.|.|.|.|.",
"[.[.[.XX|.|.|.|.|.|.|.|.|.|.|.|.|.|.|.|.|.|.|.|.|.H.gXdXzXF.k.!.fXpXXX[.|.|.|.|.|.|.|.|.|.|.|.|.|.|.|.|.|.|.|.|.|.|.|.|.|.|.|.|.",
"[.[.[.|.|.|.|.|.|.|.[.|.|.|.|.|.[.|.[.|.|.|.[.[.|.|.V.uX0X3Xj 5XrXS.|.[.|.|.|.|.|.[.|.[.[.|.|.[.|.|.|.|.|.|.|.|.|.|.[.|.|.|.|.|.",
"t.[.t.[.].[.|.[.|.|.[.[.[.|.|.|.}.|.|.].|.|.[.[.|.|.|.H.0X7X6X5XW.}.}.}.[.[.[.|.[.[.|.[.|.}.[.[.|.|.[.|.|.[.[.|.|.|.[.|.[.|.|.).",
"[.[.[.t.].[.|.}.|.|.[.|.|.[.|.|.|.|.}.|.}.|.[.5.N N *.g h k k f.s.*.N N *.{.[.[.|.}.}.|.[.|.|.}.|.].|.[.].|.|.[.|.|.|.[.|.[.|.|.",
"|.#XgXgX#X|.|.[.|.[.[.[.[.[.|.[.[.|.[.[.}.|.2.O X p g d d g i.d * g d $ X % ].[.[.[.[.|.[.|.[.[.|.].|.|.|.|.[.[.|.|.|.[.|.|.|.|.",
"XX#XcXcXgX.X[.[.[.[.[.[.[.[.[.[.[.[.[.[.[.'.a q f v.k.k.G.*X^.%Xz.g.l.j.q e 2.[.[.[.}.}.[.[.[.].].|.|.].|.[.[.[.`.|.|.|.).[.[.[.",
"|..X.XoX.X|.[.[.[.[.].[.[.[.[.t.].[.].[.[.8.y i T.jX~.fXzXeXeXMXlX^.*XfX&.u $.[.}.].[.].[.].].[.].[.[.].[.[.[.[.[.].[.].[.[.[.).",
"|.|.|.|.].[.].].].].[.].[.[.t.[.[.].].].[.3.s q g rXdX0X>X: 1XBXeXqXfXE.@ y #.].[.].].[.[.].[.].].|.[.].).[.].].].[.].[.).[.).[.",
"].[.[.[.t.[.].].].].].].].[.t.[.].].].].t.$.w X g k.l.J.;X;X2XBX0Xk.x.v.@ q r m.].].].].].[.].].].].).].).].).[.].].].].].].].].",
"].].[.].[.t.[.].[.].[.t.[.t.[.[.[.].[.].e.@.q X g z.Q.L.6X>X<XnXqXF.v.L.$ o s *.].].[.].].[.].[.[.].].[.[.].[.].].[.].[.].[.].[.",
"].[.[.[.].[.].].[.].].[.).V.].].}.].].].5.#.w O r R.R.c.L.wXwXP.x.F.^.g.O q s =.r.].].].].[.'.V.].].[.].[.].].].[.].].].].].[.].",
"].].].].[.].].[.].].[.[.S.K.'.}.}.].m.s.#.,.;.u @.U.aXv.k.g 1 p.x.!.#X2.y s 1.#.*.n.}.].].].C.1 ].[.[.].[.].[.].[.].[.].[.].[.].",
"].t.t.].).[.].].].N.Q '.B.8XE.(.'.H.F.f.g e >.#.m.}.gX*Xv.p.g l.T.jX+X'.$.,.s a u.x.R.B.{.B.k Q ].b.+.].t.].].].].].].].].].].].",
"].].t.].).].].).t.6., ~ V.8X5Xa.j.D.c.k.p.a N G ].'.uXhXT.p.u.l.%XxX.X].'.2.a f 1 d.L.K.s.h 7 Q 6.< ' ].].].].].).].].t.).).].].",
"].].].].].).].].].t.Q 4 k 3X8 < h.z.c.v.G.s.G J ].8.&.G.!.k.k.z.!.&.n.r.].).3.h.h J.K.J.h ; > 4 6 < 0.].].].).].].].].].].].].[.",
").].).].].].).].].).N.0 8 > > j ^.aXpXpXW.' `.M.].3.y @ l.c.k.l.p @ :.'.].].(.S.W.fXrX*XP.,X; ; 8 ~ ].t.[.].].].].].].).].].].t.",
"].].].).].].].].].].].b.0 9 j K.@X@XoX_.| /.`.{.'.=.w   * k.k.y.  O -.m.}.].].e.)..X@XE.9X3X5 5 ..{.).t.r.].].].].].].).].].t.].",
"].).].).].).].).].).].].e.7.N.'.t.e.).].].].).].).<.y o . & * + X q ;.j.XX.X).].].t.].V.C.C.J.a. Xt.e.].].r.].].].).].].].t.t.].",
").).].e.'.e.].'.e.].e.'.).t.].e.).e.].e.e.r.'.].e.<.-.u #     X w i :.p.Q.jX#X(.'.e.e.e.'.'.{.{.].'.).'.t.t.].'.).].e.].).e.e.`.",
"].e.).].).].).).'.).].).].).).).].).'.'.'.'.].].5.t w ;.i q q w -.#.# f g !.lXqX'.'.).].).].].).`._.{.'.e.e.e.e.].`.].e.].e.).`.",
"].).].).'.).).].'.).).).).'.].'.).].].'.).).).'.$.. O ;.:.i u -.:.i . # y.d %XlXuX).).].).).'.e.r.{.U.S.m.6.].).`.`.].e.t.e.).].",
").).].).).).].).).].).'.).].).].).).].).].).'.).@.. O -.;.>.>.>.;.y . X p.i.p.%XMX+X).).).].).{.Z.8X9X9XW ' {.'.].].].e.t.].).).",
"].).).].).].].).].).).'.).'.'.7.m.m.6.(.'.).).(.% . O -.-.#.<.-.-.w . o &.z.i.z.hXxX.X'.).).).I.9X7XbX9X0 ...X'.r.'.).'.t.].t.].",
"].).).).).).).].'.).).].'.).m.b.m.N.5.(.'.).].5.t X e i -.t N i -.y X # f c.l.i.~.vXiX).).e.e.C.4X6X9X0 ! C..X'.t.).).'.].t.e.].",
"e.).).).].).).).).'.).].(.m.m.(.].'.).'.).).'.5.t w r w -.t N y y y e w f k.k.f.z.hXcX.X).).e.N.C.K.! l ' B.{.e.).).(.e.).).].e.",
").).).).).).e.).).(.(.N.n.N.r.(.e.(.e.).).).).2.y w w # u #.@.-.q w w e &.i.y.k.h.%XMX+Xe.).(.e.'.+.P m B.).e.(.).).e.w.e.(.(.).",
"(.).).(.).`.).'.'.{.`.n.V.w.).w.e.'.(.(.(.).).3.,.# q X s :.@.>.O O q w =.a.p.k.k.!.kXiX).)./.).].) z ` `./.e.e.(.).).w.e.(.).(.",
").e.(.(.(.G K '.'.).B.H.N.).w.).(.(.).(.).e.).2.-.e # . y ,.#.>.o . # a ;.5.g.l.k.!.hXgX(.(./.).`.Y z  .`.w.).).(.).w.).(.'.).(.",
"(.w.(.(.).G b (.).e.n.m.e.).(.).(.(.(.e.w.(.(.3.a s @ . y ,.#.>.O   u s #.N.n.c.z.!.=XzXN.).w.e.] P x  .'.e.).).).(.).(.(.(.w.(.",
"w.(.(.(.(.B.b G ).7.n.M.(.w.w.(.(.w.).w.(.w.).5.a q @ o ;.1.<.1.e . w # $.N.n.c.L.~.-XzX_.w.q.(.( I Y B.q.q.e.(.w.(.w.w.(.e.(.w.",
"w.w.w.w.(.A.b m /.8.n.M.(.w.w.w.w.w.(.w.w.w.(.w.2.s s u 1.1.3.1.-.s i @.7.(.n.x.k.~.hXzXM.w.q.{ c U m B.r.w.w.(.(.w.w.(.w.w.(.w.",
"w.(.(.w.(.(.` n ` S.D././.w.w.(.w.w.w.w.w.w.w.w.q.$.a >.1.3.8.1.1.s a 4.e.7.g.l.k.%XsXiXN.w.(.] U U ` (.q.w.w.w.w.w.w.w.w.w.w.w.",
"w.w.w.w.w.w. .l E S.Y.6.(.w.w.w.(.w.w.(.w.(.w.w.q.G e i 1.V.e.9.:.w % /.0.m.z.c.v.%XkXyXw.w./.V I c G _.0.0.w.w.w.w.(.w.(.w.w.(.",
"(.(.(.(.(.0.} m m | W.b.(.(.w.w.w.w.w.w.w.w.w.r.7.*.y y 1.8.q.j.i y @.w.7.H.z.c.v.=XlXoXw.w.[ v T c H './.e.w.w.(.(.(.N.w.w.w.w.",
"7.(.(.w.w.0.M.V z M W.D.6.e.w.(.w.w.e.(.w.(.w.w.(.$.@ + y 3.5.,.o @ * 5.V.F.z.l.F.=XfX(.(.(.H Y T c J '.(.w.q.w.(.(.(.(.(.(.w.w.",
"w.w.q.w.w.e.(.^ I m A.W.b.w.w.(.(.w.7.(.w.w.w.w./.@.d + q j.n.-.. * p 2.D.l.l.l.!.sX@Xq.w.N.Z Y R v [ V.w.w.w.w.w.N.(.(.(.w.w.w.",
"w.q.e.q.(.(.(./ I z [ #XF.b.6.e.w.w.(.w.w.(.(.w.7.j.1 g a L.E.p.d 1 f.p.i.l.z.z.%XlXA.e.r.| V R R v } 7.q.w./.(.(.(.(.0.(.w.(.6.",
"q.w.w.G K ).(.S I z C S.pXk.B w.w.w.w.w.w.7.w.w.N.f.- h c.aXdXT.p.: 2 u.p.c.k.R.jXX.H (.).] V R ( m } (.q.(.(.(.w.w.w.w.w.w.w.(.",
"w.w.N.G b M./.H U U M } oXpXi.B 5.7.(.(.w.w.w.w.e.s.<X8Xv.fXdX!.x.6XJ.f.k.x.F.sXI./ M M._.A Y ( ( m } (.w.w.(.(.(.).e.w.w.w.w.w.",
"e.)._.| n B O.H U T m { (.U.rXL.%.G 7.'.(.w.w.(.q.n.E.E.v.fXdX!.c.E.x.k.l.F.*XW.E _ M ' B.Z S ( _ m [ (.0.D M.(.w.7.w.q.w.(.w.w.",
"(.q.'.| m m | ` v T v G ).q.S.pX^.p.B B 2.6.7.(.7.n.k.x.F.fXrX^.l.k.h.l.!.&X XM.` / / F B.Z ) S S C ' A.C b (.q.7.r.w.r.(./.(.q.",
"(.w.(._.E m ` F ^ ( ^ F (.w.q.N.@XgX^.k.y.%.%.s.i.p.i.x.T.rXqX^.k.p.v.!.R.V./.B.M ) _ M ` Z ) ) ) Z ` ` b D 0./.w.0.q.0.w.w.(.w.",
"(.w.7./.A ^ M / / _ / A `.w.w.w.6._.+XuXpX^.T.T.l.k.k.j.Y.rXE.rXk.j.n.V.w.w.(.M.C ) ] M ` / o.) ) ) M / / ' U..X.X_.`.).).w.w.w.",
"(.w.e.B.` _ m n ` ] ) M /.w.w.w.w.w.(.(..XU.@XuXpXgXrXl.T.pXY.pXk.b.w.w.w.(.(.M.C ] ] / n _ ] ] o.) n ` ` tXzXgXlXcXiXU.V.).w.(.",
"(.w.w.M.F ] A n ` | ] F 6.w.(.w.w.w.w.w.(.0.7.0./.(.5.u.v.W.U.^.u.*.w.w.(.(.).[ H o.o./ n ] ] o.] ] H ] ] tXkX$X-XvXNXcX@X'.q.(.",
"/.w.w.6.H B.F b } O.+.[ K w.(.w.w.w.(.w.w.(.w.w.(.e.b.g x.K.C.L.y.y.w.w.w.w.).[ J o.{ ` M | { o.o.{ } { J @XkX$X-XvXVXVXzXU.q.0.",
"(.(.w.K K _.K b /././.K K e.(.w.(.(.w.w.w.(.w.w.(.w.a.4 4 5 2 7 4 6 m.w.0.(.N.F { O.L [ C L O.O.O.L L 0.{ tXVXNXVXVXVXMXcXOX).q.",
"w.w.w.w.(.(.M.J /.M.(.J K e.(.(.(.0.(.w.w.0.(.w.(.6.0 8 ,X8 9 7 ,X7 ' q.w.(.M.G /.O.0.L L /./.0.L /.L /.M.U.zXmXVXVXiXC. ._.(.w.",
"w.0.(.(.(./.(.(.(.N.(.4.K (.(.(.N.(.(.w.w.w.(.w.w.b.5 8 3X,X9 ,X3X7 0 q.w.(.J M.(././.(./.(.(./.)./.(.`.`.|  .C.tXI.A.B.B._.(.q.",
"w.(.w.w.(.(.w.w.w.(.w.q.6.(.0.(.(.(.(.w.w.(.w.w.e.W > ,Xk 5 2 j k 8 6 7.w.4.K (.N.(.(.(.(.(.(.(.).(.(.(.).M.G N.2.} (././.(.w.w.",
"w.w.w.w.(.q.w.q.w.q.q.w.w.(.(.w.(.0.(.w.(.w.(.7.).W ; ..~ 3 W < b.4 , N.q.K (.(.w.(.w.(.e.(.w.(.w.(.w.(.(.(.6.6.(.w.(.(.(.0.w.q.",
"w.w.(.w.w.w.w.w.e.w.w.w.(.(.(.(.(.N.(.w.w.w.w.w.e.B ; ~ ' = G 1 m.< , 6.(.w.w.w.(.w.w.w.w.w.w.w.w.w.w.e.(.(.(.'.N.(.'.N.(.w.w.w.",
"(.7.(.w.w.w.w.w.w.w.w.w.(.(.(.(.(.(.(.(.(.w.w.w.(.6., Q N.M.6.M./.1 Q w.w.q.q.w.e.0.0.w.w.w.0.w.w.w.w.w.w.w.q.N.).(.w.w.w.w.w.(.",
"w.w.w.w.w.(.(.(.(.(.N.w.(.0.(.w.w.(.w.w.w.w.(.w.w.w.W b.w.w.w.w.(.W G w.w.w.w.w.0.w.w.0.w.0.q.w.w.w.q.w.w.q.q.w.(.w.w.q.w.w.w.q.",
"(.w.w.(.w.w.(.w.w.(.w.w.w.7.(.w.(.0.(.w.(.w.w.(.w.w.w.w.(.w.w.(.w.(.w.w.(.w.w.(.(.7.w.w.w.w.w.w.(.(.q.w.(.w.w.w.(.w.(.e.(.w.q.q.",
"w.w.w.w.w.w.w.w.w.0.(.w.w.w.w.w.w.w.w.w.w.w.w.w.w.(.(.w.w.w.w.w.w.w.w.(.w.w.w.w.w.w.w.(.w.w.w.(.(.w.q.w.w.w.w.(.w.w.w.7.w.q.w.e.",
"w.w.w.(.w.(.(.w.w.w.(.w.w.(.(.w.w.w.w.w.w.w.w.w.w.w.w.w.w.w.w.N.w.(.w.w.w.w.w.w.w.w.w.w.(.(.(.(.q././.(.0.w.w.w.w.w.w.w.q.N.(.(.",
"w.(.w.0.w.w.w.w.7.(.w.w.w.w.w.w.(.w.w.w.N.w.w.(.w.w.(.w.(.w.w.w.w.w.w.w.(.w.w.(.(.w.w.w.w.(.(.(.q.e.J K (.w.w.w.(.w.(.r.q.(._./."
};
