/* XPM */
static char *c08e408a47db41f1baa2cfb7962f66bdQ6B6TovMfazBNK6U[] = {
/* columns rows colors chars-per-pixel */
"64 64 250 2 ",
"   c #14141B",
".  c #1B1B1C",
"X  c #18181A",
"o  c #0C0E17",
"O  c #221D1E",
"+  c #24211E",
"@  c #0D1324",
"#  c #1B1C23",
"$  c #151B2C",
"%  c #1B1D2A",
"&  c #141724",
"*  c #1A1D33",
"=  c #211E26",
"-  c #211E36",
";  c #1D2125",
":  c #1B232B",
">  c #1C2637",
",  c #222225",
"<  c #23232B",
"1  c #29282B",
"2  c #252A34",
"3  c #2A2C33",
"4  c #262939",
"5  c #2C343B",
"6  c #2C3434",
"7  c #33343B",
"8  c #363839",
"9  c #343233",
"0  c #1F201B",
"q  c #443B36",
"w  c #3E423E",
"e  c #45453D",
"r  c #4F4F3F",
"t  c #796E3B",
"y  c #1B2944",
"u  c #1A2E52",
"i  c #272E45",
"p  c #253344",
"a  c #2B3445",
"s  c #24334C",
"d  c #2B3B4C",
"f  c #2B364A",
"g  c #323B4B",
"h  c #373945",
"j  c #2C3B53",
"k  c #2B3B5C",
"l  c #273555",
"z  c #353E58",
"x  c #2B3C62",
"c  c #273863",
"v  c #323F66",
"b  c #433F46",
"n  c #394348",
"m  c #2F4053",
"M  c #334355",
"N  c #35455A",
"B  c #3B4A5D",
"V  c #3B4657",
"C  c #2F4048",
"Z  c #3D4C63",
"A  c #374769",
"S  c #3D5177",
"D  c #374A6F",
"F  c #424444",
"G  c #464848",
"H  c #53544C",
"J  c #434D5C",
"K  c #474855",
"L  c #4B5456",
"P  c #575A58",
"I  c #4F4F51",
"U  c #6A6953",
"Y  c #424E63",
"T  c #464D68",
"R  c #435264",
"E  c #4A5465",
"W  c #44546A",
"Q  c #4B556A",
"!  c #4C5B6C",
"~  c #4C5967",
"^  c #525D6D",
"/  c #555A66",
"(  c #4D5C73",
")  c #475779",
"_  c #535D72",
"`  c #565D77",
"'  c #54626E",
"]  c #5B636B",
"[  c #4F6072",
"{  c #546374",
"}  c #5A6574",
"|  c #5D6A76",
" . c #54637B",
".. c #5B647B",
"X. c #5B6A7B",
"o. c #576879",
"O. c #656869",
"+. c #7A7767",
"@. c #626C7B",
"#. c #656A77",
"$. c #64717D",
"%. c #6C727B",
"&. c #78797A",
"*. c #615E64",
"=. c #827D75",
"-. c #908C55",
";. c #88857C",
":. c #928D6A",
">. c #AFAA71",
",. c #C3BA74",
"<. c #8B833A",
"1. c #4C5D83",
"2. c #4D628B",
"3. c #5D6C83",
"4. c #586687",
"5. c #5E7188",
"6. c #566B92",
"7. c #5D7297",
"8. c #626C83",
"9. c #646C88",
"0. c #637284",
"q. c #6A7484",
"w. c #64748A",
"e. c #6A758C",
"r. c #6B7A8C",
"t. c #6A7987",
"y. c #727E8C",
"u. c #747884",
"i. c #6C7C93",
"p. c #677695",
"a. c #747998",
"s. c #696F92",
"d. c #687CA6",
"f. c #757DA6",
"g. c #817F84",
"h. c #79838C",
"j. c #6E8096",
"k. c #748294",
"l. c #7B8493",
"z. c #74859B",
"x. c #7D8B9D",
"c. c #7A879A",
"v. c #6E83AA",
"b. c #798AA8",
"n. c #758AB5",
"m. c #7C91B7",
"M. c #7A8EAB",
"N. c #7D93C2",
"B. c #8A8986",
"V. c #95928C",
"C. c #9A978D",
"Z. c #838D9B",
"A. c #878C95",
"S. c #8B9399",
"D. c #939493",
"F. c #9C9B94",
"G. c #989998",
"H. c #908E8B",
"J. c #A39E96",
"K. c #9DA29A",
"L. c #A3A29C",
"P. c #A6A59C",
"I. c #B4B390",
"U. c #838BA3",
"Y. c #8492A3",
"T. c #8B94A4",
"R. c #8C9BAD",
"E. c #8796AA",
"W. c #949BA5",
"Q. c #949CAD",
"!. c #989BA4",
"~. c #8899B7",
"^. c #939DB4",
"/. c #9BA3AD",
"(. c #99A2A9",
"). c #95A3B5",
"_. c #9BA4B4",
"`. c #95A5BD",
"'. c #9BA9BC",
"]. c #9BA8B7",
"[. c #8FA0B2",
"{. c #AEADAB",
"}. c #A6A7A6",
"|. c #B2B2AD",
" X c #A3ACBB",
".X c #A5ABB5",
"XX c #AAB3B9",
"oX c #B4B3B2",
"OX c #B8B9B8",
"+X c #B0AFAC",
"@X c #C0BEBF",
"#X c #C4BD86",
"$X c #BCC1BB",
"%X c #C4C4B8",
"&X c #D8D5AA",
"*X c #C9C393",
"=X c #869AC4",
"-X c #8B9ED4",
";X c #9DAEC3",
":X c #98AAC8",
">X c #95A9D7",
",X c #94A8CD",
"<X c #A3AEC3",
"1X c #A4AFC6",
"2X c #A4B3C5",
"3X c #ABB4C4",
"4X c #A4B4CB",
"5X c #ABBACC",
"6X c #AAB6CA",
"7X c #B3BDCC",
"8X c #B8BCC5",
"9X c #ACBCD4",
"0X c #A8B8D4",
"qX c #B1BED3",
"wX c #B2BED8",
"eX c #C1BCC2",
"rX c #BAC3CB",
"tX c #B4C2D5",
"yX c #BBC4D4",
"uX c #B4C4DB",
"iX c #BBC6DA",
"pX c #BCCADD",
"aX c #BBC9D6",
"sX c #AEC1D7",
"dX c #BBCBE1",
"fX c #B8CFEF",
"gX c #B9CEF3",
"hX c #C7C6C6",
"jX c #C3CDDB",
"kX c #C3CAD6",
"lX c #CAD3DD",
"zX c #D9D8D5",
"xX c #D1D6C9",
"cX c #E0DDD9",
"vX c #E9E6D9",
"bX c #C2CEE3",
"nX c #C3D2E4",
"mX c #CBD5E4",
"MX c #C9D8E9",
"NX c #D5DCE8",
"BX c #C3D9FA",
"VX c #DAE2EA",
"CX c #DBE6F3",
"ZX c #EBEAE5",
"AX c #EDECEB",
"SX c #E5E5E3",
"DX c #F3F4EA",
"FX c #FCFDFD",
"GX c #F6F7F6",
"HX c #ECEFEF",
/* pixels */
"F.n K ` ` ` T | 9.e.7.w.5.z.j.o.5.5.3.r.N m C m s ! 5.[  . .` 3.5.( [ ' ! o.j.' { ' [ { k.' ! ' ! ! r.| #.^ #.D.@XF.V.C.g.J.@XDX",
"L.F b #.` ^ E q.5.e.5.p.w.z.5.5.5.5.5.j.N m C M p ! 5.o...3. .3.0.( o.' [ o.j.! { { [ { k.[ ' ! ! ! h.@...O.#.D.@XL.V.F.g.J.@XDX",
"L.b T ..` ^ ~ q.w.p.7.w.j.j.j.5.5.5.5.j.N M C m p ! t.o.3.3.4.5.w.[ X.o.o.$.k.' o.[ o.{ j.{ { ' ' ^ r.@.#.` %.D.@XL.C.C.H.J.@XDX",
"L.b b 8.` ^ } e.i.i.i.i.j.z.j.j.j.j.j.z.Z M m N C ' j.5.r.w.5.r.k.X.5.5.X.$.k.o.t.$.0.X.h.| X.| | ^ r.@.#.#.%.!.@XP.G.J.C.I.@XvX",
"L.F b 8.` ^ ^ q.j.j.j.j.j.x.j.j.j.j.5.M.! m M M m [ w.3.5.3.4.5.j.o.$.X.o.$.x.X.0.X.0.X.Z.X.8.X.} { k.$.q.#.u.!.hX{.F.J.J.P.%XDX",
"J.b h ` ` T Q @.B Z Z D N [ B N Z D B 5.m p p d y B [ B Z Z Z ! ! B Z Z Z [ $.B ! W E J t.R J J B J q.' _ ] O.y.oXV.=.;.;.C.|.ZX",
"J.F h ^ *./ ` %.S W ( W ! o.Z B B N m 5.N m m m C Z 5.! [ ( )  .X.W ! R ~ ' { > > > y 4 @.~ ~ ~ E ~ r.| #.#.O.B.oXV.B.;.V.F.oXDX",
"F.F 5 / ` ` / 9.[ [ o.[ [ j.W B Z Z A 5.B m N M m [ w.o.3.3.o.5.w.' { ' o.5.X.> p p 5 > q.o.} { | ^ r.$.#.#.%.G.@XJ.C.F.C.J.oXvX",
"L.q h T ` ~ ^ t.[ [ ( ( [ w.J Z Z Z B o.Z M N M C [ 5.[ o.3.o.X.3.{ { ! ' 5.' > 5 p > p X.| { ^ ^ } y.@.q.#.#.G.oXC.C.g.C.C.+XZX",
"F.b - b / T } t. . .`  . .r.R R W W Z 5.Z M B N d ! 5.o.5.o.[ $.5.' X.X.' X.o.> p p p p $.o.} } { ~ l.@.#.} &.D.@XC.V.H.C.P.+XZX",
"F.e u.U.E.Z.~ q.[  .4. .{ t.R R Z W Z o.Z N B N N [ j.o.j.[.m.[.`.t.| X.o.5.o.p p p p 5 $.o.o.o...^ l.@..Xy.%.D.oXL.g.B.@XhXP.AX",
"K.w /.6X6X1XR t.[ ) ) ( ( t.J R Z Z B 5.Z N M N s ) $.! M.BXMXdXnXz.! ! [ X.o.> d p p y $.| ' ' ^ { q.%.CX/./ H.oXJ.g.=.xXZX{.AX",
"K.G S.'.1XqXa.3. .( ( ( { w.R R Z Z Z $.Z N N B M [ j.! M.MXdXsXMXj.! [ ! o.o.> p p p p $.o.' { { { q.y.CX_.*.g.@Xg.=.=.cXGX@XZX",
"K.L S.2X3XqXQ.8.4.4.1. . .w.R E ! Z Z 5.Z N B N m [ 5.[ E.MXdXaXnXk.[ o.o.$.o.p C p p p $.o.' o.} | y.A.VXXX#.H.@XV.C.B.vXGX@XZX",
"K.n T.3X<X1X).w.4. .2. . .t.Y R ! Z B 5.Z N N N N [ j.! M.MXdXsXnXk.[ o.[ 5.| > C p p p 5.o.o.' { | q.c.CXOX#.H.{.C.C.V.AXFX{.ZX",
"K.G W. X<X5X2X0.4.4.`  .{ w.R R Z Z Z 5.Z N B B N [ 5.o.[.dXdXtXdXx.o.$.o.5.o.5 d s C s $.o.' o.| { t.S.VX.XO.V.+XC.B.H.cXGX+XSX",
"D.n W.<X<X3X1Xi.9.4.(  .| X.! Z ! Z ! 5.Z M B Z m o.j.[ [.MXpXtXnXx.} o.X.t.{ s C d d s t.o.o.| } o.q.y.VX(.] H.{.D.B.B.cXDX}.ZX",
"K.F !.Q.q.7X3Xi.6.w.4...{ t.~ W ! Z Z o.W B B M m ( 0.[ x.4XdX5X;Xi.X.{ [ X.{ p d m p C X.X.X.^ | } h.u.mXS.%.A.}.D.B.B.%XZXP.ZX",
"K.n h.T.a T.<X0.4.( Q ! ! t.W Z Z Z B o.W N B B N [ w.X.o.5.tXsX^ {  .{ 3.w.( g m d d f | o.^ @.| ' X.$.l.&.&.B.{.G.B.V.V.{.P.ZX",
"G.G &.k.a k.E.3.Q s.p.` V B Z N S [ C [ [ d C B [ W Z M B B x.c.! d E 3.B Y R i d d C 5 ~ ~ ~ J R u.| ] P ' ] %.A.V.&.&.=.B.J.ZX",
"}.n !.Q.g ).2Xr.a.0XdX'.r.c.0XE.;X4X5.[.0Xj.o.z.uXR.`.'.{ 3.pX'.o.{ 2XMXR.^ c.'.k.Q.Z.^.T.Q.jX#.T.VX/.$..Xx.(.kXoXZXeXg.@XhXP.ZX",
"J.F Q.W.a ).3Xi.U.uX0X9Xr.Y.uX`.sXuXz.:XfXM.o.[.uX4XtX4X3.t.tXtXX.x.pXnXiX@.Z.MX).yXR.yX X7XCXT. XCXXX&.HX{.rXGXhXGXAXg.cXGX+XZX",
"L.F A._.g R.3Xw.~.9X4XpXk.j.sX0X0XsX`.4XdXM.[ 4X9X2XuX4Xo.w.tXtX' [.MXpXbXk.Z.wX3XkXY.3X8XmXbXeXaXMXXXh.NX/.$XFXSXSXGXJ.cXGX@XZX",
"F.G W.W.] 5X).t.:XwX5XuXZ.k.sX9X0XsXsX4XuX:Xo.sXtX;XdX2X{ 3.uXsX$.3XpXpXMXT.c.jXyXbXT.8XkXmXlXkXlXMXrXh.VX/.$XFXAXSXGX}.cXAX@XZX",
"K.G T. XXX2XR.t.4X0XtX9X).E.sX9X0XsX4X4XuX`.5.uX0X4XdX;Xo.o.uX2X$.sXnXpXnX].k.pXkXwX!.3XkXlXlXmXlXlXrXh.VXW.OXFXHXSXGX{.zXGX{.AX",
"L.G S..X X6XY.r.0X9X<XqX'.M.uX4X4X9XsX4XsX'.x.uXuX4XdX2Xo.5.dXsXj.aXtXx.MXXXx.pXwXmXT.3XkXmXmXlXMXNXrXl.VX.X8XFXHXSXFX{.zXGX{.AX",
"L.G W. X X3Xr.t.0X1Xi.1X2Xx.uX~.z.sX:XM.tX'.z.dX'.M.pX4X3.5.dX4Xj.aX'.' tX3XE.pXkXjX^.7X7XW.kXNX(.aXkXA.VX.XrXFXNXzXGX+XzXGX}.SX",
"!.G S. X X X~ t.wX:XQ R.5Xx.dXj.B aXM.o.uX'.j.dXx.o.uX4Xo.5.uX2Xx.MXx.Z rXtXx.lXqXu.a.7X8X` kXmX| XXjXA.NX}.8XFXeXOXGX+XzXFX{.ZX",
"}.G Z.<X3X_.d k.wX^._ U.5Xx.dXp.M sXM.[ tX).x.dXj.W uX4X{ 5.dX4Xc.nXtXqXuXtXY.nX XJ _ kX<X^ 7XnX| .XkXZ.NX{.eXFXoXoXFX+XxXGX{.SX",
"!.K Z. X X_.g k.wX~.` c.5Xx.uXw.C sXx.[ 5X[.x.dXj.W sX;X[ 5.pX4XY.nXtXpXpXtXY.MX^.Q q.kX.X^ 8XjX| ].aXA.NX.X8XFXoX|.FX{.zXDXP.ZX",
"G.F T._._.3XE a.uX^.( l.5XZ.uXX.C sXh.! 5X).k.dX5.! sX;Xo.5.uX;XY.tXpXnXpX5XR.MXQ.Q 8.5X X^ 7XjX^ ).jXA.NX.X8XFX{.oXFX{.cXAXJ.ZX",
"G.F !. XQ.yX@.r.uX`.( b.tXY.pX3.C sXx.L 2X Xx.aXt.{ sX'.o.5.uX4XE.dXiXaXnXtXE.mX^.^ q.jX X^ 7XnX#. XmXA.NXXX8XFX.XoXFXoXcXDXJ.ZX",
"F.8 O.#.%.h.~ X.E.z.Q w.Y.t.Q.^ a _.u.E _.W.y.7X@.' ]._.! | tX[.l.aX.X)..XE.S.pXZ.^ #.6X!./ XX7X` ^.6Xg.aX/.{.HX(.oXFX$XzXAXK.AX",
"F.h u.%.] A.$.! M.z.A a.y.#.Z.R g h.] J y.| / x.J V Y.X.C M h.k.| x.' p C a @.Y.q.g z !.y.g S./.T u.^.s.(.&.S.$X}.&.A.&.B.&.B.AX",
"G.I (.Q.t.tX[.t.0XwXp.0X6Xi.nX8.m 7Xc.E 7X).9.jXx.Q dX4Xo.j.dX'.h.lX[.X.y.k.T.MXQ.' %.aX.XO.7XjX} XXlXA.VXXX8XFX$XS.S.G./.&.}.HX",
"!.G T.Y.! XX(.j.0X:XsX1X).e.sX3.N 7XU.Q 1XR.X.9X4X~.dX`.o.3.uX0Xj.pX'.! jXqXE.mX[.^ q.pX.X_ 7XjX/ (.hXg.VX}.XXFXrXW.S.D.L.u.}.HX",
"K.G S.S.n .X).j.;X;X0X2XY.0.tXo.d 2Xk.J 2XE.! sX2X4XuX`.o.5.sX,X5.uXuXE.bX6Xx.MX(.! $.aX_.~ 6XkX| (.kXS.zXK.8XGX8XG.S.D.L.&.}.DX",
"D.n S.S.n /.XXj.R.1X2XsXh.#.tX@.g 6Xk.J 2XR.B 2X4X4XsX~.[ 5.sX0XX.uXdXdXdX;Xc.MX[.! $.aX]./ 6XbX! (.aXh.VXR..XFXeXD.u.B.g.&.%XDX",
"G.F W.T.4 Z.3Xa.~.4X;X5X8.@.wX` a 7Xl.J 2X_.M ).2X).sX'.4.p.uX4X3.;XdXpXMXx.c.MXR.' @.yX].^ 6XkX{ ).pXZ.lX!.XXFX8XD.g.D.B.;.OXvX",
"}.h !..X4 A.rXZ.e.1X:X6XQ %.iX@.z 3Xa.~  XQ.d E.5X`.4X[.4.5.dX4X3.Y.dXaXaXk.c.MXR.{ $.yX X_ 3XkX{ `.jXZ.lX(.OXFXeXD.H.G.K.C.+XDX",
"F.b g.g.7 O.A.u.g ^.yXT.4 %. Xq.I 3XZ.E 3X.Xi 9.tXR.2X'.t.i.dXsXX.h.aXpX5X} Z.MX.X| h.rXXXq.7XlX0..XaXA.VXK.{.FXeXoX{.hXhXhXOXAX",
"C.F = 9 9 3 3 K 3 V u.h 7 P h h h K h I b K g h h.$.~ J X.t.c.t.q.' Z.rXy.} h.h.j.| L ' u./ #.#.J K %.O.O.P +.F.@XJ.P.J.J.{.{.GX",
"J.e 9 b 9 9 K I h 4 7 n h P 7 4 9 3 < / 7 3 8 8 : n C w #.| ~ ] $.' ' ' ' ~ $.^ #.J 2 5 P h h 9 7 3 ] H H 9 U h.+XC.;.C.F.B.{.GX",
"V.e 9 q b b 8 P 3 g h L K O.5 7 7 7 3 L 6 6 6 7 6 L C 6 / | | $.| ' ' E ^ { $.{ ' J g 7 / 8 1 8 h 8 O.H H U U ;.@XC.H.J.}.H.{.SX",
"C.r 8 b F F w L n 6 h n G ] 8 7 n 8 n P n n n n w L B C ] $.| @.! V 3.X.X. .9.} t.] J G O.I r H P G O.P P O.O.}.$X.XoXOXhXrXOXZX",
";.e 3 7 9 7 6 w 5 a a 5 6 C C d N m 5 M n C B n C B V C B N d A Z B e.3.4.Q ( ..q.@.L G H G r r P e P H I P O.S.]././.Q./.OX$XHX",
"A.5 - z z i > p y A ) N C d y A ( A l k s l [ Z y u s k S Z u l m j ( 4.A N l N Y @.K 8 G r H =.U G U O.#.(._.X.i.b.f.~.^.Y.).aX",
"8.* l z f z s k D c u u l A x l l x u c k c A N l A D c u A c c k l k d D Z A Z B f n G.%XI.I.I.I.I.%X&XxX%.e.4.4.p.p.d.s.5.s.~.",
"3.Y 8.s.Q ` ) 2.) D c u S 2.D S 7.o.S N D n.d.D 6.v.6.N D S c D j.5.A p.~.5.7.j.b.r.%.h.B.+.-.>.I.t *X:.P.D.rXsX~.,Xm.=XM.:XE.=X",
"@.Q @.s.b.p.~.6.1.7.2.u 2.d.1.d.7.[.m.v.S N.v.S 7.7.m.m.m.n.d.1.m.5.p.M.j.>X:X=X`.5X(.&.+.-.t t ,.-.*X>.I.}.pXtXgXgXfXfXgXBX>X,X",
"3.( p.i.M.b.M.6.2.d.6.u 2.7.2.7.7.m.v.p.S m.v.v.v.2.n.n.=X=Xd.S ~.d.6.m.2.2.2.6.p.i.$.+.+.>.>.,.,.<.>.>.I.(.yX=X=X-X>X-X>X>Xn.-X",
"9.l ` T p.6.) A S 1.D c S ) S D Z S 2.S A 6.2.x 2.6.2.6.f.6.d.S d.d.S 7.n.7.7.D A A V B.:.+.-.,.,.-.,.I.%XH.iX0X-X-X=Xd.n.n.n.>X",
"..> f i Z k A k k x x k A N x k N k A c A c c D m D k S S x 6.D A ) 1.) 2.2.7.1.) Q J G.%XI.>.,.*X#X&XvX%XH.^.-X>X-X-XN.-XN.N.>X",
"' 4 > 5 i 4 s j f l f j u l l j j s k j l k A j N u k k s A A A D A T v A A A A W Y J L *.U U U U U =.J.}.S.U.n.d.n.m.N.=X=Xm.>X",
"%.= < = 2 4 * 2 $ @ & @ @ $ @ @ $ & o @ @ @ @ $ @ $ @ : $ $ $ @ $ > $ * > : @ > > @ > $ @ # = . + = 1 3 h i z l c N l m A W B x.",
"=., = , # = = 4 = @ - = & # # &       .   @ & # : & & &   @ & # $ % > $ : : $ : & $ $ * - $ - - 1 - 4 4 i i i y u u s d f V d ).",
"=.9 O = = = < 1 = = 3 , # = % = < : < < = # < 3 3 b h h 4 K K 4 i a 4 4 < < < 3 3 : # < % & $ $ - i i i i i l l j i l i h h h eX",
"V.H + . b = = 7 = X < 3 . 7 K h #   X # # # ; 1 7 K K G b I I h - 4 = < % = ; < 3 = % : 2 5 4 h l b T z T T T T T ( 4.1.T 7 K eX",
"V.O.1 o G 3   7 ,   3 7 = b u./ 2 . ; ; , ; + ; # # % < - < ; . = + , , # . X . # % % % h J E #.` ` #.9.s.s.s.s.s.f.g.N.9.q *.SX",
"V.O.8 & 7 b   = # , < 6 * 4 ` ` 2   X . . X X X # # ; < 3 % ; ; X X X 0 O = # % < < : : g J E q.` / 4.9.9.s.s.g.a.f.g.g.*.9 *.SX",
"V.*.q = = K = # ; 3 ; 3 4 i Q ` h # : ; < < , # # < 4 % 4 2 < # ; + + , . . . # ; ; ; > V J Q y./ ^ 4.9.1.s.s.s.f.f.g.g.` b =.ZX",
"V.O.q = = 9 = & o ; ; 1 2 < Y #.g   # # ; ; # . & % 4 $ * 4 4 # . # . , # = = = 1 ; ; 5 V J ~ s.` ` 9.4.4.9.g.s.f.f.g.s.#.b =.ZX",
"V.=.9 O 1 O . X 0 9 9 3 = = z *.K   0 X + 0 X X = # < < < 1 1 ; . ; # ; X X X X 0 X ; 8 K R 9.a.` ` ` 9.9.9.s.s.s.s.a.s.8.z g.GX",
"C.=.q + + + X 0 0 9 , O 1 - h ` I X + X 0 0 . . . # 1 = # 3 1 X & ; # , = O 0 + 0 ; : n Z Z s.s.` ` ` s.9.9.s.s.s.s.s.9.8.b }.GX"
};
