/* XPM */
static char *_310c897451943c49eacd83dbc0c6a8bjm7lReYY7U2idYbI[] = {
/* columns rows colors chars-per-pixel */
"64 64 4 1 ",
"  c #343330",
". c #4D4B46",
"X c #5E5C55",
"o c #7C7A70",
/* pixels */
"XXXXXXXXXXXXXXXXXXXXXXXXX..    XXXXXXXXXXXXXXXXXXXXXXXX    XXXXX",
"XXXXXXXXXXXXXXXXXXXXXXXXX..    XXXXXXXXXXXXXXXXXXXXXXXX    XXXXX",
"XXXXXXXXXXXXXXXXXXXXXXX..      XXXXXXXXXXXXXXXXXXXXXXXX    XXXXX",
"XXXXXXXXXXXXXXXXXXXXXXX..      XXXXXXXXXXXXXXXXXXXXXXXX    XXXXX",
"XXXXXXXXXXXXXXXXXXXXX....      XXXXXXXXXXXXXXXXXXXXXXXX    XXXXX",
"XXXXXXXXXXXXXXXXXXXXX....      XXXXXXXXXXXXXXXXXXXXXXXX    XXXXX",
"XXXXXXXXXXXXXXXXXXX....        ....XXXXXXXXXXXXXXXXXXXX    XXXXX",
"XXXXXXXXXXXXXXXXXXX....        ....XXXXXXXXXXXXXXXXXXXX    XXXXX",
"XXXXXXXXXXXXXXX......      oo    ....XXXXXXXXXXXXXX....oooo..XXX",
"XXXXXXXXXXXXXXX......      oo    ....XXXXXXXXXXXXXX....oooo..XXX",
"XXXXXXXXXXX........      oooooo  ......XXXXXXXXXXXX....oooooo...",
"XXXXXXXXXXX........      oooooo  ......XXXXXXXXXXXX....oooooo...",
".......oooo              ooXXoooooo................ooooooXXoo...",
".......oooo              ooXXoooooo................ooooooXXoo...",
".....oooooo            ooXXXXXXoooooooo............ooooXXXXXXoo.",
".....oooooo            ooXXXXXXoooooooo............ooooXXXXXXoo.",
"   oooooooo          ooooXXXXXXXXXXoooooooooooo    XXXXXXXXXXXX ",
"   oooooooo          ooooXXXXXXXXXXoooooooooooo    XXXXXXXXXXXX ",
"   ooooXXXX        ooooXXXXXXXXXXXXXXXXoooooooo    XXXXXXXXXXXX ",
"   ooooXXXX        ooooXXXXXXXXXXXXXXXXoooooooo    XXXXXXXXXXXX ",
"   XXXXXXXX        XXXXXXXXXXXXXXXXXXXXXXXXXXXX    XXXXXXXXXXXX ",
"   XXXXXXXX        XXXXXXXXXXXXXXXXXXXXXXXXXXXX    XXXXXXXXXXXX ",
"   XXXXXXXX        XXXXXXXXXXXXXXXXXXXXXXXXXXXX    XXXXXXXXXX.. ",
"   XXXXXXXX        XXXXXXXXXXXXXXXXXXXXXXXXXXXX    XXXXXXXXXX.. ",
"oooXXXXXXXX        ....XXXXXXXXXXXXXXXXXXXX....    ..XXXXXX     ",
"oooXXXXXXXX        ....XXXXXXXXXXXXXXXXXXXX....    ..XXXXXX     ",
"oooXXXXXXXX        ....XXXXXXXXXXXXXXXXXXXX....    ......XX    o",
"oooXXXXXXXX        ....XXXXXXXXXXXXXXXXXXXX....    ......XX    o",
"ooo........        XXXXXXXXXXXXXXXXXXXXXXXXXXXX      ......ooooo",
"ooo........        XXXXXXXXXXXXXXXXXXXXXXXXXXXX      ......ooooo",
"Xoo......          XXXXXXXXXXXXXXXXXXXXXXXXXXXX          ..ooooX",
"Xoo......          XXXXXXXXXXXXXXXXXXXXXXXXXXXX          ..ooooX",
"XXX                XXXXXXXXXXXXXXXXXXXXXXXXXXXX            XXXXX",
"XXX                XXXXXXXXXXXXXXXXXXXXXXXXXXXX            XXXXX",
"XXX                XXXXXXXXXXXXXXXXXXXXXXXXXXXX            XXXXX",
"XXX                XXXXXXXXXXXXXXXXXXXXXXXXXXXX            XXXXX",
"X..                XXXXXXXXXXXXXXXXXXXXXXXXXX              XXXXX",
"X..                XXXXXXXXXXXXXXXXXXXXXXXXXX              XXXXX",
".                  XXXXXXXXXXXXXXXXXXXXXX....              XXXXX",
".                  XXXXXXXXXXXXXXXXXXXXXX....              XXXXX",
".    oooo          ..XXXXXXXXXXXXXXXXXX....      oooo      XXXXX",
".    oooo          ..XXXXXXXXXXXXXXXXXX....      oooo      XXXXX",
" oooooooooooo        ..XXXXXXXXXXXXXX....    oooooooooo    XXXXX",
" oooooooooooo        ..XXXXXXXXXXXXXX....    oooooooooo    XXXXX",
" ooooXXXXoooo        ....XXXXXXXXXX....    ooooooXXXXXX    XXXXX",
" ooooXXXXoooo        ....XXXXXXXXXX....    ooooooXXXXXX    XXXXX",
"oXXXXXXXXXXXXoooo      ....XXXXXX....      ooXXXXXXXXXX    XXXXX",
"oXXXXXXXXXXXXoooo      ....XXXXXX....      ooXXXXXXXXXX    XXXXX",
"oXXXXXXXXXXXXoooooooo    ..........        XXXXXXXX....    XXXXX",
"oXXXXXXXXXXXXoooooooo    ..........        XXXXXXXX....    XXXXX",
"XXXXXXXXXXXXXXXXXoooooo  ........          XXXXXXXX....    XXXXX",
"XXXXXXXXXXXXXXXXXoooooo  ........          XXXXXXXX....    XXXXX",
"XXXXXXXXXXXXXXXXXXXXXoooooooooo            ........      XXXXXXX",
"XXXXXXXXXXXXXXXXXXXXXoooooooooo            ........      XXXXXXX",
"XXXXXXXXXXXXXXXXXXXXXXXoooooooo            ........      XXXXXXX",
"XXXXXXXXXXXXXXXXXXXXXXXoooooooo            ........      XXXXXXX",
"XXXXXXXXXXXXXXXXXXXXXXXXXXXoooooo        oooooooooo    XXXXXXXXX",
"XXXXXXXXXXXXXXXXXXXXXXXXXXXoooooo        oooooooooo    XXXXXXXXX",
"XXXXXXXXXXXXXXXXXXXXXXXXXXXXXXXoo        oooooooooo    XXXXXXXXX",
"XXXXXXXXXXXXXXXXXXXXXXXXXXXXXXXoo        oooooooooo    XXXXXXXXX",
"XXXXXXXXXXXXXXXXXXXXXXXXXXXXXXXXXXX    ooooXXXXXXXXoooooo..XXXXX",
"XXXXXXXXXXXXXXXXXXXXXXXXXXXXXXXXXXX    ooooXXXXXXXXoooooo..XXXXX",
".XXXXXXXXXXXXXXXXXXXXXXXXXXXXXXXXXX    XXXXXXXXXXXXoooooo......X",
".XXXXXXXXXXXXXXXXXXXXXXXXXXXXXXXXXX    XXXXXXXXXXXXoooooo......X"
};
