/* XPM */
static char *b993187a601943b2f8b549a7161a5883aQjuidUHaWu5qxUG[] = {
/* columns rows colors chars-per-pixel */
"64 64 240 2 ",
"   c #06050A",
".  c #09070D",
"X  c #0A080E",
"o  c #150C0E",
"O  c #1D100F",
"+  c #0D0B14",
"@  c #0F0D18",
"#  c #120D14",
"$  c #190F11",
"%  c #110F19",
"&  c #1A1012",
"*  c #13111D",
"=  c #1B141C",
"-  c #25130F",
";  c #2B1611",
":  c #261718",
">  c #341B15",
",  c #37211B",
"<  c #161423",
"1  c #191625",
"2  c #1A1828",
"3  c #1C1A2C",
"4  c #1E1D32",
"5  c #241C24",
"6  c #281D27",
"7  c #361B25",
"8  c #221F33",
"9  c #211F38",
"0  c #2A2128",
"q  c #2D242B",
"w  c #33232A",
"e  c #3B252C",
"r  c #352829",
"t  c #3B2B2D",
"y  c #232135",
"u  c #25233A",
"i  c #2B2739",
"p  c #342C33",
"a  c #3C2C32",
"s  c #3B3238",
"d  c #472A19",
"f  c #4F311C",
"g  c #44262D",
"h  c #442D33",
"j  c #4D2F32",
"k  c #4B2B35",
"l  c #5F2532",
"z  c #433135",
"x  c #44343A",
"c  c #4C353B",
"v  c #49373C",
"b  c #54363D",
"n  c #2B2944",
"m  c #2B2A45",
"M  c #312C43",
"N  c #312E4A",
"B  c #343149",
"V  c #353553",
"C  c #393858",
"Z  c #3B3B5B",
"A  c #3D3E62",
"S  c #473B45",
"D  c #4C3B43",
"F  c #533C42",
"G  c #5B3C44",
"H  c #413C5D",
"J  c #6F3B48",
"K  c #3F405E",
"L  c #3F4165",
"P  c #4B4146",
"I  c #4E434C",
"U  c #554146",
"Y  c #54434B",
"T  c #5C444B",
"R  c #4A4357",
"E  c #584A56",
"W  c #5C525C",
"Q  c #61454C",
"!  c #63454C",
"~  c #6A454D",
"^  c #6B494F",
"/  c #724E4B",
"(  c #644D54",
")  c #6D4B52",
"_  c #744B55",
"`  c #724D54",
"'  c #6C535B",
"]  c #685458",
"[  c #75535B",
"{  c #76565A",
"}  c #7A555C",
"|  c #464669",
" . c #5C5363",
".. c #4D4F76",
"X. c #53557A",
"o. c #685965",
"O. c #635B6C",
"+. c #7C5660",
"@. c #755C62",
"#. c #7C5B62",
"$. c #655E75",
"%. c #6E656D",
"&. c #76656A",
"*. c #7D646B",
"=. c #6A6275",
"-. c #6E667B",
";. c #776B76",
":. c #7C7077",
">. c #8A3741",
",. c #874B56",
"<. c #8D4F57",
"1. c #A24C55",
"2. c #825D64",
"3. c #875D67",
"4. c #945C65",
"5. c #84636B",
"6. c #86656B",
"7. c #8A656C",
"8. c #92666D",
"9. c #876972",
"0. c #856C73",
"q. c #8C6B73",
"w. c #926D75",
"e. c #956D77",
"r. c #84747B",
"t. c #897679",
"y. c #8B747A",
"u. c #93747B",
"i. c #96787C",
"p. c #A66069",
"a. c #96807E",
"s. c #585C85",
"d. c #5D6189",
"f. c #5D6491",
"g. c #65678B",
"h. c #756D84",
"j. c #7B7385",
"k. c #7C748A",
"l. c #696D95",
"z. c #6F7398",
"x. c #767698",
"c. c #6B74A3",
"v. c #767BA5",
"b. c #8E7C82",
"n. c #857989",
"m. c #957B83",
"M. c #9B7C83",
"N. c #987A85",
"B. c #837C93",
"V. c #877F96",
"C. c #A27B86",
"Z. c #7B86B8",
"A. c #988288",
"S. c #9E8289",
"D. c #8B8295",
"F. c #8A849C",
"G. c #988994",
"H. c #98909A",
"J. c #A3838B",
"K. c #A4878B",
"L. c #A48993",
"P. c #A48B92",
"I. c #AF8D93",
"U. c #AA8C94",
"Y. c #A79399",
"T. c #AC929B",
"R. c #B2949C",
"E. c #8C87A4",
"W. c #928DA7",
"Q. c #9893AC",
"!. c #9C98B3",
"~. c #A89AA7",
"^. c #B59BA5",
"/. c #A39DB8",
"(. c #ACA4AB",
"). c #B8A3A9",
"_. c #A8A2B9",
"`. c #B7AAB7",
"'. c #BAB2BB",
"]. c #C39296",
"[. c #C2ACB7",
"{. c #C8ACB3",
"}. c #C7B6BB",
"|. c #8B96C5",
" X c #99A3CE",
".X c #ABA9C5",
"XX c #BBB8C8",
"oX c #B0B3D1",
"OX c #C4B4C3",
"+X c #C4BCC3",
"@X c #C8BBC6",
"#X c #D1BEC2",
"$X c #BEC2D8",
"%X c #C9C7C6",
"&X c #C6C5CB",
"*X c #CCCACC",
"=X c #D4C5C8",
"-X c #D1CECB",
";X c #DACACD",
":X c #D5D1CC",
">X c #D8D5CF",
",X c #C3C4D3",
"<X c #C6C8D7",
"1X c #CBCBD3",
"2X c #CBCDDB",
"3X c #D3CED5",
"4X c #CED1DE",
"5X c #D9D5D3",
"6X c #D9D6D5",
"7X c #D4D3DB",
"8X c #DAD6DA",
"9X c #E1DCD9",
"0X c #E5E2DD",
"qX c #E9E6DF",
"wX c #D1CFE1",
"eX c #D4D4E2",
"rX c #DBDAE4",
"tX c #DBDBE8",
"yX c #E2DDE5",
"uX c #DFE0EB",
"iX c #EAE6E1",
"pX c #ECE9E4",
"aX c #E2E2EB",
"sX c #E8E4E8",
"dX c #ECEAED",
"fX c #E5E5F4",
"gX c #EDEBF3",
"hX c #ECECFA",
"jX c #F1EEF5",
"kX c #F0EFFA",
"lX c #F4F1F6",
"zX c #F5F4FA",
"xX c #F8F6F8",
"cX c #F9F6FB",
"vX c #FAF9FE",
"bX c #FDF9FE",
"nX c #FCFAFF",
"mX c #FCFCFF",
"MX c #FDFCFF",
"NX c #FFFEFF",
/* pixels */
"nXnXnXvXcXzXvXvXvXvXnXhXgXxXxXhXhXhXhXjXfXhXhXhXcXkXhXfXfXfXeX2X@X@XwXyXfXcXnXmXmXmXmXmXmXmXmXmXmXmXmXmXmXmXmXmXdXpXqXqX>X%X%X+X",
"nXnXnXnXnXvXvXvXvXvXmXhXgXnXnXcXlXzXnXcXkXhXhXkXnXhXwXoX.X/.Q.Q.Q.|. X/..X@XyXcXmXmXmXmXmXmXmXmXmXmXmXmXmXmXmXxXdXqXqX0X:X%X%X%X",
"nXnXnXnXmXnXvXnXzXvXvXkXgXcXmXnXnXzXnXnXkXhXfXhXjX@X~.V.E.W.Q.W.V.E.W.E.E.!..XoXeXlXmXmXmXmXmXmXmXmXmXmXmXmXmXlXdXqXqX0X-X%X%X%X",
"nXnXnXnXnXnXnXmXvXzXvXkXjXxXmXmXnXcXnXnXnXhXfXwXXXW.F.V.E.V.E.V.V.E.B.V.V.E.Q.!._.XXrXmXmXmXmXmXmXmXmXmXmXmXmXlXpXqXqXqX%X%X-X%X",
"vXnXvXmXmXmXmXmXnXnXnXzXjXjXnXmXmXmXmXnXmXjX,X!.W.B.n.B.E.k.V.B.B.V.B.h.V.E.W.Q.!.!..XeXcXmXmXmXmXmXmXmXmXmXnXdXpXqXqX6X%X%X:X:X",
"vXcXvXvXmXmXmXmXnXnXnXzXjXjXxXmXmXmXmXxXgXXXF.h.B.k.n.n.B.B.h.k.h.h.h.j.k.V.V.E.Q.!._..XeXmXmXmXmXmXmXmXmXmXxXdXpXqXqX:X:X:X>X>X",
"vXvXvXvXmXmXmXmXmXmXnXcXjXjXjXcXmXmXmXzX'.k.h.-.h.n.B.D.k.j.h.;.h.$.-.h.$.B.V.V.F.W.Q.W..XtXmXmXmXmXmXmXmXmXzXdXqXqX0X:X:X:X>X5X",
"vXvXvXvXmXvXmXmXmXmXmXjXjXjXjXxXmXmXmX*Xh.=. .=.;.n.n.B.h.h.-.$.$.$.$.-.h.n.B.V.B.x.F.F.B._.lXmXmXmXmXmXmXmXgXpXqXqX0X:X-X>X5X7X",
"vXvXvXmXvXvXvXmXmXmXmXlXjXjXjXlXzXmXsXD. . . .-.-.n.n.h.-.-.O.O.$. .$.$.-.n.V.n.V.n.B.V.h.x.@XmXmXmXmXmXcXzXlXpXqXqX0X:X-X:X6X8X",
"vXvXvXmXmXvXmXmXmXmXmXlXgXgXjXjXlXdX~.W O. .=.;.r.h.9.;.o. . ... .E o.$.$.n.V.V.n.n.k.B.k.g.F.8XmXmXmXmXmXlXdXpXqXqX:X-X:X:X6XyX",
"vXvXmXmXvXvXvXmXmXmXmXjXgXgXjXjXdX%XW I  .=.-.;.h.0.;.=. .E E E F E E  .o.n.V.G.V.n.B.h.h.$.$.H.zXmXmXmXmXgXgXpXqXqX>X:X:X6X6XrX",
"vXvXvXmXvXvXvXmXmXmXmXjXgXgXjXjX8XD.C R  .-.-.;.n.n.n.O.E G F S H H G E o.;.b.F.C.n.B.h.h.$. .-.sXmXmXcXzXgXpXpXqXqX>X:X:X6X6XeX",
"vXzXvXvXvXvXmXmXmXnXnXjXgXgXjXjX8X;.R E o.=.o.;.b.N.;.o.E S S S F F Y E o.@.r.N.V.N.W.N.W.n.o.O.%XmXmXmXlXgXpXpXqX0X:X:X5X6XeX4X",
"vXvXvXvXvXvXvXvXmXmXcXjXgXgXlXxX8XO.I o.;.*.;.j.N.V.*.' G D S S S F G ( ' } 9.n.B.Y.^._.[._.V.$.`.cXmXmXgXzXpXpXqX0X:X:X6X:X4X<X",
"vXvXvXvXvXvXmXmXmXmXcXzXjXjXxXcX1X .Y n.b.b.N.N.L.V.*.( G S h S x F Q ) [ @.5.0.N.T.`.OXOXOX.XB.~.cXmXxXdXdXpXqXqX0X:X:X:X*X<X<X",
"vXvXvXvXvXmXmXmXmXmXnXzXxXxXxXcX+XW %.L.L.L.~.H.T.N.9.' ! G D D b F Q ) _ +.3.9.N.L.^.`.OXOXOX~.Q.lXmXlXdXdXpXqXqX>X%X%X%X*X,X<X",
"vXvXnXnXnXvXmXvXmXmXmXcXlXxXxXcX}.o.t.T.T.R.^.T.Y.N.9.@.) ( G G G ! ^ ^ _ { 2.q.N.G.T.^.^.OX@X_.!.dXmXdXgXdXpXqXqX:X%X%X%X1X<X4X",
"vXvXvXmXvXnXmXmXmXmXmXcXxXcXxXnX%X&.A.Y.T.^.R.~.Y.N.5.+.) _ ) ~ ~ ~ ) _ _ { 5.q.e.N.C.T.^.XX@X`.(.sXmXgXgXaX0X0X9X:X-X-X:X1X2XtX",
"vXvXvXmXnXnXmXmXmXmXmXcXxXxXcXnX'.&.A.U.U.R.^.P.N.q.3.+.[ ' _ ) ) ^ ) _ _ { +.2.#.7.u.M.T..XOX'.`.aXzXdXdXiX0XqX0X:X*X*X*X1X2XtX",
"vXvXmXmXnXmXmXmXmXmXnXxXxXxXcXcX+X;.m.K.U.T.T.G.N.m.9.+._ ) ) ~ ^ ) ) / ` _ } 2.9.e.N.C.C.R.}.'.'.aXlXfXfXpXiXiX9X-X*X-X*X<X4XuX",
"lXhXcXmXnXnXmXmXmXmXmXlXxXxXxXcX}.:.i.J.K.U.L.J.N.b.3.} ` ) _ ) ) _ ) _ _ { 2.3.3.9.w.y.S.T.`.`._.rXgXgXdXpXqXiX6X*X*X*X*X<X4XuX",
"dX'.&XsXcXnXmXmXcXmXmXnXxXxXxXnX+Xr.t.J.K.J.S.y.9.+.` ) ~ ~ ~ ) ) ) ) ~ ^ _ / _ +.3.9.q.i.T.).).'.5XgXgXdXpXiXqX6X:X:X*X2X4X4XuX",
"dXY.n.H.XXyXlXmXmXmXmXnXmXnXcXmX+X:.i.A.M.N.N.N.m.9.3.+.[ ` ) ) ~ ~ ~ _ { +.+.2.q.q.9.w.i.U.^.).`.7XgXgXdXiXqXqX6X>X>X*X*X4XeXuX",
"dXn.W &.t.G.'.7XlXnXmXmXmXmXmXmX+Xr.t.M.M.M.N.N.w.9.5.2.[ +.+._ _ _ 2.2.3.5.3.7.q.w.w.q.S.Y.^.).(.*XgXgXpXiXqX0X6X6X*X*X*X1XeXuX",
"sX;.s E &.&.:.a.(.:XpXlXmXmXmXmX%Xr.t.A.i.J.i.m.M.m.q.2.+.+.+.[ { } +.2.2.3.q.u.N.M.N.i.S.^.).).`.1XgXgXpXqXqX0X>X-X*X*X<X<XtXaX",
"sX%.a ( @.] ] &.:.t.H.&XaXxXmXmX*Xt.A.K.S.C.M.J.P.L.N.w.9.#.+.[ _ { 2.3.7.7.e.N.N.M.P.S.S.^.`.[.OX3XgXgXpXqXqX9X-X*X*X1X<X1XtXdX",
"iX;.v &.a./ &.] W W %.r.H.'.8XxX6XA.K.K.J.J.J.T.L.G.N.q.3.#.3.+.+.5.5.2.2.2.7.q.e.u.N.P.Y.`.[.}.}.7XyXyXaXpXqX>X*X%X*X*X<X2XuXaX",
"sX&.b t.a.t.a.] P P P W o.H.'.'.`.A.P.K.L.U.T.N.b.q.9.5.+.+.+.[ { 2.} { } [ +.+.o.} *.b.G.[.@X@X'.^.U.i.{.pXqX:X%X*X1X4X2X4XuXfX",
"8X&.U K.).a.Y.&.s s s s W '.}.).H.t.U.P.U.U.b.@.~ T ( +.+.) _ ) ~ ` ` ) ) ) T F x D G ( *.Y.@X+X^.3.<.<.].qXqX-X%X*X1X:X4X4XuXdX",
"0X;.( Y.}.Y.).&.s s p p ( w.p.8.u.t.U.U.U.t.( F h a e c T ( ' ) ! ) ) ~ T z a 7 w e h F ( r.).OX~.2.<.p.}.pX9X%X*X*X*X4X2X4XuXuX",
"8X:.' ).#X).}.:.p p p p Y 1.1.2.2.6.U.U.t.[ T b a 7 6 6 a D ! ) Q ! ) T c e 6 5 5 7 e z T *.Y.OX^.4.4.I.6XpX6X&X%X*X*X<X4X4XuXuX",
"8Xr.&.).#X).#X&.i p s s U <.1.p.4.6.Y.P.5.] F p q 5 = 5 6 g G ) G G ~ Q h 6 6 : = p S c v @.K.OX`.<.,.I.qXqX6X%X%X&X*X2X<XtXuXuX",
">Xt.*.{.:X}.}.:.1 0 p s b 3.1.8.4.8.R.U.9.! t P D 5 5 6 w 7 c ` ~ ! / b 7 w p 6 5 p o.( ( @.K.OX@X<.>.K.iX0X:X&X&X%X<X<X2XrXyXtX",
"9Xt.t.{.:X}.;X0.0 0 x s U 2.8.<.>.4.R.K.u.' ( @.o.i 6 p w w k @.} { { b e 7 a t p F ) 0.m.u.P.[.#X4.J I.iX0X:X&X%X&X*X<X<XeXyXrX",
">Xa.w.#X=X}.=X9.0 0 v P ( G.T.,.>.4.R.U.A.t.y.*.( D a e e e F 9.7.5.3.b h 7 e g h F ( 6.S.K.Y.'.`.4.>.}.pX0X-X&X%X*X&X,X<XtXtX7X",
"5Xa.a.#X;X#X:Xt.r s D v o.*X8Xw.>.4.U.U.J.M.t.*.! F k g e h ) N.M.e.e./ k e e g k G ^ } u.A.R.}.^.4.i.9XpX8X*X*X&X*X<X<X2XaXaX7X",
">Xi.a.%X;X=X;Xa./ / ] P %.:XdX^.,._ C.T.J.i.t.7.[ G v g k T 9.L.C.e.K.4.! c h k b ! / { 7.M.T.}.~.C.@XiXiX5X-X*X*X1X<X,X2XuXuX7X",
"3XA.A.}.>X}.;Xa.v ] &.] :.6XdX}.C.4.e.U.J.M.q.5.+.! F b G #.N.T.C.e.K.i.2.^ b b b Q / { 5.i.U.`.P.^.9XpXiX3X*X1X*X1X&X,X2XtXaX4X",
"'.a.a.}.=X=X>X:.r P Y.a.t.6XfX&X{.J.w.A.C.i.q.#.[ ~ ! ) 9.N.C.R.i.e.C.K.w.2.` / ^ ~ / / 2.8.S.~.N.).sXpX9X-X*X*X*X1X2X<X7XtXaX1X",
"H.t.S.}.-X%X:X%.5 v Y.a.A.6XtX'.[.K.q.i.i.i.q.#.} @.@.0.N.C.R.R.C.e.K.I.i.7.2.} } ` ` { } 5.M.Y.N.~.<XtXrX1X*X*X&X*X,X,X4XtXtX3X",
"D.t.K.%X=X=X;X%.3 s t.i.a.%X$XQ.W.K.q.q.N.e.9.2.3.5.9.q.N.J.R.R.i.e.I.].C.e.8.2.2.,.{ } 2.6.N.A.r.k.c.|. X XoXoXXX&X$X$XeXuXtX<X",
"D.A.P.#X:X=X;X%.q I R.Y.D.W.E.z.l.N.e.#.e.q.q.9.9.q.q.w.M.J.I.^.K.i.I.R.K.M.e.7.7.2.{ 2.#.6.A.n.$.| ..f.Z.|.|.|.oXoX$X4XuXfXeX<X",
"H.b.Y.=X;X=X;X%.i  .~.W.Z.Z.g.g.d.d.o.G 0.w.q.q.q.e.e.e.e.C.R.{.C.i.R.{.I.e.8.e.w.3.2.2.#.9.b.=...| V L d.c.c.f.c.Z. XoX$XtXeX,X",
"A.:.G.-X;X=X:X:.-.x.v.c.g.g.d.=.X...V S ;.y.9.w.e.m.e.3.2.N.^.^.e.8.C.{.).8.} 7.i.w.6.2.@.0.:.R A | A L L L A s.f.c.Z.Z.|. XoXoX",
":.t.G.}.;X+X.XE.x.x.z.l.g.s.X.....| y i ] 0.b.u.N.i.8.} _ C.).P.e.4.N.R.OXC.~ ,.w.i.w.8.*.&.;.R N A m 4 m A s.f.f.f.c.c.Z.Z.Z.|.",
":.t.U.=X+XQ.v.z.l.g.g.d.s...A C Z V 4 8 D *.y.N.C.M.3.~ _ R.^.N.3.,.7.C.{.)._ ) 4.K.S.t.&.&.=.R m N m m 2 9 9 V A A A s.f.c.c.c.",
";.r.G.(.F.z.g.g.d.d...C V N n N N n 2 4 N o.q.N.L.N.+.J 2.C.L.w.#.+.+.q.I.C.+._ 2.i.K.i.&.&.R L m m 9 m 9 3 4 9 V A Z A L L s.f.",
";.j.x.x.g.d.X.X.X.| C n y 4 4 m N 8 < 8 B E 0.N.S.m.[ _ 9.m.u.q.+.[ +.3.e.q.3._ ,.i.I.i.6.E t Z m u 4 9 m 9 u m m N A A L V A s.",
"x.x.h.d.X...L | K K n 4 4 y y n N 3 * 4 B B o.a.A.q.{ { q.0.5.*.{ ` @.{ { *.*.{ ` 7.K.t.%.q 3 Z m u 8 9 m 9 9 m m N V Z A V m N ",
"l.g.X...L Z | K B M y u 4 2 2 n n * % u B 0 U t.i.*.' ' *.@.] T E ( ( b T ] / ^ ] *.m.r.Y + = Z N 9 3 9 u 4 3 4 < < 3 9 N V m u ",
"$.X...R V V Z m y * * 2 4 2 2 m 3 @ * y M 3 s :.*.&.] ! ( Y c x a r t z c G U b T { t.&.q X # B N 9 < 4 u 9 < 3 < @ @ @ 2 m 9 4 ",
"..| K Z V V B 3 2 + X * 2 < y m * % * y M 3 5 ] @.{ T U U z z t q : : t t h c g v ' 9.W # X X i N 9 * * 9 9 3 2 3 @ + + @ 9 9 3 ",
"| K Z V V V m 3 1 + X < < * y u @ * * 4 s 3 # P ] ] U z v v k e 7 : 6 w k c k t v ( %.q X o X y N 9 * @ 9 9 8 3 2 * @ + + 2 9 4 ",
"K Z B B u 2 4 < 1 @   * * * n 2 X < % 2 n 5   0 E U F F F F F c c c c j k j c c z U P $ X o o 8 N 9 @ + 8 8 3 3 3 < @ . + * 2 3 ",
"B 4 2 3 2 2 2 < * + X * < 2 u * + 1 @ < i 3 X & x P T ] ] T k 7 7 7 > 7 g b T U x S s o o $ o 5 N 8 + + < 8 * 2 3 < @ + + * 2 3 ",
"u 2 * < 2 < 2 < *   X * 3 y 4 * @ 2 + * i 3 X X p s P ( ' ' G g 7 7 7 g b ! ! v r x q o O o o * M 3 + X * 8 1 1 2 * + . + * 2 4 ",
"y 3 * 1 1 < 1 * +   X + 2 8 < + * 1   + y 8 + X = p p U ] [ ! b l g k l G G G i r x 5 O - & & = u 2 + X * 3 3 * * @ + . . @ 4 2 ",
"y 3 * * < < < * +     + < 2 % % < < X X 3 8 o X o 0 p a U ( ! b k l k F G G a 7 s t ; ; - O = 5 3 < X + # 2 < * < @ + . . @ * < ",
"4 < * * < * * +     X X 1 * % % * * X   5 y # X o : s x D F U b k h k D c z w p t , > ; - - 0 q 2 * + X @ * * * * @ . . . + @ @ ",
"4 < * * * * * + .     X * * + + * *     < y * $ o O q P Y v b v g e h k z a a r , d > ; - : r q = # X + % * = % @ @ . . . . + * ",
"4 < * % * * + X X       % * + % * #     % 8 * = & O ; s P P v v z h z z h t p , d d ; ; - : s p = @ + + + * * % @ + . . . . @ @ ",
"3 * % % + % + X X     X + * + % * %     + 3 = : q & ; , P P z z r r t t a t f f d d > ; ; , s s * # X + + * % % @ + . . . . + @ ",
"2 * + % % % + X         X * % + * #       2 1 5 x a & ; , v s r r : 5 r t v f d d > > ; ; r s s 5 @ X + @ # * @ + . . . . . . @ ",
"3 % + + + % + X         + * + % % %       * 2 1 P P 0 - , , z r r , , r f f d d d > > ; ; r P P p % X X + @ % @ @ . . . . . . + "
};
