/* XPM */
static char *a5ba89e48c424b8bc2636aef4cafb359pU8qOqR9Boa2N8b0[] = {
/* columns rows colors chars-per-pixel */
"64 64 194 2 ",
"   c None",
".  c #0C0601",
"X  c #0D0803",
"o  c #120600",
"O  c #130A03",
"+  c #1B0E06",
"@  c #150E09",
"#  c #180E08",
"$  c #1C110A",
"%  c #1C1510",
"&  c #260E07",
"*  c #23140B",
"=  c #2E180D",
"-  c #2B150C",
";  c #30190F",
":  c #241B13",
">  c #291911",
",  c #351C10",
"<  c #3A1E12",
"1  c #3C2214",
"2  c #37261D",
"3  c #262F2B",
"4  c #342A23",
"5  c #3E2D26",
"6  c #21302C",
"7  c #3D342D",
"8  c #651C15",
"9  c #4E2D1D",
"0  c #46281F",
"q  c #502C1A",
"w  c #5A311F",
"e  c #57301F",
"r  c #64211C",
"t  c #502720",
"y  c #4B3426",
"u  c #543122",
"i  c #5B3524",
"p  c #5B3D2E",
"a  c #413A34",
"s  c #5E3E31",
"d  c #623622",
"f  c #6C3B25",
"g  c #6B3D28",
"h  c #653A28",
"j  c #723E27",
"k  c #584539",
"l  c #7C442B",
"z  c #764128",
"x  c #784832",
"c  c #4F4842",
"v  c #5A524C",
"b  c #595551",
"n  c #784541",
"m  c #635C57",
"M  c #6A5E56",
"N  c #716158",
"B  c #6D6863",
"V  c #736E6A",
"C  c #96352A",
"Z  c #A42E29",
"A  c #AA2F2A",
"S  c #B32E29",
"D  c #AB312C",
"F  c #AE3B2E",
"G  c #A5302C",
"H  c #B2332D",
"J  c #BC322C",
"K  c #B83A2F",
"L  c #AC3B31",
"P  c #A83B36",
"I  c #BF3B34",
"U  c #B23E39",
"Y  c #C4342D",
"T  c #CB362E",
"R  c #D3372F",
"E  c #DA372F",
"W  c #DB382F",
"Q  c #C43630",
"!  c #CA3730",
"~  c #CC3932",
"^  c #CD3F38",
"/  c #D23730",
"(  c #D43931",
")  c #DA3932",
"_  c #D23F38",
"`  c #DF3F38",
"'  c #83472B",
"]  c #86492E",
"[  c #8D4D2F",
"{  c #89432D",
"}  c #90402D",
"|  c #864C32",
" . c #8C4E31",
".. c #8F5134",
"X. c #945234",
"o. c #9B5535",
"O. c #9E5836",
"+. c #9F5B3B",
"@. c #A3432F",
"#. c #A94632",
"$. c #BB443E",
"%. c #A25534",
"&. c #A55A37",
"*. c #A85C37",
"=. c #A95C38",
"-. c #C3443E",
";. c #CE433C",
":. c #D2423B",
">. c #844843",
",. c #805642",
"<. c #91534F",
"1. c #885C5B",
"2. c #9B5B59",
"3. c #AA4844",
"4. c #A74E4A",
"5. c #B64A45",
"6. c #BA4F4A",
"7. c #B64A45",
"8. c #A8524E",
"9. c #B3504B",
"0. c #BB524D",
"q. c #AC5551",
"w. c #AF5E5A",
"e. c #A35956",
"r. c #B95752",
"t. c #B45B56",
"y. c #B85A56",
"u. c #BA5D59",
"i. c #B15E5A",
"p. c #91605E",
"a. c #A3625F",
"s. c #AE625E",
"d. c #B2625E",
"f. c #BA625D",
"g. c #916A68",
"h. c #807C79",
"j. c #AE6662",
"k. c #AB6D6A",
"l. c #AB6865",
"z. c #B16561",
"x. c #B36965",
"c. c #B36E6A",
"v. c #AC716E",
"b. c #A7706D",
"n. c #B8796F",
"m. c #AB7572",
"M. c #A67977",
"N. c #B27673",
"B. c #B27875",
"V. c #C94640",
"C. c #CA4B44",
"Z. c #C94D47",
"A. c #D14A43",
"S. c #CE544E",
"D. c #C65650",
"F. c #C35953",
"G. c #CF5650",
"H. c #C7625E",
"J. c #C46965",
"K. c #CC716C",
"L. c #C67C78",
"P. c #D27773",
"I. c #84807C",
"U. c #B08069",
"Y. c #8C8B89",
"T. c #898684",
"R. c #948D8A",
"E. c #9B9A99",
"W. c #A58E8E",
"Q. c #BD8684",
"!. c #B99685",
"~. c #BB9492",
"^. c #ADABA9",
"/. c #B1B0AE",
"(. c #BEBFBE",
"). c #CA8784",
"_. c #D08A86",
"`. c #D49895",
"'. c #C59997",
"]. c #C2AEAE",
"[. c #DBAEAC",
"{. c #CCBABA",
"}. c #DDBDBB",
"|. c #DEB4B2",
" X c #D5C0BD",
".X c #C8C3C2",
"XX c #D8CDCC",
"oX c #DCD7D7",
"OX c #E2C6C5",
"+X c #E4D1CF",
"@X c #E3D2D1",
"#X c #EBDAD9",
"$X c #F2E9E8",
"%X c #F9F9F9",
/* pixels */
"                                                                                                                                ",
"                                                                                                                                ",
"                                                                @ O @ % @                                                       ",
"                                                            : $ @ @ $ > 2 O X                                                   ",
"                                                          O @ * 9 j ' ] [ 9 #                                                   ",
"                                                        O $ * j &.=.=.=.*.&.d                                                   ",
"                                                    X . O $ i *.*.*.*.&.&.*.o.                                                  ",
"                                                    . . @ $ | %.l z [ &.*.*.&.                                                  ",
"                                                  . . . : 0 l d i d d X.*.] z                                                   ",
"                                                  . . = z g z q p i q f ' w w 2                                                 ",
"                                                  . . , | O.' e M N p h k k y 3                                                 ",
"                                                  . . O ,  .o.' h s i [ n N k 6                                                 ",
"                                                  . . . * X.o.*.&.o.X.*. .x g             X...                                  ",
"                                                  . . . + [ o.o.&.' d j ] o.o.            X.X.                                  ",
"                                                  . . . * [ *.%.q + & - ; l       | | ..X.| O.                                  ",
"                                                        < X.X...- f  .z * *       X.*.X.&.&.&.                                  ",
"                                X.|                     C &.o.f 1 X.j l d           ..&.*.&.&.                                  ",
"                                O.X.      |             K %.*.f = j ; l {             O.=.*.&.                                  ",
"                                o.X.O.X.o.o.        4.q.Q #.=.[ * o O < >.q.          } %.&.%.                                  ",
"                                o.*.*.O.O.        q.N.s./ #.+.*.' q 5 r 8.B.k.p.    J H H F F                                   ",
"                                X.*.*.*.o.    L t.v.m.d.~ ~ n.!.n.!.XXA.Y V.D.f.a.G ( T T Y J H                                 ",
"                                X.&.*.&.|   D t.v.l.z.:.Y W C.[.$X%X#X-.Y R E ( ~ Y ) ) ) W ( T                                 ",
"                                | &.%.P C Z 9.b.s.u._ W T T E I ).$X XQ T R Y ) T T ) ) ) ) ) Q                                 ",
"                                  L D Y Q / e.b.d._ E ) W T J R R H.L.W ) ) T / Y E W ) ) ) ) D                                 ",
"                                1.2.y.) ) ) $.l.C.) ) ) ) ) W ) W T D ( W W T T Y W ) ) ) ) ~                                   ",
"                                e.M.x.:.) ) ^ 0.` ) ) ) ) W ) ) ) / ! ) ) ` ( ! E W ) ) ` ) J                                   ",
"                                3.m.v.D.` ` ` ~ ` ` ` ` :.` ` ` :.` ` ` ) ` ) ^ ` ` ` :.` `                                     ",
"                                  j.m.x.:.) ) Y ( / ( ) ) ) ) ) ` W T ) ) ` ( Y ) W ) ) W Q                                     ",
"                                  4.m.m.F.) ) T T J T ) ) E ) ) ) ) Y ( ) ) / D / ) ) ) / Z                                     ",
"                                    z.M.c._ ) W T Y ) ) ) ) ( W ) W T / ) ) (     ~ / Q                                         ",
"                                    3.m.m.F.W ) J / ) ) ) E ) ) ( W Y / ) ) (                                                   ",
"                                      a.M.B.:.T Z / ) ) ) ) ) ) ) ) T R ) ) ( J                                                 ",
"                                        g.M.e.    / ) E E ) ) W ) ) T T ) ) ) Y                                                 ",
"                                                  ~ ) ) ) ) ) ) ) W R T ) ) ) !                                                 ",
"                                                  ~ ) ) ) ) ( ) ) ) ( Y ) ) ) T                                                 ",
"                                                  / ) ( W ) ) ) ) W ) Y / ) ) )                                                 ",
"                                                  ~ ) ) ) W ) E ) ) ) T R ) ) ) J                                               ",
"                                                  / ) ) ) ) ) ) E ) ) T T ) W ) Y                                               ",
"                                                  ~ W ) E ) ) W ) ) E T T W / / D                                               ",
"                                                  J E ) ) ) ) ) ) ( E Y J Y J S                                                 ",
"                                                    A Y J Y Y Y Y Y S K $.0.K.Q.                                                ",
"                                                    ~._.J.F.u.H.x.P.`.}.@X+X}.'.                                                ",
"                                                    ].XXoX@X@X@X+XOX|.`.P.S.:.J                                                 ",
"                                                      i.k.c.Z.A.:._ J Y E E ) Q                                                 ",
"                                                      u.z.d._ ) ) E Y R ) ) ) Y                                                 ",
"                                                      r.x.z.:.) ) ) Y ( ) E ) Y                                                 ",
"                                                      0.z.z.;.) ) ) Y ) ) ) E T                                                 ",
"                                                      6.z.z.;.) ) ) Y / ) ) ) Q                                                 ",
"                                                      7.d.s.C.E W ) Y ( W ) ) ~                                                 ",
"                                                      5.w.s.C.E ) ) Y E ) ) ) ~                                                 ",
"                                                      5.w.z.C.E ) ( Y ( ) ) ) Y                                                 ",
"                                                      7.z.j.C.) ) ) Y ( W ) ) Y                                                 ",
"                                                      6.x.z.V.) W ) Y ) ) ) ) J                                                 ",
"                                                      0.z.z.;.W ) ( Y ( W ) ) Y                                                 ",
"                                                      9.z.w.;.) ) ( Y E ) ) ) ~                                                 ",
"                                                      y.z.z._ ) W ) Y R ) E E T                                                 ",
"                                                      d.k.z.) W E E Y / ^ S.S.$.                                                ",
"                                                    U x.x.r.J 9.).L.9.r 0 R.XX{.W.                                              ",
"                                                    P <.n t & 4 R.oX.Xc O * V ^.B %                                             ",
"                                                      2 + o o O $ b V 4 O o O + o o X                                           ",
"                                                      E.Y.M 7 : + O O O + a m v v b b                                           ",
"                                                            {./.E.Y.I.h.I.Y.                                                    ",
"                                                                                                                                ",
"                                                                                                                                "
};
