/* XPM */
static char *_41dbe54c36b403aa3b0e6a3b4bf1b84j0KSSqvlofal7bl6[] = {
/* columns rows colors chars-per-pixel */
"64 64 206 2 ",
"   c #000600",
".  c #240000",
"X  c #340D00",
"o  c #2E1100",
"O  c #371200",
"+  c #430100",
"@  c #4E0000",
"#  c #400E00",
"$  c #4D0E00",
"%  c #530000",
"&  c #5B0000",
"*  c #500F00",
"=  c #5B0E00",
"-  c #421100",
";  c #4B1400",
":  c #541300",
">  c #5D1400",
",  c #571800",
"<  c #5C1900",
"1  c #660D00",
"2  c #6B0900",
"3  c #760100",
"4  c #7E0100",
"5  c #631500",
"6  c #6B1500",
"7  c #641900",
"8  c #6C1B00",
"9  c #731400",
"0  c #7A1400",
"q  c #741C00",
"w  c #7B1A00",
"e  c #772200",
"r  c #792000",
"t  c #830100",
"y  c #8D0100",
"u  c #860900",
"i  c #8C0A00",
"p  c #920100",
"a  c #9A0400",
"s  c #960E00",
"d  c #990E00",
"f  c #831400",
"g  c #8B1200",
"h  c #821D00",
"j  c #8B1B00",
"k  c #941201",
"l  c #9B1300",
"z  c #961A02",
"x  c #9C1D00",
"c  c #A10D00",
"v  c #A21300",
"b  c #A31C02",
"n  c #AB1900",
"m  c #B71500",
"M  c #B71C01",
"N  c #BA1B00",
"B  c #832400",
"V  c #8D2301",
"C  c #832800",
"Z  c #9D2200",
"A  c #9E2800",
"S  c #A42300",
"D  c #AA2201",
"F  c #A72A02",
"G  c #B72502",
"H  c #BE2401",
"J  c #BC3F06",
"K  c #C80200",
"L  c #C11D00",
"P  c #D31800",
"I  c #EF0000",
"U  c #F10200",
"Y  c #FC0000",
"T  c #F10B00",
"R  c #FE0A00",
"E  c #E41500",
"W  c #EF1500",
"Q  c #EB1E00",
"!  c #F21400",
"~  c #FC1200",
"^  c #F11D00",
"/  c #FC1E00",
"(  c #C32600",
")  c #CB2500",
"_  c #C62A02",
"`  c #CA2800",
"'  c #D32400",
"]  c #DA2600",
"[  c #D32A01",
"{  c #DC2D00",
"}  c #CA3706",
"|  c #E62000",
" . c #EE2301",
".. c #E42C00",
"X. c #ED2D00",
"o. c #F12300",
"O. c #FB2301",
"+. c #F22E00",
"@. c #FA2E00",
"#. c #E53101",
"$. c #EE3201",
"%. c #EE3A03",
"&. c #F43101",
"*. c #FD3200",
"=. c #F23B03",
"-. c #FB3B02",
";. c #F53A08",
":. c #984E00",
">. c #A24700",
",. c #A14B00",
"<. c #B64300",
"1. c #BC4500",
"2. c #BD4800",
"3. c #BC6300",
"4. c #D2520A",
"5. c #EE4A0D",
"6. c #F24202",
"7. c #F24A08",
"8. c #E85500",
"9. c #F35400",
"0. c #F45B01",
"q. c #FB5900",
"w. c #F35B17",
"e. c #C66D00",
"r. c #D66800",
"t. c #CC7300",
"y. c #E96B00",
"u. c #F76703",
"i. c #F46F00",
"p. c #E07300",
"a. c #F57400",
"s. c #F77B00",
"d. c #FA7900",
"f. c #EC651A",
"g. c #F3651B",
"h. c #F56C1D",
"j. c #FC6A1C",
"k. c #EA7421",
"l. c #F57521",
"z. c #E68500",
"x. c #EB8500",
"c. c #EB8D00",
"v. c #F58200",
"b. c #FB8400",
"n. c #F48C00",
"m. c #F98D00",
"M. c #EC9300",
"N. c #E79F00",
"B. c #F49300",
"V. c #F99501",
"C. c #F79901",
"Z. c #FA9B01",
"A. c #FA9F0A",
"S. c #F78418",
"D. c #EE9B1A",
"F. c #F99E1A",
"G. c #EEA100",
"H. c #F5A100",
"J. c #FBA400",
"K. c #FDAB00",
"L. c #FDB300",
"P. c #FCBD00",
"I. c #F9A517",
"U. c #FAA51B",
"Y. c #FAAA1C",
"T. c #FCB51E",
"R. c #DB8E2E",
"E. c #D78E34",
"W. c #DA8E30",
"Q. c #E58B20",
"!. c #F38B2B",
"~. c #F88B2A",
"^. c #F9942E",
"/. c #F59630",
"(. c #F99431",
"). c #F69931",
"_. c #FA9B32",
"`. c #FBAE21",
"'. c #FBB42D",
"]. c #F8A733",
"[. c #FBA434",
"{. c #EEB53E",
"}. c #FBB630",
"|. c #FCBA32",
" X c #F1B53E",
".X c #FBB53D",
"XX c #FBB93E",
"oX c #FFC100",
"OX c #FFCC00",
"+X c #FFC535",
"@X c #FCC23F",
"#X c #EFB742",
"$X c #FBBD41",
"%X c #EFC345",
"&X c #FCC544",
"*X c #FDC846",
"=X c #FCC748",
"-X c #FDCC4A",
";X c #FED345",
":X c #FED54C",
">X c #FFD94D",
",X c #FDCF50",
"<X c #FDD254",
"1X c #FEDD51",
"2X c #FEE152",
"3X c #FFEA55",
/* pixels */
"8 8 e q q q q w 8 7 5 < o , ..*.X.^ U (.>X*X&X*X*X-X,XU.V.m.=.o.&.+.&.+.X.@.*.-.[ : 5 5 > 5 s d d d d d c s q 8 e 8 8 q q q q q ",
"f f w q 8 6 8 q 6 7 7 j Z S ..@.6.9.9._.:X&X&X*X&X&X*X'.T.F.=.o.=.+.+.X.&...( ) S 5 5 0 0 0 s d s s s d s s f 0 f f f w q q q q ",
"d d d 0 , 7 5 < 7 , ; ( *.&.+.W 0.H.J.}.-X=X*X*X*X*X*X&X:X$X;.o.+.+.+.+.*...6 - 5 5 5 f d d d s s d d d s d d d k d d f 8 q q q ",
"d d d 0 < > 7 5 < ; O _ *.&.o.I 0.J.Z.}.,X&X*X*X*X*X=X$X<X$X+.U +.X.+.+.*...9 : 5 5 5 u c d s d d d s d d d d d l d d f 8 q q q ",
"s s d 0 7 7 6 < j ( ( { @.%.i.s.s.V.V.'.*X*X&X*X*X*X*X&X*X$X(._.l.o.@.H Z x q > 0 u f k s d k d s d d d d s k s s s d g g g q q ",
"d d c 6 ; : : o Z *.*.+.W &.C.L.A.J.J.|.-X*X&X*X*X*X*X*X*X*X:X3X[.Y +.V   $ 5 5 0 c c d d d d s s l d k s d d d d d s d d d q 8 ",
"s s s 0 8 q q > S &.&.=.&.6.m.J.B.m.m.}.,X*X&X*X*X&X*X*X*X&X&X:X/.! +.F 6 w 6 5 0 s s s s s s s s d s d d l s s d s s s d k w q ",
"9 5 1 G $.{ ..{ #.+.o.a.V.m.B.J.s.@.^ ).:X*X&X*X*X*X*X&X*X&X&X:X/.W &.#...{ 9 > 6 6 6 6 6 6 s l s s s d d s d d d d d d d s s k ",
"5 > ; ) *.*.*.*.@.W U s.L.J.J.L.s.T I (.>X*X&X*X*X*X*X*X*X&X&X>X^.I I +.*.X.1 X > 5 5 5 < 5 s c d d d s s d d d d s d s d d c c ",
"9 6 > ( *.X.$.X.6.0.9.s.Z.V.s.s.u.+.W _.:X&X&X*X*X=X*X&X&X&X&X:X[.g.h.5.+.#.F Z j 8 6 8 6 6 f i i g f k d d k d s k d d s s f u ",
"5 > : ( *.+.X.! 9.J.J.C.J.m.X.U +.+.U (.1X*X&X*X*X*X&X*X-X-X*X&X*X:X<Xh.I $.+.*._ : > 5 5 5 5 5 5 5 5 u c d d d d d d d c k 6 > ",
"> : - ( *.+.o.I 9.J.J.C.J.m.+.T +.^ U (.:X&X*X*X*X&X&X*X-X*X*X*X*X>X:Xg.U ! ! ~ K + % & & & 5 5 5 5 5 f c d d d d d d d d k 6 > ",
"( ( ( ..@.%.i.s.b.V.Z.V.Z.C.s.a.s.a.a.].:X&X&X*X*X&X*X'.U.`.&X-X&X&X&X[.^././.).Q.e.e.e.t.3.q 5 q 6 6 9 0 0 0 9 0 0 0 9 0 0 5 5 ",
"@.*.*.@.W &.V.L.Z.C.Z.Z.Z.Z.J.J.J.J.J.|.*X*X*X*X&X,X-XY.b.C.@X-X&X&X&X:X>X:X:X1X@XJ.J.K.oXG.9 + > : > > 5 > > > > > > 7 5 5 5 6 ",
"+.+.X.=.@.6.m.J.V.C.V.C.C.C.C.Z.Z.C.V.}.-X*X&X*X&X&X*XY.m.A.&X-X&X&X&X&X&X&X&X=X|.C.C.B.Z.z.C 2 r 9 9 6 7 6 6 7 6 6 6 7 6 6 6 5 ",
"+.X.o.i.C.m.V.V.Z.C.Z.Z.C.C.C.C.C.V.V.}.-X*X&X-X}.C.Z.A.C.A.$X-X&X&X&X&X&X&X&X=X}.V.V.0.^ 6.x.N.y.| ..Z , 8 6 8 6 7 6 7 6 8 6 % ",
"&.X.^ v.P.K.J.J.J.J.J.J.J.J.B.m.V.C.V.|.<X-X-X<X|.V.V.Z.V.A.;X1X>X>X>X>X>X>X1X2X+XZ.Z.9.I o.J.OXb./ @.l . % % @ @ @ % @ @ % : . ",
"+.+.+.0.s.a.a.a.s.a.s.a.a.s.`.`.I.C.Z.`.|.|.|.|.Y.Z.Z.C.V.C.R.E.R.W.W.W.W.W.W.E.Q.C.C.a.9.0.i.s.0.X.@.1.:.>.,.,.,.,.,.>.,.,.A k ",
"+.+.X.o.^ ^ o.^ ^ ^ o.o.I &.$X1X}.V.V.Z.V.C.V.V.V.C.C.C.K.c.a t p p y y p p p 4 J J.J.C.K.V.+.U +.+.Q d.K.J.Z.J.Z.J.Z.Z.K.V.-.O.",
"+.&.&.+.+.X.+.+.+.X.+.+. .=.$X1X'.m.V.V.V.Z.V.C.Z.C.C.V.K.B.b g k z k z z k z t 4.K.J.C.J.V.=.o.+.^ U d.K.J.Z.Z.J.Z.J.Z.K.V.&.U ",
"&.+.+.&.&.&.$.X.&.&.&.=.o.=..X:XXX|.|.I.Z.A.Z.Z.C.C.Z.i.q.8.b i l l l l l l l s S 2.<.p.J.m.%.Q 7.a.a.v.C.M.B.B.B.B.B.B.C.m.a.a.",
"X.+.+.+.+.+.*.*.&.+.X.&.Q ;.$X:X&X-X<XY.m.V.V.V.V.K.K.9.Y  .v s l d d s d s s l p t 4 p.oXZ.-.Y u.L.L.J.J.J.J.K.J.K.J.J.J.J.L.oX",
"+.&.+.+.+.X.....X.+.+.=.o.=..X:X&X*X*XY.C.A.A.A.C.V.B.9.O...l i l s s d l s s s l k y r.C.x.$.E 8.c.M.c.c.c.M.c.c.c.c.c.c.c.c.M.",
"+.+.+.X.@.X.n i L +.@.$.o.;.$X:X&X&X*X@X@X@X@X;X^.+.=.%.*...f 5 f d d s d s d s l s s l b b h r B B B B C C B C C C C C C C l c ",
"&.+.+.&.*.+.l 3 M @.&.&.o.=.$X:X&X*X*X-X-X*X-X2X(.I I  .*...6 X 0 d c s d d d s s d l y p y 7 < 5 5 5 1 1 1 2 5 1 1 1 1 5 2 y p ",
"X.X.+.] ' ) v i N &.&.$.o.;..X:XXX&X&X&X@X&X*X-X[.h.l.5.@.#.b b x u g k s s s d d s s l l k g f f e w e w r e r r w r e e w j j ",
"+.*.*.M t s d i N &.&.&.^ =.$X>X*X*X*X-X-X-X*X&X*X:X:Xh.I &.&.*.) = 5 g c d d s d d d s l s d c g q q q q q q q q q q q q q q 8 ",
"+.&.*.N u s d i N &.&.$.Q =.$X<X*X-X*X-X:X-X&X=X*X:X:Xg.I o.&.*.( > 5 i d d d k s s d d k d d d g 8 q q q q q q q q q q q q q q ",
"M M N v d d d i N @.&.$. .=.F.T.U.Y.Y.S.g.l.$X*X$X*X*X[.).~.;.@._ 6 6 0 0 u g d s d d s d s d d g q q q q q q q q q q q q q q q ",
"i i u s d d d i N &.@.$.o.=.m.Z.m.C.Z.9.U o.&X3X*X*X*X*X3X&X+.R L * = 6 5 9 s c d s s d d d d d j 8 8 q q q q q q q q q q q q q ",
"l d d l s d d i N &.&.$.o.=.m.J.V.J.A.0.T 7.[.=XXX*X&X&X:X.X5.*.} 9 0 w 6 9 s s s d s d s s s d g q w q q q q q q q q q q q q q ",
"d d d d s d d i N @.@.$. .=.m.J.V.Z.Z.0.^ &.;. .l.-X*X&X&X&XXX*X!.E ..Z = 9 9 6 0 d d s s d s d l k k f 8 q q q q q q q q q q q ",
"d s s s d d s i N &.&.X.o.=.m.J.V.H.Z.q.O.&.+.I h.2X1X*X=X*X:X3X_.Y R z X 5 6 5 0 c d d s d d s d d c 0 8 e q q q q q q q q q q ",
"l d d l s d d i N &.@.$. .=.V.J.V.Z.J.8.K [ $.o.w.).)..X*X$X&X*X[.h.h.J d x 0 6 0 i i k d k s d s s l g 0 f q q q q q q q q q q ",
"s d s d d l d i N @.&.$.o.=.B.J.B.Z.Z.2.4 v X.*.+.U Y (.2X-X&X&X=X:X:Xh.R X.0 : 6 6 6 f d d d s d s s d d s q 8 q q q q q q q q ",
"d s d d s d s i N &.@.$.^ =.m.J.V.J.A.2.4 x X.*.&.@.T ).2X-X&X*X&X:X:Xl.R #.9 $ 6 6 6 i c d s d s l s s c k q q q 8 q q q q q q ",
"d s d d d d d i N @.&.$.o.=.m.Z.m.Z.Z.2.y l M N M M M 4.j.l.$X:X&X*X-Xh.T $._ ) n 5 6 0 0 u s d s d s s d k g g g k g w 8 q q q ",
"s l d s s l d i N &.@.$.o.=.V.L.Z.K.K.4.y l s u i i u P Y +.$X<X$X-X-Xh.I $.*.*.) 5 6 9 5 6 s d s d d s s d d d d d d f 8 q q q ",
"s d d k d d d i N &.&.$.o.=.z.M.c.M.M.<.t k l d d s d [ o.%..X:X$X-X-Xh.T $.$.*.( 5 6 9 6 9 s d s d d l s s d d s d d f q q q q ",
"l d d d d d d i N @.&...@.#.V e B C C q q 0 k d d d l l a D #X>X$X;X-Xh.! ;.&.@.( > 6 6 5 6 k d s s s s d d s s s d l f 8 q q q ",
"s d s d l d s i N @.&.X.*...0 = 2 5 1 8 8 q k d s s d k t l {.>X$X;X-Xg.U ! +.*.H O ; 6 5 6 l c d s s d d d s d k d d 0 8 e q q ",
"d s d d s d l i N +.&...@...C 8 r w w q q w s d s d s l p D #X<X$X-X-X~.g.g.&.@.[ Z b w > 6 f i g s d d s s l d d d d g w f q 8 ",
"d s d s d d s u M @.&.X.*...h 7 q e q q q w s d s s s x y b #X1X%X*X&X&X1X$X;.^ &.&.&.S : 6 5 > 0 d d s d d d s d s s d d s w 8 ",
"s l d s s s s t M &.@.X.@...h 8 w q q q 8 9 d d d s d l y b #X1X&X&X*X&X1X$X7.^ =.*.*.x : 8 6 7 0 d d d d k s l s d d s c k q q ",
"s d d d s d ) ' { @.+.X.@...h 8 q q q q q q f w g d d l y b D.T.'.*X&X$X;X$X6.o.$.=.=.x > 6 6 6 0 d d s d s d s s s d s d s 9 7 ",
"l d d l i v &.*.&.+.X.X.*...B 7 w q q q q q 8 8 w d d l y b n.Z.U.-X,X&X:X.X+.U  .^ / k # > > : 9 c c s d k d d d l d s d s 6 5 ",
"s s s d s v X.@.X.+.+.X.@...h 7 q q q q q q q e f k d l y b n.Z.U.&X&X@X:X$X5.+.;.-.;.F 5 w w q f s s s d d s d s s s s d s 9 7 ",
"s d d d i v ..&.X.+.+.X.*...B 7 w q q q q q q 8 f d d l y b c.K.B.A.C.'.-X=X.X$X.X&X&Xf.E #.....H 5 6 g d d s s s d s s d k 9 5 ",
"s d d s u s ..*.X.+.X.@.*.$.h 7 w q q q q q q 8 f d d l y b M.L.J.Z.J.|.-X*X:X:X:X>X1Xj.Y / *.*.( o - f c l d l d c l d c k > ; ",
"d s s n N N X.@.X.&.@.[ ` ( r 6 q q q q q q q q w g g l y v y.b.a.a.a.].-X&X&X&X$X*X*X!.g.f.%.@.[ x Z k i i g i i g i g i g x b ",
"k s s ' *.&.+.+.X.&.@.Z ; 8 q q q q q q q e q q q q 8 z p v Q O. . .I (.>X&X&X*X*X*X&X*X1X$X;. .&.*.*.b * 6 6 6 6 6 6 6 > w ..*.",
"d s p ' *.&.+.+.X.@.&.S < q q q q q q q q q q q q q 8 g s v ..&.X.+.U /.>X&X&X*X*X*X&X*X2X$X+.I X.&.*.x # 5 6 6 6 6 6 6 $ 9 ..*.",
"d s s ) @.+.X.+.X.&.&.S 6 w e q q q q q q q q q q q q g s l ..*.$.+.! (.:X$X$X&X&X&X&X$X*X$X)._.l.X.&.[ ) H 0 6 0 6 6 D ) _ ..^ ",
"d s i ' *.+.&.X.+.*.*.D < q q q q e q q q q q q q q 8 z a v +.*.&.+.U [.3X1X<X>X:X:X:X-X&X&X:X3X_.U ^ &.*.$.9 $ 6 = $ ) *.*.&.U ",
"d s i ' *.X.+.@.....$.Z 7 q q q q w q q q q e q q 8 q g i l { ..$.+.! !.#X#X#X#X X.X.X&X*X&X&X:X).+.;.$.&...j 6 f 9 9 ) *.$.&.T ",
"l s s ' *.X.+.@.` w w w q q q q q q q q q q q q q q q q w w h q D &.&.H z b b z _ ;.+.).:X&X&X*X$X$X$Xg.T $.........{ X.;.$.&.W ",
"s s s ' *.+.+.*.` < 7 q q q q q q q q q q q q q q q q q 8 q 8 ; z &.&.m 4 p p 4 m O.Y _.3X<X&X&X*X1X1Xl.I @.*.*.*.*.@./ U U ! I ",
"d s s ' *.X.+.@._ 8 e w 8 q q q q q q q q q q q q q q q q q w 7 D &.&.M g l l k G [ P k.[._.$X-X$X&X&Xh.W =.$.X.$.$.X.w.l.h.h.g.",
"s s i ' *.X.+.*._ 7 8 q q q q q e q q q q q q q q q q q q w q 7 D *.*.N i d l k s i u P Y o.$X1X&X:X:Xh.I +.+.+.+.+.U ).2X-X*X-X",
"s u u ' *.X.+.*.` 6 q q q q q q q q q q q q q q q q q e q q q 7 S &.&.N u s d d d s i ) O.;.$X2X&X:X>Xh.I o.o. .o.U I _.2X-X*X:X",
"P ) ' ..&.+.X.*._ 7 q q q q q q q q q q q e q q q q q q q q q 8 h D D z s d d s d s s [ +.;.g.k.g.h.h.i.s.a.s.a.S.(.^..X*X&X&X&X",
"*.*.*.@.+.&.+.*.` 8 8 w q q q q q q q q q q q q q q q q q q q q 8 < < g c d s d s s p ] *.*.T Y ! U U d.L.J.J.Z.T.1X>X-X&X*X*X&X",
"+.&.X.+.+.X.&.*.` 6 8 q q q q q q q q q q q q q q q q q q q q q q q q g s s s d d s s ) +.X.#.$.$.+. .a.J.V.V.V.U.-X*X&X*X&X&X*X",
"X.+.X.+.&.X.+.*._ 8 q w q q q q q q q q q q q q q q q q q q q q q w q q q w s d s s s l v v v s ( ;.o.a.J.C.V.B.Y.&X*X&X*X*X&X*X"
};
